<svg id="Layer_1" data-name="Layer 1" xmlns="http://www.w3.org/2000/svg" width="305" height="61" viewBox="0 0 1989.77 396.41"><defs><style>.cls-1{fill:#fff;}</style></defs>
    <path class="cls-1" d="M409.89,184.69A39.4,39.4,0,1,1,370.44,145,39.62,39.62,0,0,1,409.89,184.69Z"/>
    <path class="cls-1" d="M457.54,15.1l-14.26,0-.34,0h-2.5l-1.33,2.12a14.58,14.58,0,0,0-.9,1.36L431.5,29.3l-1.21,1.92h0c-16,25.57-45.16,71.94-47.51,75.67a78.84,78.84,0,0,1,63.71,57.16c.85-1.32,1.72-2.64,2.54-4,1.5-2.5,3.18-5,4.77-7.6,6.53-10.13,68.35-108,83.32-131.82h0l3.49-5.56Z"/>
    <path class="cls-1" d="M558.45,353.91c-15.9,19-33.78,32.4-56.54,37.8-31.3,7.4-61,4-87.75-15.4-19.37-14.1-31.2-33.9-39.84-55.9-.3-.7-.6-1.4-.9-2.3-.1-.2-.1-.41-.2-.6-2.17-5.87-6-16.47-9.76-27.89l-9.31,9.19h0c-24.92,24.81-51.6,47.52-82,65.21a230.1,230.1,0,0,1-88.05,30.1c-37.66,4.7-74.82,3.2-109.8-14C29.39,358.11,4.15,322,.48,271.6c-2.89-39.1,7.45-75.41,25.43-109.51C53.94,108.79,94,66.38,145,34.68,177,14.78,212,3.78,249.7.58c29.51-2.5,57,2.9,81.68,19.6,20.87,14.2,35.28,33.8,45.91,56.5,2.87,6.19,5.45,12.54,8.35,19.32l1.63,3.76-4.48,7.13,1.52.25v0a79.61,79.61,0,0,0-13.81-1.23,78.46,78.46,0,0,0-53.66,21.13c-5-17.92-11-35.43-20.43-51.68-6.65-11.5-15.1-21.6-27.12-27.8-15.7-8.1-31.8-6.6-47.8-1.5-22.66,7.3-40,22.4-55.15,40C132.94,125,107.8,168.79,93.49,218.3c-7.75,26.7-10.54,54.1-5,81.8,6.36,31.21,27.62,49.91,57.24,49.81a80.53,80.53,0,0,0,30.31-5.8c25.43-10,46.6-26.5,66.48-45,23.37-21.73,43.21-46.23,61.58-72a78.73,78.73,0,0,0,125.09,10.06c5.19,13.12,10.57,33.21,15.65,48.85v.1c1.39,4.4,2.78,8.4,4.17,11.8,5.77,14.4,11.83,28.61,23.36,39.31l2.38,2.1c15,12.5,33,15.8,51.78,16.4C536.69,356.21,546.82,354.81,558.45,353.91Z"/>
    <path class="cls-1" d="M736.68,227.14H660.61l-15,35.21H616.49L685,110.22h27.82l68.68,152.13H751.89ZM727.33,205l-28.69-66.51L670.17,205Z"/>
    <path class="cls-1" d="M798.18,101.09h27.16V262.35H798.18Z"/>
    <path class="cls-1" d="M984.21,204.32c0,36.08-25,59.55-58.9,59.55-14.78,0-27.82-5-37.16-15.65v56.29H861V146.3h25.87v15.21C896,150.43,909.45,145,925.31,145,959.22,145,984.21,168.46,984.21,204.32Zm-27.6,0c0-22.16-14.78-36.29-34.34-36.29s-34.56,14.13-34.56,36.29,15,36.3,34.56,36.3S956.61,226.49,956.61,204.32Z"/>
    <path class="cls-1" d="M1124.38,195.85v66.5h-27.16v-63c0-20.64-10.22-30.64-27.6-30.64-19.35,0-32.39,11.74-32.39,35v58.68h-27.16V101.09h27.16v58.68c8.91-9.56,22.61-14.78,38.69-14.78C1103.74,145,1124.38,160.86,1124.38,195.85Z"/>
    <path class="cls-1" d="M1256.08,194.33v68h-25.64V248.22c-6.52,10-19.13,15.65-36.51,15.65-26.52,0-43.25-14.56-43.25-34.77,0-19.34,13-34.56,48.24-34.56h30V192.8c0-15.86-9.57-25.21-28.91-25.21-13,0-26.51,4.35-35.21,11.52l-10.64-19.77c12.38-9.57,30.42-14.35,49.11-14.35C1236.74,145,1256.08,160.86,1256.08,194.33Zm-27.16,31.73V212.58h-28c-18.47,0-23.47,7-23.47,15.43,0,9.78,8.26,16.08,22.17,16.08C1212.83,244.09,1224.35,238,1228.92,226.06Z"/>
    <path class="cls-1" d="M1511.88,110.22l-50.42,152.13h-30l-37.6-112.58-38.25,112.58h-30.21L1275,110.22h29.34l37.81,115.62,39.34-115.62h26.08L1446,226.49l38.9-116.27Z"/>
    <path class="cls-1" d="M1628.58,194.33v68h-25.64V248.22c-6.52,10-19.13,15.65-36.52,15.65-26.51,0-43.25-14.56-43.25-34.77,0-19.34,13-34.56,48.25-34.56h30V192.8c0-15.86-9.56-25.21-28.9-25.21-13,0-26.52,4.35-35.21,11.52l-10.65-19.77c12.39-9.57,30.43-14.35,49.12-14.35C1609.24,145,1628.58,160.86,1628.58,194.33Zm-27.17,31.73V212.58h-28c-18.47,0-23.47,7-23.47,15.43,0,9.78,8.26,16.08,22.16,16.08C1585.33,244.09,1596.85,238,1601.41,226.06Z"/>
    <path class="cls-1" d="M1659.22,101.09h27.17V262.35h-27.17Z"/>
    <path class="cls-1" d="M1722,101.09h27.16V262.35H1722Z"/>
    <path class="cls-1" d="M1893.5,213h-91.07c3.26,16.95,17.39,27.82,37.6,27.82,13,0,23.26-4.13,31.51-12.61L1886.11,245c-10.44,12.39-26.74,18.91-46.73,18.91-38.9,0-64.11-25-64.11-59.55s25.43-59.33,60-59.33c33.9,0,58.68,23.69,58.68,60C1893.93,207.15,1893.71,210.41,1893.5,213Zm-91.28-18h65.85c-2.18-16.74-15-28.25-32.82-28.25C1817.65,166.73,1804.82,178,1802.22,195Z"/>
    <path class="cls-1" d="M1989.77,256.05c-6.52,5.21-16.3,7.82-26.08,7.82-25.43,0-40-13.47-40-39.12V168.9h-19.12V147.17h19.12V120.65h27.17v26.52H1982V168.9h-31.08v55.2c0,11.3,5.65,17.39,16.08,17.39a24.42,24.42,0,0,0,15.21-4.78Z"/>
</svg>