<?xml version="1.0" encoding="UTF-8"?>
<svg version="1.1" xmlns="http://www.w3.org/2000/svg" width="206" height="61" viewBox="0 0 5000 1481">
<path d="M0 0 C1.09822603 -0.00570851 1.09822603 -0.00570851 2.21863845 -0.01153234 C4.67928435 -0.02186315 7.1397002 -0.01793922 9.60036182 -0.01409245 C11.37946623 -0.01854405 13.15856864 -0.02385783 14.93766814 -0.02996117 C19.83256038 -0.04416105 24.72738919 -0.04580408 29.62229908 -0.04536426 C34.89922044 -0.04701072 40.17611553 -0.06007406 45.45302296 -0.07155704 C56.99435218 -0.09441966 68.53566303 -0.10232904 80.07701182 -0.10738349 C87.28254995 -0.11063909 94.48808272 -0.11716075 101.69361782 -0.12438488 C121.64105749 -0.14395258 141.58849219 -0.16035575 161.53594208 -0.16326141 C162.81275891 -0.16344898 164.08957575 -0.16363655 165.405084 -0.16382981 C167.99354351 -0.16419606 170.58200301 -0.16455976 173.17046251 -0.16492092 C174.45539035 -0.16510373 175.74031819 -0.16528654 177.06418324 -0.16547489 C178.3506782 -0.16565544 179.63717317 -0.16583599 180.96265284 -0.16602201 C201.8101735 -0.16956392 222.65759088 -0.19658663 243.50507572 -0.23397278 C264.90546268 -0.27204354 286.30579838 -0.2914188 307.70621997 -0.29172093 C319.72315725 -0.29230578 331.73997135 -0.30081578 343.75687695 -0.32971859 C353.98926417 -0.35421597 364.22148328 -0.36152641 374.4538919 -0.34647106 C379.67440046 -0.33929547 384.89457694 -0.34018786 390.11504841 -0.36288166 C394.89644613 -0.38346758 399.67725637 -0.38087473 404.45864771 -0.36000682 C406.18612539 -0.3565112 407.91364544 -0.36142499 409.64106759 -0.37571125 C427.12408147 -0.51095385 427.12408147 -0.51095385 434.66598988 5.26006222 C443.12955876 14.24241691 443.7017467 23.99250211 444.06052113 35.78349972 C444.1265427 37.68440342 444.19330931 39.58528136 444.26071644 41.48613644 C444.29556141 42.485462 444.33040638 43.48478756 444.36630726 44.51439571 C448.14801288 149.71288677 465.19299023 254.18517184 500.66598988 374.26006222 C500.90321766 375.02699398 501.14044544 375.79392574 501.38486195 376.58409786 C523.2146603 447.11156599 552.01970762 514.90180083 584.85348988 580.94756222 C585.34501545 581.94033169 585.83654102 582.93310116 586.34296131 583.95595455 C592.76037919 596.89854121 599.53166442 609.57366898 606.72482777 622.10234737 C609.53886814 627.00676669 612.24032459 631.9666383 614.91598988 636.94756222 C621.08800659 648.29478989 627.87610948 659.26935833 634.62709522 670.27709103 C636.71220102 673.68239809 638.7678308 677.1027786 640.79098988 680.54521847 C648.22316792 693.18743868 656.27987634 705.36907568 664.47649097 717.52257442 C667.16768841 721.51345436 669.83199479 725.52129494 672.48605824 729.53691769 C679.35312826 739.91314609 686.46686116 750.11204004 693.66598988 760.26006222 C694.20336781 761.01786983 694.74074574 761.77567745 695.29440784 762.55644894 C703.57966502 774.20783091 712.17978951 785.6063718 720.88864613 796.94365597 C722.41329636 798.93072759 723.93221249 800.92190304 725.44723988 802.91631222 C731.53794568 810.90541983 737.85734967 818.69422005 744.21188831 826.47392941 C746.12843693 828.82810498 748.02422907 831.1984401 749.91598988 833.57256222 C757.46541935 843.02507704 765.21236998 852.2859333 773.10886097 861.44853878 C774.66050923 863.25368618 776.20532572 865.06444781 777.74802113 866.87724972 C783.21153911 873.29181807 788.74756616 879.61228009 794.44333363 885.82256222 C796.34020751 887.90278947 798.1999193 890.0056312 800.04098988 892.13506222 C804.58275873 897.354391 809.30346689 902.40968301 814.01266956 907.47734737 C815.66478052 909.25875821 817.31030694 911.04607016 818.95505238 912.83428097 C826.03078002 920.50050689 833.2754608 927.962446 840.71750355 935.27471066 C844.0134601 938.52921609 847.19269186 941.81350905 850.20895863 945.33037472 C853.57909572 949.24114492 857.23023964 952.72169609 861.04098988 956.19756222 C867.77824005 962.41901157 874.30402443 968.81915418 880.72995472 975.36138058 C884.56531924 979.24500341 888.49946597 982.92089075 892.63473988 986.48271847 C896.98257164 990.28707126 901.12442309 994.31890035 905.31052113 998.29912472 C909.42589284 1002.19631402 913.60202938 1005.99710489 917.88425159 1009.71025753 C920.1146403 1011.65031063 922.29677001 1013.64056525 924.47848988 1015.63506222 C928.84884671 1019.58377667 933.36902066 1023.30633432 937.94723988 1027.01006222 C940.58746717 1029.19507791 943.13328708 1031.45177612 945.66598988 1033.76006222 C950.31331349 1037.98556303 955.12586812 1041.96193632 960.00827503 1045.91142941 C962.59652864 1048.01710141 965.16545102 1050.14605233 967.7370348 1052.27202511 C978.03173251 1060.77884815 988.37042166 1069.23152183 998.97946644 1077.34502316 C1000.60786087 1078.59059874 1002.23125945 1079.84241174 1003.85348988 1081.09599972 C1005.50709933 1082.36836032 1007.17000086 1083.62907026 1008.85348988 1084.86162472 C1015.16783176 1089.73346608 1018.53828965 1096.44987548 1019.60348988 1104.32256222 C1020.09579726 1114.51808938 1016.39379581 1121.07842973 1010.66598988 1129.26006222 C1010.16986195 1129.97629757 1009.67373402 1130.69253292 1009.16257191 1131.43047237 C1005.0296295 1137.3967425 1000.85353857 1143.3320383 996.66598988 1149.26006222 C995.63862949 1150.71577964 994.61128478 1152.17150813 993.58395863 1153.62724972 C992.12530476 1155.69357495 990.66628831 1157.75964005 989.20627308 1159.82500362 C985.34315627 1165.29195532 981.50200014 1170.774065 977.66598988 1176.26006222 C972.86350288 1183.12824777 968.04312387 1189.98331386 963.20505238 1196.82646847 C959.34262517 1202.29313131 955.50163733 1207.77458388 951.66598988 1213.26006222 C947.34692183 1219.43689533 943.01700722 1225.60569137 938.66598988 1231.76006222 C931.96682874 1241.23733267 925.31642354 1250.74856413 918.66598988 1260.26006222 C911.53197108 1270.46318725 904.39162073 1280.6613458 897.20456409 1290.82720089 C893.34225516 1296.29358818 889.50146919 1301.77482433 885.66598988 1307.26006222 C880.86350288 1314.12824777 876.04312387 1320.98331386 871.20505238 1327.82646847 C867.34262517 1333.29313131 863.50163733 1338.77458388 859.66598988 1344.26006222 C854.86350288 1351.12824777 850.04312387 1357.98331386 845.20505238 1364.82646847 C841.34262517 1370.29313131 837.50163733 1375.77458388 833.66598988 1381.26006222 C829.34692183 1387.43689533 825.01700722 1393.60569137 820.66598988 1399.76006222 C813.96682874 1409.23733267 807.31642354 1418.74856413 800.66598988 1428.26006222 C796.56411352 1434.1265953 792.46067889 1439.99202312 788.35202503 1445.85381222 C787.23381687 1447.44967953 786.11629636 1449.04602891 784.99948597 1450.64287472 C765.5898381 1478.38585513 765.5898381 1478.38585513 756.66598988 1481.26006222 C753.17770863 1481.59599972 753.17770863 1481.59599972 749.35348988 1481.63506222 C748.09923206 1481.66342159 746.84497425 1481.69178097 745.55270863 1481.72099972 C737.91466883 1480.81518193 732.48641917 1476.65081755 726.72848988 1471.82256222 C725.41613107 1470.74658071 724.10227157 1469.67242753 722.78708363 1468.59990597 C721.7736388 1467.77208614 721.7736388 1467.77208614 720.73972034 1466.92754269 C717.31326841 1464.17234293 713.79952203 1461.53434551 710.29098988 1458.88506222 C702.18761673 1452.73866713 694.33981668 1446.30906727 686.52438831 1439.80254269 C684.00199197 1437.70894047 681.45944406 1435.64050106 678.91598988 1433.57256222 C674.39675764 1429.88185589 669.94186757 1426.11984242 665.49655628 1422.34087276 C662.12690917 1419.48100811 658.72541132 1416.66724932 655.29098988 1413.88506222 C646.25830404 1406.5319534 637.54167997 1398.79657597 628.79489613 1391.10771847 C627.06195402 1389.6037155 625.31901225 1388.11434803 623.56833363 1386.63115597 C616.72684341 1380.825787 610.04126552 1374.89848598 603.49338245 1368.76323605 C600.6126764 1366.06468332 597.72243904 1363.39619455 594.72848988 1360.82256222 C590.20679359 1356.91921756 585.87203048 1352.81641354 581.51486683 1348.73174191 C577.87420089 1345.31892778 574.21794206 1341.9253206 570.53659534 1338.55644894 C565.00179991 1333.48858412 559.63609883 1328.30095296 554.39645863 1322.92803097 C552.34930721 1320.92773853 550.30245033 1319.07326727 548.13034534 1317.22002316 C543.03550799 1312.77678254 538.27889234 1308.01652208 533.50583363 1303.23271847 C532.54769127 1302.27525197 531.58940071 1301.31793377 530.63097095 1300.36075497 C528.63507701 1298.36632475 526.64097536 1296.37012481 524.64816761 1294.37261105 C522.11457124 1291.83331823 519.57651004 1289.29854319 517.03707504 1286.76509094 C515.06108284 1284.79274038 513.08751308 1282.81797959 511.1146307 1280.84251881 C509.73188389 1279.45879594 508.34715057 1278.07705907 506.96236134 1276.69538021 C502.52662721 1272.24328433 498.22064942 1267.74248349 494.14378834 1262.95804501 C491.78885558 1260.25223945 489.23305439 1257.76247158 486.66598988 1255.26006222 C482.67760981 1251.32615638 478.87435929 1247.32073817 475.24020863 1243.05303097 C473.61831797 1241.20576593 471.91938782 1239.48249508 470.16598988 1237.76006222 C467.19883187 1234.83875433 464.46540016 1231.78014548 461.74802113 1228.62724972 C459.10552587 1225.62283673 456.38758814 1222.6927215 453.66598988 1219.76006222 C448.281668 1213.94756366 443.03878717 1208.03853525 437.89255238 1202.01396847 C436.85876448 1200.80427641 435.8249084 1199.59464262 434.79098988 1198.38506222 C434.27109486 1197.77630245 433.75119984 1197.16754269 433.21555042 1196.54033566 C430.18667271 1193.00325063 427.11427245 1189.51588214 423.97848988 1186.07256222 C420.20112542 1181.90933795 416.6417172 1177.6029833 413.10739613 1173.23271847 C410.38879739 1169.92255265 407.59525534 1166.68501054 404.79098988 1163.44756222 C400.28142367 1158.22953372 395.96821394 1152.89245483 391.74289417 1147.44267941 C388.62721044 1143.43928064 385.40544695 1139.54829852 382.10348988 1135.69756222 C377.21478027 1129.98261603 372.61241776 1124.07409711 368.06296253 1118.08672237 C365.99115379 1115.37765683 363.89081896 1112.69111858 361.79196644 1110.00298214 C349.31696438 1094.02308199 337.01969025 1077.93285683 325.22946644 1061.43974972 C323.67263008 1059.26931952 322.10496673 1057.10718319 320.53317738 1054.94756222 C306.68004526 1035.9032456 293.39070997 1016.49357729 280.39059925 996.85869503 C278.91182417 994.6304841 277.42543779 992.40788465 275.93161488 990.18974972 C253.95560698 957.54445373 233.78025754 923.67078168 214.05368519 889.63408566 C213.05963828 887.93350294 212.03437258 886.25101956 210.98923206 884.58135128 C209.66598988 882.26006222 209.66598988 882.26006222 209.66598988 880.26006222 C209.00598988 880.26006222 208.34598988 880.26006222 207.66598988 880.26006222 C207.41977894 880.92908566 207.173568 881.59810909 206.91989613 882.28740597 C205.38091265 885.9358995 203.52779132 889.36785204 201.60348988 892.82256222 C201.17648792 893.58995724 200.74948597 894.35735226 200.30954456 895.14800167 C194.43250239 905.5891946 188.13784222 915.78559284 181.88130665 926.00191402 C179.52414391 929.85163614 177.18019378 933.70904163 174.84567738 937.57256222 C174.24400745 938.56683224 173.64233753 939.56110226 173.02243519 940.58550167 C171.92899812 942.39294142 170.83700684 944.20125733 169.74704456 946.01079464 C160.61531668 961.06600086 150.78528684 975.70237711 141.10519886 990.40752316 C139.85460011 992.30839421 138.60524953 994.21008703 137.35715199 996.11260128 C129.77747218 1007.66618049 122.07680875 1019.10410126 114.03453541 1030.3411932 C111.58141194 1033.78077377 109.15742872 1037.24088509 106.72848988 1040.69756222 C96.58449123 1055.07128666 86.2253864 1069.24335832 75.52536488 1083.20928097 C72.10105996 1087.68065247 68.71983738 1092.18248743 65.35348988 1096.69756222 C60.35206349 1103.39291213 55.22282391 1109.978611 50.03366566 1116.52910519 C48.63354884 1118.30112022 47.24055836 1120.07852004 45.84958363 1121.85771847 C40.21133224 1129.0679112 34.49097196 1136.1992025 28.66598988 1143.26006222 C27.57067324 1144.59448053 26.47564223 1145.92913331 25.38083363 1147.26396847 C18.64654958 1155.46807353 11.86258089 1163.62498081 4.98386097 1171.70830441 C3.65150283 1173.27712033 2.32403144 1174.849941 0.99802113 1176.42412472 C-8.76791456 1188.01421346 -18.6328561 1199.49915923 -28.91994762 1210.63115597 C-30.92525148 1212.81492537 -32.89267083 1215.01970147 -34.83401012 1217.26006222 C-38.20196988 1221.14369046 -41.67624045 1224.92687065 -45.15749645 1228.70854855 C-47.97082372 1231.76638838 -50.75729183 1234.84508394 -53.52151012 1237.94756222 C-62.72499326 1248.19388607 -72.140996 1258.29473291 -82.02541637 1267.88896847 C-83.91116493 1269.82576943 -85.66353721 1271.79081793 -87.41994762 1273.84160519 C-91.51250679 1278.53159309 -95.86196015 1282.932087 -100.26760387 1287.32646847 C-101.52275547 1288.58305515 -101.52275547 1288.58305515 -102.80326366 1289.86502743 C-104.56269116 1291.62513157 -106.32336666 1293.38398899 -108.08523083 1295.14165401 C-110.76370424 1297.81477194 -113.43679886 1300.49318473 -116.10940075 1303.17217159 C-117.82848128 1304.89059125 -119.54787202 1306.60870064 -121.26760387 1308.32646847 C-122.0574316 1309.11832043 -122.84725933 1309.91017239 -123.66102123 1310.72601986 C-127.83234679 1314.87998996 -132.07599011 1318.87948486 -136.55485058 1322.701087 C-139.63427295 1325.39940778 -142.47131895 1328.33578165 -145.33401012 1331.26006222 C-149.62642983 1335.60270569 -153.94935586 1339.80682007 -158.61135387 1343.75615597 C-160.4383152 1345.3511222 -162.13460299 1347.03024064 -163.83401012 1348.76006222 C-166.73400365 1351.70546952 -169.77027444 1354.41469931 -172.90041637 1357.11162472 C-176.09996777 1359.93626881 -179.2143842 1362.84772588 -182.33401012 1365.76006222 C-188.29103786 1371.31169087 -194.34454926 1376.71124406 -200.54104137 1381.99443722 C-201.74303684 1383.02027675 -202.94485435 1384.0463248 -204.14651012 1385.07256222 C-205.05590343 1385.84865841 -205.05590343 1385.84865841 -205.98366833 1386.64043331 C-209.72491113 1389.845213 -213.39524848 1393.11223274 -217.02151012 1396.44756222 C-221.35813817 1400.4238582 -225.8319069 1404.16951987 -230.40822887 1407.86553097 C-233.63780661 1410.50869673 -236.80063076 1413.22021503 -239.95901012 1415.94756222 C-250.76606033 1425.25633844 -261.77046703 1434.32236285 -273.02981091 1443.07890987 C-277.66448058 1446.69682337 -282.18880278 1450.43813629 -286.70901012 1454.19756222 C-320.91665643 1482.57008319 -320.91665643 1482.57008319 -339.33401012 1481.26006222 C-351.42318823 1478.44685725 -358.43845578 1463.95040828 -364.87649059 1454.40264034 C-367.25476295 1450.90654015 -369.70010258 1447.45867112 -372.14651012 1444.01006222 C-376.56249696 1437.77403117 -380.95597272 1431.52279646 -385.33401012 1425.26006222 C-389.65299736 1419.08317344 -393.98293456 1412.91439102 -398.33401012 1406.76006222 C-403.28586741 1399.75596461 -408.20764795 1392.73116969 -413.12307262 1385.70146847 C-416.8468524 1380.37826786 -420.58372127 1375.06461517 -424.33401012 1369.76006222 C-429.28586741 1362.75596461 -434.20764795 1355.73116969 -439.12307262 1348.70146847 C-442.8468526 1343.37826757 -446.58377171 1338.06465103 -450.33401012 1332.76006222 C-457.63454448 1322.43203202 -464.87759578 1312.06386528 -472.12502575 1301.69853878 C-478.6625105 1292.34957835 -485.20982342 1283.00805567 -491.79543591 1273.69292355 C-496.25827115 1267.37660181 -500.69124232 1261.03956639 -505.12307262 1254.70146847 C-508.8468524 1249.37826786 -512.58372127 1244.06461517 -516.33401012 1238.76006222 C-521.28586741 1231.75596461 -526.20764795 1224.73116969 -531.12307262 1217.70146847 C-534.8468524 1212.37826786 -538.58372127 1207.06461517 -542.33401012 1201.76006222 C-547.28586741 1194.75596461 -552.20764795 1187.73116969 -557.12307262 1180.70146847 C-560.84685289 1175.37826716 -564.58384349 1170.06470207 -568.33401012 1164.76006222 C-574.46311348 1156.0869963 -580.56611091 1147.39590355 -586.64113903 1138.68486691 C-587.75610186 1137.08783621 -588.87291852 1135.49209792 -589.99172497 1133.89775753 C-591.52721086 1131.70928114 -593.05636585 1129.51651669 -594.58401012 1127.32256222 C-595.03784069 1126.67859493 -595.49167126 1126.03462765 -595.95925426 1125.3711462 C-601.73609051 1117.0352484 -602.53125654 1109.15296682 -601.33401012 1099.26006222 C-599.19557569 1091.56169825 -594.54748766 1086.96051763 -588.33401012 1082.26006222 C-587.39557262 1081.53560909 -586.45713512 1080.81115597 -585.49026012 1080.06474972 C-583.88700536 1078.83056103 -582.2835258 1077.59663297 -580.67360973 1076.3711462 C-575.47826035 1072.40986759 -570.41691863 1068.29380554 -565.36086559 1064.15703487 C-560.93980945 1060.5459919 -556.46846695 1057.00978208 -551.95901012 1053.51006222 C-547.03450664 1049.67798554 -542.35472998 1045.66619079 -537.75979137 1041.43974972 C-535.18273439 1039.1241333 -532.52818621 1036.93801156 -529.83401012 1034.76006222 C-525.36114967 1031.14156837 -521.08705065 1027.35947165 -516.83791637 1023.48271847 C-514.37675041 1021.29800172 -511.84740447 1019.24506798 -509.27151012 1017.19756222 C-503.40870078 1012.46221621 -497.97168717 1007.31036351 -492.52321911 1002.10747433 C-488.53865259 998.3066018 -484.48801106 994.61860151 -480.32790661 991.01103878 C-476.88183006 987.98480381 -473.54547406 984.84361633 -470.20901012 981.69756222 C-469.47690319 981.00863888 -468.74479626 980.31971554 -467.99050426 979.60991573 C-462.56120026 974.4769801 -457.26302534 969.22728628 -452.00905895 963.91582394 C-449.21972868 961.10666526 -446.42202183 958.38061289 -443.39651012 955.82256222 C-434.74841704 948.48478627 -426.63540828 940.14922253 -419.33401012 931.47881222 C-415.70328061 927.45097166 -411.79679685 923.68467807 -407.925807 919.88896847 C-404.13921128 916.15370304 -400.57071667 912.30542296 -397.097682 908.27764034 C-393.49921897 904.16112616 -389.69899079 900.22886655 -385.93947887 896.26006222 C-379.55490097 889.49214527 -373.49176405 882.46575455 -367.45901012 875.38506222 C-363.9099968 871.22799533 -360.3272699 867.11430719 -356.64651012 863.07256222 C-352.84893764 858.88636921 -349.26335069 854.55987208 -345.70901012 850.16631222 C-343.61744219 847.60689356 -341.49290967 845.08374006 -339.34597301 842.57109737 C-333.65775191 835.91264457 -328.19760722 829.10286042 -322.82912731 822.18486691 C-321.2541283 820.15722285 -319.67340146 818.13413989 -318.09182262 816.11162472 C-294.92717833 786.4580891 -272.814634 756.18643877 -251.97414684 724.85063839 C-250.20562628 722.19247615 -248.43216055 719.53766242 -246.65822887 716.88310909 C-236.42639206 701.54220355 -226.47433345 686.03206729 -217.02151012 670.19756222 C-216.40034313 669.15865841 -215.77917614 668.1197546 -215.13918591 667.04936886 C-200.21363491 642.00769447 -186.12022574 616.56443779 -172.62600231 590.72637081 C-171.23634378 588.07362506 -169.83635104 585.42648294 -168.43557262 582.77959347 C-161.38950404 569.42956771 -154.69183035 555.95123005 -148.33401012 542.26006222 C-147.56564831 540.60780636 -147.56564831 540.60780636 -146.78176403 538.92217159 C-117.65432904 476.00198263 -93.34979797 410.93924647 -74.33401012 344.26006222 C-74.1032478 343.45216244 -73.87248547 342.64426266 -73.63473034 341.81188107 C-60.94158554 297.24238265 -50.93485966 251.96803631 -43.33401012 206.26006222 C-43.12611858 205.01567379 -43.12611858 205.01567379 -42.91402721 203.7461462 C-34.11789389 150.94603153 -28.78290663 97.71894222 -27.01687145 44.21611691 C-26.015725 15.09467675 -26.015725 15.09467675 -17.62697887 6.51396847 C-12.07280546 1.46802007 -7.57413176 0.01132307 0 0 Z " fill="#000000" transform="translate(601.3340101242065,-0.26006221771240234)"/>
<path d="M0 0 C1.31798584 0.26538574 1.31798584 0.26538574 2.66259766 0.53613281 C35.37557329 7.30675404 62.55017268 20.4082582 88 42 C88.03738281 40.865625 88.07476563 39.73125 88.11328125 38.5625 C88.56266532 27.36886414 89.36488253 19.67180758 96.79296875 10.76171875 C103.20047797 5.64705209 110.30682679 5.56116972 118.13842773 5.59594727 C119.77172531 5.58565239 119.77172531 5.58565239 121.4380188 5.57514954 C125.02001158 5.55692081 128.60156475 5.56071354 132.18359375 5.56640625 C134.68408856 5.56184268 137.18458211 5.55653658 139.68507385 5.55052185 C145.58860627 5.54045768 151.49198324 5.54654116 157.39550883 5.55777544 C162.09101031 5.56495649 166.78623305 5.55416732 171.48168945 5.53344727 C177.9748865 5.50514082 184.46779301 5.49650028 190.96104622 5.50367546 C193.42930911 5.50382849 195.89758064 5.49779966 198.3658123 5.48538399 C201.82160071 5.47044861 205.27641896 5.48117098 208.73217773 5.49829102 C209.74388535 5.48862305 210.75559296 5.47895508 211.79795837 5.46899414 C219.27310106 5.54624382 225.40760489 7.10172869 231.3046875 11.859375 C231.82289063 12.48328125 232.34109375 13.1071875 232.875 13.75 C233.67550781 14.67039062 233.67550781 14.67039062 234.4921875 15.609375 C238.63966456 22.18516765 239.43796431 28.13806816 239.37473011 35.71995354 C239.37879084 36.67363754 239.38285156 37.62732154 239.38703534 38.60990506 C239.39698279 41.80631963 239.38555212 45.00229522 239.3742218 48.19869995 C239.37696238 50.51346365 239.38101445 52.8282261 239.38626546 55.14298546 C239.3968627 61.50525108 239.38871621 67.86737642 239.37751496 74.22963595 C239.36812012 80.38689221 239.37574316 86.54413981 239.38149153 92.70139672 C239.3934195 106.0769177 239.38833056 119.45239155 239.37621326 132.82790993 C239.36567175 144.54436647 239.36113841 156.26080697 239.36250877 167.97726822 C239.36263482 169.14363285 239.36263482 169.14363285 239.36276341 170.33356041 C239.36311568 173.49029597 239.3634997 176.64703152 239.36392899 179.80376707 C239.36789543 209.42910746 239.35517344 239.05441953 239.33440243 268.67975182 C239.3160652 294.95691854 239.31021196 321.23405805 239.31567383 347.51123047 C239.31602026 349.19594081 239.31636636 350.88065115 239.31671212 352.56536148 C239.31696861 353.81473105 239.31696861 353.81473105 239.31723029 355.08934041 C239.31808393 359.28278554 239.31890771 363.47623068 239.31969929 367.66967583 C239.31985637 368.4971069 239.32001345 369.32453798 239.32017529 370.17704272 C239.32417543 392.16618824 239.31867545 414.15533117 239.310188 436.1444751 C239.30928102 438.51417985 239.30837537 440.8838846 239.30747276 443.25358935 C239.30687164 444.825431 239.30626303 446.39727264 239.30564686 447.96911428 C239.30143982 458.88868235 239.3008413 469.80824526 239.30275235 480.72781388 C239.30520656 494.82016492 239.30103576 508.91248844 239.28554235 523.00483201 C239.27824969 529.7927639 239.2741863 536.58065577 239.27878571 543.36859131 C239.28290537 549.60065316 239.27757568 555.83263756 239.26515963 562.06468774 C239.2622663 564.30177211 239.26261289 566.53886393 239.26680271 568.77594624 C239.30115224 588.97368824 238.40023291 609.26330242 235.3125 629.25 C235.14516357 630.3423999 234.97782715 631.4347998 234.80541992 632.56030273 C226.70404059 682.90280805 208.03817305 730.79211696 173.18359375 768.62890625 C171.67708266 770.26477786 170.19119007 771.91979585 168.72265625 773.58984375 C164.10442057 778.83963303 159.39219756 783.55785629 154 788 C152.84625907 788.97775239 151.69262311 789.95562864 150.5390625 790.93359375 C98.21533613 834.83839371 28.9679012 853.23327779 -38 858 C-39.14952148 858.08677002 -39.14952148 858.08677002 -40.32226562 858.17529297 C-63.8736394 859.89321785 -87.69187421 859.50429763 -111.25 858.125 C-111.93894348 858.08579437 -112.62788696 858.04658875 -113.33770752 858.00619507 C-145.66966372 856.11674084 -145.66966372 856.11674084 -152.875 848.0625 C-160.65589335 836.84885959 -157.955269 821.40438422 -157.51171875 808.44140625 C-157.44745939 806.44564451 -157.38356718 804.44987093 -157.32002258 802.4540863 C-157.18569609 798.28587901 -157.04637135 794.11787625 -156.90356445 789.94995117 C-156.72200914 784.63706945 -156.5538263 779.32386268 -156.38952923 774.01042271 C-156.26056344 769.89300467 -156.12398939 765.77586467 -155.98523903 761.65876579 C-155.92024019 759.70104782 -155.85764608 757.74324833 -155.79761314 755.78537178 C-154.85892733 725.55056273 -154.85892733 725.55056273 -146.625 717.75 C-141.07415178 714.04943452 -135.88792592 713.70711901 -129.4375 713.8125 C-128.3537207 713.8134668 -128.3537207 713.8134668 -127.24804688 713.81445312 C-122.80140711 713.84916237 -118.40788996 714.1165539 -113.9777832 714.49780273 C-107.43062806 715.01030723 -100.92458356 715.17727628 -94.359375 715.203125 C-92.61143646 715.21167511 -92.61143646 715.21167511 -90.82818604 715.22039795 C-88.37439867 715.22977809 -85.9205991 715.23635382 -83.46679688 715.24023438 C-79.80054391 715.2498672 -76.13487032 715.28092953 -72.46875 715.3125 C-30.02987077 715.50352848 17.92435391 708.61371381 49.78515625 677.94140625 C52 676 52 676 54 676 C54.26683594 675.40832031 54.53367187 674.81664062 54.80859375 674.20703125 C56.02053689 671.96195625 57.29081898 670.50944147 59.0625 668.6875 C76.79189661 648.77886506 83.83484561 620.81303202 87 595 C87.19722656 593.39511719 87.19722656 593.39511719 87.3984375 591.7578125 C88.05397047 585.50367364 88.1093887 579.28377296 88 573 C86.9790625 573.90878906 86.9790625 573.90878906 85.9375 574.8359375 C63.74805075 594.01564763 37.42698469 605.32184555 8.875 611.25 C8.14917725 611.40130371 7.42335449 611.55260742 6.67553711 611.70849609 C-8.14496154 614.56014112 -23.0068532 615.38215723 -38.0625 615.3125 C-39.33317322 615.30926727 -39.33317322 615.30926727 -40.6295166 615.30596924 C-99.98418737 615.0650976 -157.35176701 595.48774974 -202 556 C-202.55606934 555.51241211 -203.11213867 555.02482422 -203.68505859 554.52246094 C-210.34409923 548.65639071 -216.4202855 542.69784251 -221.90234375 535.68359375 C-223.26974373 533.93423847 -224.67756137 532.21552068 -226.12890625 530.53515625 C-237.31332273 517.55002871 -245.82845718 502.50434202 -253 487 C-253.29712891 486.3709375 -253.59425781 485.741875 -253.90039062 485.09375 C-269.74352843 451.40550927 -275.58501729 414.56388532 -278.6875 377.75 C-278.74843842 377.03256622 -278.80937683 376.31513245 -278.87216187 375.57595825 C-280.76702273 352.86207554 -281.2065899 330.16055794 -281.1875 307.375 C-281.18723312 306.70926468 -281.18696625 306.04352936 -281.18669128 305.35762024 C-281.15516282 242.51669142 -277.27093568 177.99934735 -248 121 C-247.58427734 120.18225098 -247.16855469 119.36450195 -246.74023438 118.52197266 C-240.45703008 106.29764963 -233.26614659 94.97402219 -225 84 C-223.93652344 82.58654297 -223.93652344 82.58654297 -222.8515625 81.14453125 C-217.61701348 74.42507955 -211.85723606 68.17511621 -206 62 C-205.2881958 61.24517334 -205.2881958 61.24517334 -204.56201172 60.47509766 C-175.43032729 29.78366868 -136.08645238 9.89403998 -95 1 C-94.03578125 0.78827148 -93.0715625 0.57654297 -92.078125 0.35839844 C-63.02196288 -5.70457719 -29.08662336 -5.99951497 0 0 Z M-95.45556641 167.23486328 C-118.68009647 193.77823229 -127.2598373 231.76592916 -130 266 C-130.08757568 267.02625488 -130.17515137 268.05250977 -130.26538086 269.10986328 C-131.19338188 281.54557371 -131.18610507 293.98408277 -131.18530273 306.44921875 C-131.18747146 310.20063948 -131.20563569 313.95175669 -131.22460938 317.703125 C-131.33934621 367.05392871 -127.92910101 419.58444386 -91.96875 457.08203125 C-72.25495179 476.88080273 -44.73886415 486.14019098 -17.1875 486.4375 C10.36454156 486.31546296 35.53208259 477.01272738 55.3984375 457.6640625 C90.91125881 420.2119745 88.36332515 363.13131053 88.26074219 315.32080078 C88.24933394 309.94792323 88.25613545 304.57524341 88.2676115 299.20237255 C88.74740523 260.84936035 88.74740523 260.84936035 83.6875 222.9375 C83.46876221 221.90496094 83.25002441 220.87242187 83.0246582 219.80859375 C78.86404358 200.71362525 72.6324648 182.24525163 60 167 C58.93458984 165.70835937 58.93458984 165.70835937 57.84765625 164.390625 C40.99354354 144.84103908 17.51622112 134.34967836 -8 132 C-42.50836139 130.05501753 -71.8730984 141.63813335 -95.45556641 167.23486328 Z " fill="#000000" transform="translate(3154,389)"/>
<path d="M0 0 C0.7542627 0.01401855 1.50852539 0.02803711 2.28564453 0.04248047 C66.64055123 1.27738174 132.02615326 20.77453911 180 65 C180.5784668 65.53318848 181.15693359 66.06637695 181.75292969 66.61572266 C215.45946982 98.10056861 236.85368656 142.92994269 240 189 C240.14761003 194.65999297 240.14385498 200.31803374 240.14044189 205.97964478 C240.14302897 207.70261621 240.14604308 209.42558705 240.1494453 211.14855707 C240.15747752 215.86497797 240.15930274 220.58138362 240.16004276 225.29781055 C240.16189978 230.39122738 240.16945005 235.48463642 240.17617798 240.57804871 C240.18973202 251.70367084 240.19578062 262.82928937 240.20018864 273.95491838 C240.20295439 280.9023334 240.20719219 287.84974703 240.21169281 294.7971611 C240.22387855 314.03709386 240.23418125 333.27702552 240.2375679 352.51696205 C240.23778747 353.74709224 240.23800703 354.97722243 240.23823325 356.24462929 C240.23845153 357.47765792 240.23866981 358.71068656 240.2388947 359.9810797 C240.23933816 362.47957397 240.23978473 364.97806823 240.24023438 367.4765625 C240.2404558 368.71589536 240.24067723 369.95522822 240.24090537 371.23211662 C240.24485723 391.33375708 240.26232615 411.43536138 240.2855939 431.53698786 C240.30929594 452.18041105 240.32176912 472.82381607 240.32293582 493.46725309 C240.32385289 505.05589291 240.32961395 516.64448551 240.34775543 528.23311234 C240.36314046 538.09540022 240.36828608 547.95762629 240.36001733 557.81992389 C240.35610602 562.85179318 240.35706415 567.8835379 240.37107468 572.91539192 C240.38378361 577.52180395 240.38264259 582.12799742 240.37048396 586.73440902 C240.36852183 588.40046154 240.37162917 590.06652939 240.38032833 591.73256035 C240.46852293 609.7651755 240.46852293 609.7651755 234.984375 616.4609375 C234.24703125 617.09257813 233.5096875 617.72421875 232.75 618.375 C232.02296875 619.02210938 231.2959375 619.66921875 230.546875 620.3359375 C224.19837632 624.48388296 217.47864139 624.29282851 210.14282227 624.2746582 C209.07200409 624.27976913 208.00118591 624.28488007 206.8979187 624.29014587 C203.37069047 624.30400569 199.84365841 624.30308788 196.31640625 624.30078125 C193.85692777 624.30466994 191.39744996 624.30900497 188.93797302 624.31376648 C183.7876467 624.32122078 178.63738894 624.32094294 173.48706055 624.31567383 C166.89532273 624.30987804 160.3038658 624.32681699 153.71217442 624.3500185 C148.63431667 624.36476719 143.55652641 624.36562601 138.47865105 624.36250877 C136.04863872 624.36302134 133.61862256 624.36824683 131.18863106 624.37832069 C127.78776027 624.39069043 124.38743467 624.38388983 120.98657227 624.37231445 C119.98839981 624.37995819 118.99022736 624.38760193 117.96180725 624.39547729 C108.85865849 624.32717524 102.43031187 622.11412441 95.6953125 615.828125 C89.11270071 608.72982472 89.77887945 599.21352835 89.4375 590.125 C89.39431641 589.05507813 89.35113281 587.98515625 89.30664062 586.8828125 C89.20107183 584.25532246 89.09896209 581.62774578 89 579 C88.23558594 579.67804687 87.47117187 580.35609375 86.68359375 581.0546875 C39.38370927 622.40744478 -24.80196363 636.21227576 -86.3359375 632.43359375 C-132.3193645 629.11265695 -178.76509744 615.90000919 -214 585 C-214.83789062 584.28328125 -215.67578125 583.5665625 -216.5390625 582.828125 C-250.99386844 552.74683932 -267.68998242 509.21462685 -270.82348633 464.29663086 C-273.23143129 419.32501155 -265.95371371 369.81963037 -238 333 C-237.5771875 332.44022461 -237.154375 331.88044922 -236.71875 331.30371094 C-229.59397204 321.91701838 -222.34909832 312.53411249 -213.2890625 304.92578125 C-211.59009293 303.49644337 -209.92279508 302.02928095 -208.2734375 300.54296875 C-199.25737785 292.49547979 -189.39497474 286.12665317 -179 280 C-178.3095459 279.59007812 -177.6190918 279.18015625 -176.90771484 278.7578125 C-130.91382994 251.84997898 -75.7704579 245.40491111 -23.47739315 245.69581819 C-19.43231287 245.71497249 -15.38722069 245.71636512 -11.34210205 245.71989441 C-3.73207904 245.72910396 3.87780985 245.75356205 11.48777461 245.78394288 C20.17264103 245.81783919 28.85751493 245.83406007 37.54243135 245.84902918 C55.36169606 245.88012594 73.18083713 245.93266259 91 246 C90.89615494 240.79627267 90.78310943 235.59285048 90.66201782 230.38949585 C90.62217513 228.62420924 90.58472355 226.85886681 90.54983521 225.09347534 C90.12431306 203.74556618 88.18908301 181.6259531 73.48046875 164.796875 C72 163 72 163 71.05078125 160.890625 C69.71495265 158.48712671 68.47586794 158.11002935 66 157 C64.68944969 155.96088166 63.39923319 154.89584612 62.125 153.8125 C38.51711692 135.23580512 4.79718039 133.53738512 -23.9375 136.75 C-46.73097682 139.73716377 -69.44737749 147.04277374 -84.8828125 165.05078125 C-87.454284 168.63281259 -89.53401228 172.37410882 -91.625 176.25 C-96.35201314 185.00380278 -100.38051232 189.59661576 -110.08203125 192.65234375 C-117.88901712 193.58249334 -125.74435537 191.53815616 -133.27978516 189.6550293 C-134.74036598 189.29868912 -134.74036598 189.29868912 -136.23045349 188.93515015 C-139.41844065 188.15524227 -142.60381018 187.36521598 -145.7890625 186.57421875 C-148.01996862 186.02439383 -150.25095756 185.47490483 -152.48202515 184.92573547 C-157.14478495 183.77620582 -161.80620718 182.62143009 -166.46679688 181.46313477 C-172.42669502 179.98255131 -178.39016345 178.51695626 -184.35477638 177.05549908 C-188.95819618 175.92547292 -193.55938741 174.7865785 -198.15998459 173.64512062 C-200.35759438 173.10117984 -202.5559359 172.56018622 -204.75502396 172.02225304 C-207.83203286 171.26834955 -210.90577365 170.50229525 -213.97900391 169.7331543 C-214.87895584 169.51533798 -215.77890778 169.29752167 -216.70613098 169.07310486 C-226.29802288 166.64324641 -233.27268962 163.28793328 -239 155 C-242.70678809 148.33566822 -242.99968771 141.96172538 -241.15625 134.65625 C-233.30857916 109.41644378 -218.05167456 87.95562792 -200 69 C-199.34644531 68.29359375 -198.69289063 67.5871875 -198.01953125 66.859375 C-149.58581855 16.05044824 -67.39594784 -2.12109074 0 0 Z M-102.4765625 391.59765625 C-117.51515266 409.07561639 -120.49660072 428.68817758 -119 451 C-117.16154783 466.6104287 -108.44144415 480.44004453 -96.44189453 490.27734375 C-72.96196074 508.28461916 -40.81107067 510.87483847 -12.41162109 507.22631836 C15.84692517 502.8846519 41.53193705 491.97257155 63 473 C63.70640625 472.37738281 64.4128125 471.75476563 65.140625 471.11328125 C79.25746753 457.85789959 90.35641268 437.4585554 91.12025452 417.92471313 C91.11803391 416.83661346 91.11581329 415.74851379 91.11352539 414.62744141 C91.11344986 413.38660797 91.11337433 412.14577454 91.11329651 410.86734009 C91.10819113 409.52874714 91.10297515 408.19015461 91.09765625 406.8515625 C91.09578906 405.47008312 91.09436658 404.08860308 91.09336853 402.7071228 C91.08956702 399.08711897 91.07975716 395.46715583 91.06866455 391.84716797 C91.05839935 388.14681549 91.05386 384.44645639 91.04882812 380.74609375 C91.03813258 373.49737736 91.02108485 366.2486944 91 359 C76.92466176 358.92934061 62.84935175 358.87693785 48.77387142 358.84456348 C42.23565897 358.82901305 35.69756698 358.8079726 29.15942383 358.77368164 C22.8310639 358.74070467 16.50281868 358.72306751 10.17437935 358.71536827 C7.77908082 358.70989269 5.38378743 358.69920416 2.98853874 358.68280983 C-34.09770059 358.43943585 -75.447151 363.24661737 -102.4765625 391.59765625 Z " fill="#000000" transform="translate(2146,386)"/>
<path d="M0 0 C0.81355957 0.01788574 1.62711914 0.03577148 2.46533203 0.05419922 C64.17040052 1.60389571 130.95226348 17.84359524 175 64 C175.78375 64.78375 176.5675 65.5675 177.375 66.375 C178.24125 67.24125 179.1075 68.1075 180 69 C180.91652344 69.84691406 180.91652344 69.84691406 181.8515625 70.7109375 C238.30662136 124.29192064 254.89254452 216.91568052 257 291 C257.16475908 300.00653817 257.18669311 309.01370227 257.18530273 318.02148438 C257.18519999 321.46597003 257.19901552 324.91025476 257.21607494 328.35469246 C257.22992778 331.69740182 257.22928356 335.04007489 257.23046875 338.3828125 C257.23765427 339.60275909 257.24483978 340.82270569 257.25224304 342.07962036 C257.22330581 352.95196996 256.84688584 362.15311416 248.8125 370.1875 C240.5740424 375.49672823 232.05947973 375.42448662 222.51646423 375.36076355 C221.0526405 375.36207333 219.58881746 375.36470293 218.12499815 375.36853105 C214.1204857 375.37521408 210.11621563 375.36327361 206.11173403 375.34819686 C201.78669875 375.33520912 197.4616765 375.3396279 193.1366272 375.34190369 C185.64914159 375.34347469 178.16173457 375.33408356 170.67426872 375.31719017 C159.84873952 375.2927813 149.02324822 375.28499297 138.19769449 375.2812262 C120.63283274 375.27466468 103.06801285 375.25471163 85.50317383 375.22631836 C68.44328012 375.19877005 51.3833978 375.17754024 34.32348633 375.16479492 C33.2714414 375.16400675 32.21939647 375.16321858 31.1354714 375.16240653 C25.85753002 375.15849134 20.57958857 375.15470023 15.30164707 375.15097082 C-28.46559761 375.11988423 -72.23279664 375.06705657 -116 375 C-115.79778084 376.31405067 -115.79778084 376.31405067 -115.59147644 377.65464783 C-115.41328873 378.8126741 -115.23510101 379.97070038 -115.05151367 381.16381836 C-114.8754509 382.30797714 -114.69938812 383.45213593 -114.51799011 384.63096619 C-114.19384727 386.73920756 -113.87047031 388.84756699 -113.54823303 390.95610046 C-109.89708043 414.70691618 -102.47946314 438.18564354 -87 457 C-86.18917969 457.98613281 -85.37835937 458.97226562 -84.54296875 459.98828125 C-63.75282593 484.3461009 -32.04294219 494.87577206 -1 498 C17.4609932 498.85906419 36.13732241 499.22898032 54 494 C54.75442383 493.79101074 55.50884766 493.58202148 56.28613281 493.36669922 C77.68324939 487.34283784 94.88582533 476.17762435 111 461 C111.64066406 460.42378906 112.28132813 459.84757812 112.94140625 459.25390625 C118.38008282 454.1558566 122.72178299 448.27390157 127.08129883 442.25390625 C131.50205676 436.26727761 137.37687472 428.63352685 145 427 C151.95490938 426.23798384 157.24345762 426.92107854 163 431 C165.53631289 433.12421515 167.96580741 435.33078884 170.3828125 437.58984375 C172.91218013 439.91912708 175.51038842 442.09321723 178.1875 444.25 C182.63852192 447.85470085 186.99198605 451.55370267 191.3125 455.3125 C191.94599365 455.86357422 192.5794873 456.41464844 193.23217773 456.98242188 C194.51831655 458.10162485 195.80436788 459.22092837 197.09033203 460.34033203 C200.13521936 462.9866046 203.18978568 465.62147339 206.25 468.25 C206.83040039 468.74862549 207.41080078 469.24725098 208.00878906 469.76098633 C211.4814233 472.73281668 215.00114008 475.63441951 218.5625 478.5 C222.77260459 481.93045559 226.85578708 485.47457956 230.875 489.125 C231.41068604 489.60388672 231.94637207 490.08277344 232.49829102 490.57617188 C237.48709606 495.16508996 242.45840698 500.35003704 243.2734375 507.34765625 C243.82283457 522.03346251 234.01516526 531.46670021 225 542 C224.24589844 542.886875 223.49179688 543.77375 222.71484375 544.6875 C212.10520956 556.78943341 200.69189473 568.14503506 187.734375 577.70996094 C185.98038797 579.01458755 184.25511043 580.35120384 182.53125 581.6953125 C121.9706686 628.31173476 39.29732504 642.08803961 -35.13525391 632.54345703 C-63.63704134 628.53556197 -90.88682978 621.20775599 -117 609 C-117.7130127 608.67032227 -118.42602539 608.34064453 -119.16064453 608.00097656 C-135.24897899 600.49588092 -150.26533114 591.24383492 -164 580 C-165.01964844 579.18402344 -166.03929688 578.36804688 -167.08984375 577.52734375 C-180.28107857 566.80882525 -192.79846695 554.60802036 -203 541 C-203.47324707 540.38141113 -203.94649414 539.76282227 -204.43408203 539.12548828 C-266.27173993 458.01525396 -273.67094653 346.36307078 -263 232 C-260.4767786 213.28610792 -256.50088086 195.05970437 -251 177 C-250.6807959 175.94780273 -250.3615918 174.89560547 -250.03271484 173.81152344 C-230.70068568 111.41875836 -189.09480838 59.12393094 -131.359375 28.2421875 C-91.09731087 7.25829618 -45.11931212 -1.05981509 0 0 Z M-77 159 C-77.75667969 159.67546875 -78.51335938 160.3509375 -79.29296875 161.046875 C-93.79399886 174.72426657 -102.53057718 193.09311033 -108 212 C-108.35835937 213.22847656 -108.71671875 214.45695312 -109.0859375 215.72265625 C-112.61620253 228.76871085 -115 242.4716343 -115 256 C-42.4 256 30.2 256 105 256 C104.40334428 242.61424826 104.40334428 242.61424826 102.3125 229.625 C102.13807373 228.84447266 101.96364746 228.06394531 101.78393555 227.25976562 C94.94019952 197.72084104 82.38151232 169.08117624 56 152.0625 C16.67394694 127.76232621 -41.50495069 126.87667385 -77 159 Z " fill="#000000" transform="translate(3746,386)"/>
<path d="M0 0 C11.8038775 11.53072992 21.65726644 24.75395257 29.77246094 39.10644531 C30.12759766 39.72390625 30.48273438 40.34136719 30.84863281 40.97753906 C53.74051828 81.04825712 59.94256257 126.80320605 59.91290283 172.2505188 C59.91549641 173.88154986 59.91851226 175.51258029 59.92190623 177.14360988 C59.92986113 181.56412848 59.93175922 185.98463075 59.9325037 190.40515566 C59.9343743 195.19577233 59.94193061 199.98638091 59.94863892 204.7769928 C59.96213333 215.21622052 59.96823094 225.65544437 59.97264957 236.09467936 C59.97542313 242.61851869 59.97966205 249.14235657 59.98415375 255.66619492 C59.99632718 273.75184345 60.00663519 291.83749084 60.01002884 309.92314339 C60.01024841 311.07698326 60.01046797 312.23082312 60.01069419 313.41962784 C60.01091247 314.57606936 60.01113075 315.73251088 60.01135564 316.92399609 C60.01179909 319.26703906 60.01224566 321.61008203 60.01269531 323.953125 C60.01291674 325.11533128 60.01313817 326.27753756 60.01336631 327.47496222 C60.01732252 346.34671596 60.03481015 365.21843128 60.05805483 384.09017016 C60.0817617 403.49425959 60.09423013 422.8983297 60.09539676 442.30243385 C60.09631307 453.18618298 60.10205597 464.06988182 60.12021637 474.9536171 C60.13560724 484.20923378 60.1407432 493.46478457 60.13247827 502.72041161 C60.12857028 507.44057942 60.12950928 512.16061443 60.14353561 516.88076591 C60.15626289 521.20314437 60.15508744 525.52529007 60.1429449 529.84766816 C60.14098608 531.40916342 60.1440749 532.97067512 60.15278926 534.5321473 C60.2074263 544.98562165 59.92151341 554.82859508 52.77246094 563.10644531 C46.11849016 568.09248721 40.17602033 568.8273602 32.0456543 568.73754883 C30.90626907 568.74470413 29.76688385 568.75185944 28.5929718 568.75923157 C24.84900087 568.7760584 21.10623736 568.75675047 17.36230469 568.73535156 C14.74874269 568.73618075 12.13518074 568.73864199 9.5216217 568.74266052 C4.05358127 568.74716866 -1.41411565 568.7313903 -6.88208008 568.70336914 C-13.18694547 568.67130656 -19.49119223 568.67134312 -25.79610163 568.68858391 C-31.88465362 568.70449374 -37.97294436 568.69758816 -44.06149101 568.6806469 C-46.64221123 568.67547356 -49.22294925 568.67593654 -51.80366707 568.68219185 C-55.41287367 568.68765709 -59.02103907 568.66722508 -62.63012695 568.63989258 C-63.69061249 568.64641846 -64.75109802 568.65294434 -65.84371948 568.65966797 C-73.83978382 568.55698397 -79.32050012 567.01348426 -85.04003906 561.29394531 C-90.71071668 553.03095793 -90.65784314 546.1299994 -90.61280823 536.29446411 C-90.61681724 534.77023366 -90.62214469 533.24600621 -90.62867397 531.72178447 C-90.64281521 527.5403749 -90.63839689 523.35915984 -90.63096082 519.17774057 C-90.62621973 514.6648658 -90.63878591 510.15203573 -90.64932251 505.63917542 C-90.66529984 497.81885709 -90.67057315 489.99859057 -90.66879463 482.17825699 C-90.66640936 470.85288567 -90.68241225 459.52759696 -90.70324718 448.20224725 C-90.73678095 429.80280628 -90.75843567 411.40337271 -90.77124023 393.00390625 C-90.77200972 391.90280596 -90.77277921 390.80170567 -90.77357202 389.6672387 C-90.77667384 385.2066446 -90.77975667 380.74605049 -90.78281206 376.28545637 C-90.7913306 364.02786751 -90.8022348 351.77028125 -90.81420898 339.51269531 C-90.815277 338.41597087 -90.81634502 337.31924643 -90.8174454 336.18928792 C-90.83556936 317.87034168 -90.8615823 299.55141293 -90.89234012 281.23248374 C-90.91084745 269.9440286 -90.92180699 258.65561279 -90.92286205 247.36714225 C-90.92396977 239.62154334 -90.93196204 231.87597133 -90.94524569 224.1303838 C-90.9526275 219.66857407 -90.95679047 215.20682321 -90.95212746 210.74500847 C-90.94788778 206.64875171 -90.95298219 202.55260962 -90.96503531 198.45636939 C-90.9677701 196.98589795 -90.96724461 195.51541542 -90.96285421 194.044948 C-90.9250746 180.26237314 -91.93273069 166.426144 -95.41503906 153.04394531 C-95.62862061 152.21378906 -95.84220215 151.38363281 -96.06225586 150.52832031 C-102.42741887 126.95397677 -116.82772447 105.39230858 -137.85253906 92.41894531 C-163.0738333 78.51820642 -192.64933948 76.14703038 -220.22753906 84.10644531 C-242.54938703 91.05906843 -261.38230335 106.22980884 -272.45996094 126.80444336 C-275.63305764 133.00827374 -278.2506049 139.40330184 -280.54003906 145.98144531 C-280.77045898 146.62686279 -281.00087891 147.27228027 -281.23828125 147.93725586 C-287.46428982 167.00155008 -286.66063425 186.88749557 -286.61630177 206.66811419 C-286.60944282 211.22428312 -286.62006938 215.7804169 -286.62858582 220.33657837 C-286.64109422 228.21347098 -286.64314531 236.0903087 -286.63822937 243.96720886 C-286.63139384 255.36646821 -286.64398622 266.76564547 -286.66173655 278.16489011 C-286.69032081 296.67828251 -286.70788257 315.19166601 -286.71630859 333.70507812 C-286.71681577 334.81076592 -286.71732295 335.91645371 -286.7178455 337.05564719 C-286.72187882 346.03027286 -286.7253741 355.00489872 -286.72884274 363.97952461 C-286.73190137 371.83661028 -286.73517338 379.69369581 -286.73876953 387.55078125 C-286.73927215 388.65753454 -286.73977476 389.76428783 -286.74029261 390.9045791 C-286.74903835 409.36283689 -286.76947333 427.82106401 -286.79825163 446.27930117 C-286.81541415 457.65067209 -286.8220243 469.0219562 -286.81494558 480.39333838 C-286.81076471 488.17897177 -286.81712097 495.96455037 -286.83174431 503.75017101 C-286.83979563 508.23957129 -286.84292426 512.72883563 -286.83292198 517.21823502 C-286.82383518 521.33100468 -286.82858964 525.44352202 -286.84413642 529.55627018 C-286.84731527 531.04042048 -286.84547131 532.52459227 -286.83797103 534.00872701 C-286.7498251 552.795593 -286.7498251 552.795593 -292.41503906 560.48144531 C-298.31804955 565.99092177 -304.83664059 568.22291895 -312.87507629 568.24015808 C-313.77911697 568.24442307 -314.68315765 568.24868805 -315.61459351 568.25308228 C-317.08359604 568.2524025 -317.08359604 568.2524025 -318.58227539 568.25170898 C-320.14417351 568.2567469 -320.14417351 568.2567469 -321.73762512 568.2618866 C-325.17828567 568.27138174 -328.61889748 568.27333903 -332.05957031 568.27441406 C-334.454646 568.27762778 -336.84972148 568.28099194 -339.24479675 568.28450012 C-344.26582291 568.29048789 -349.28683186 568.29234039 -354.30786133 568.29174805 C-360.73368469 568.29164648 -367.15939743 568.30529504 -373.58519459 568.32252026 C-378.53265385 568.33365305 -383.48008649 568.33566685 -388.42755699 568.33513832 C-390.79616362 568.33631664 -393.16477098 568.34073011 -395.53336525 568.34847069 C-398.85052808 568.35829567 -402.16745226 568.35538243 -405.48461914 568.34936523 C-406.94451263 568.35779449 -406.94451263 568.35779449 -408.43389893 568.36639404 C-416.68162553 568.32848173 -423.57258065 567.43041204 -430.22753906 562.10644531 C-436.75383294 555.28350172 -437.52540925 549.35236865 -437.48760128 540.32239914 C-437.49140695 539.33752693 -437.49521262 538.35265472 -437.49913362 537.33793789 C-437.50947508 534.0236399 -437.50553847 530.70951236 -437.50169373 527.39520264 C-437.50614473 525.00064051 -437.51145832 522.60607987 -437.51756245 520.21152139 C-437.52879953 514.99790052 -437.53377526 509.78431197 -437.53324127 504.57068062 C-437.53244809 496.81766988 -437.5429973 489.06470332 -437.55565684 481.31170439 C-437.58039845 465.85207049 -437.58917971 450.39244733 -437.59419333 434.93279636 C-437.5944545 434.1321498 -437.59471568 433.33150324 -437.59498477 432.50659466 C-437.59537518 431.30322347 -437.59537518 431.30322347 -437.59577348 430.07554175 C-437.59885536 421.18663319 -437.60535995 412.29772761 -437.61198616 403.40882111 C-437.63163382 376.56348186 -437.64803847 349.71814582 -437.65086269 322.87279892 C-437.65095675 322.01410539 -437.65105082 321.15541186 -437.65114773 320.27069731 C-437.65152621 316.79075863 -437.65189021 313.31081995 -437.65225071 309.83088126 C-437.65252243 307.21163569 -437.6527991 304.59239011 -437.65307617 301.97314453 C-437.65316419 301.10764583 -437.65325222 300.24214714 -437.65334291 299.35042121 C-437.65624856 272.15399233 -437.67834634 244.95763452 -437.71459961 217.76123047 C-437.75532209 187.21129878 -437.77902123 156.66141552 -437.77932221 126.1114552 C-437.77941903 122.85408099 -437.77958575 119.59670679 -437.77980232 116.33933258 C-437.77984644 115.53727538 -437.77989055 114.73521819 -437.779936 113.90885623 C-437.78105604 100.9994667 -437.79846743 88.09014834 -437.82162164 75.18078173 C-437.84445966 62.20707039 -437.84869231 49.23345526 -437.83407234 36.2597312 C-437.82591863 28.55209611 -437.83161956 20.84476398 -437.85725319 13.13716561 C-437.87484905 7.382048 -437.86631443 1.62720558 -437.8476081 -4.12789759 C-437.84410339 -6.4562824 -437.84906442 -8.78469842 -437.86331253 -11.11304227 C-437.88143278 -14.27793993 -437.8687094 -17.44129304 -437.84836483 -20.60614395 C-437.8609282 -21.51028343 -437.87349158 -22.41442291 -437.88643566 -23.34596056 C-437.78216752 -30.92274648 -435.42777716 -37.77966365 -429.91113281 -43.14746094 C-429.16992188 -43.57929688 -428.42871094 -44.01113281 -427.66503906 -44.45605469 C-426.92125 -44.91109375 -426.17746094 -45.36613281 -425.41113281 -45.83496094 C-421.77516282 -47.59765838 -418.54181841 -48.01969952 -414.52389526 -48.04072571 C-413.5820488 -48.04788101 -412.64020233 -48.05503632 -411.66981506 -48.06240845 C-410.64327316 -48.06509735 -409.61673126 -48.06778625 -408.55908203 -48.07055664 C-407.47240738 -48.07712784 -406.38573273 -48.08369904 -405.26612854 -48.09046936 C-401.66732717 -48.11019047 -398.06856753 -48.12186326 -394.46972656 -48.13183594 C-393.23919682 -48.13591146 -392.00866707 -48.13998699 -390.74084854 -48.14418602 C-384.8974489 -48.16289346 -379.05406562 -48.17745907 -373.21064174 -48.18579799 C-367.15398278 -48.19458586 -361.09757499 -48.21384824 -355.04101562 -48.25024414 C-348.5330129 -48.28872661 -342.02523657 -48.30749029 -335.51712418 -48.31200218 C-333.0412993 -48.31686365 -330.56547783 -48.32846499 -328.08971786 -48.34704018 C-324.61700141 -48.37147288 -321.14513997 -48.37045835 -317.67236328 -48.36352539 C-316.65796677 -48.37633545 -315.64357025 -48.38914551 -314.59843445 -48.40234375 C-306.41822563 -48.34309894 -298.71933573 -46.76813367 -292.79003906 -40.76855469 C-287.21968942 -33.37911641 -286.74862231 -24.19591765 -286.54003906 -15.26855469 C-286.50587891 -14.264375 -286.47171875 -13.26019531 -286.43652344 -12.22558594 C-286.35506016 -9.7816875 -286.28558984 -7.33810188 -286.22753906 -4.89355469 C-285.6384375 -5.6528125 -285.04933594 -6.41207031 -284.44238281 -7.19433594 C-281.38819557 -10.91645831 -277.93624068 -13.8386306 -274.22753906 -16.89355469 C-273.29941406 -17.65925781 -272.37128906 -18.42496094 -271.41503906 -19.21386719 C-200.31496415 -75.91617693 -82.36826794 -68.13957353 0 0 Z " fill="#000000" transform="translate(4527.2275390625,442.8935546875)"/>
<path d="M0 0 C5.90446082 4.98713759 8.59387955 11.39735099 9.26646996 19.0199604 C9.36815821 22.58020116 9.3711113 26.12812145 9.34057617 29.68969727 C9.33972842 31.05061321 9.34020793 32.41153053 9.34190369 33.77244568 C9.34275929 37.44133959 9.3252048 41.10993519 9.30418181 44.77876019 C9.28534181 48.6224242 9.28365883 52.46609614 9.28010559 56.30979919 C9.27080652 63.57692143 9.24622194 70.84390717 9.21605712 78.11096948 C9.18244625 86.38911505 9.16601034 94.66726736 9.15097082 102.94546425 C9.11967029 119.96372159 9.06695174 136.98184633 9 154 C9.58953681 153.99631283 10.17907362 153.99262566 10.78647518 153.98882675 C25.16000626 153.90032209 39.53351295 153.8342159 53.90725613 153.79275131 C60.85843659 153.77216408 67.80943468 153.74411759 74.76049805 153.69824219 C81.47135481 153.65397337 88.18198317 153.6308476 94.89299202 153.62049103 C97.45059245 153.61311246 100.00818278 153.59870389 102.56570244 153.57707977 C106.15397222 153.54795301 109.7414646 153.54404805 113.32983398 153.54589844 C114.38216217 153.53151733 115.43449036 153.51713623 116.51870728 153.50231934 C123.81492298 153.542909 130.36849306 154.62311946 135.88214779 159.75017929 C141.46188059 165.80334117 142.2988783 171.26380956 142.29052734 179.25317383 C142.29724457 180.17739639 142.30396179 181.10161896 142.31088257 182.05384827 C142.32985835 185.10496417 142.33378666 188.15586003 142.3359375 191.20703125 C142.34236605 193.33306468 142.34909446 195.45909721 142.35610962 197.58512878 C142.36808158 202.04122976 142.37179055 206.49725322 142.37060547 210.95336914 C142.37040237 216.65294275 142.39769627 222.35201726 142.43214989 228.05147266 C142.45442917 232.44307216 142.45844268 236.83455179 142.45738602 241.22620201 C142.45974073 243.32687791 142.46855693 245.42755718 142.48405075 247.52817726 C142.50372975 250.47201719 142.49786477 253.41478397 142.48583984 256.35864258 C142.49707886 257.21969604 142.50831787 258.08074951 142.51989746 258.96789551 C142.45053916 265.67745812 140.67237395 270.90315502 136.25390625 276.0234375 C135.69574219 276.46945312 135.13757812 276.91546875 134.5625 277.375 C134.00691406 277.83648438 133.45132813 278.29796875 132.87890625 278.7734375 C129.00292579 281.30370333 125.52159345 282.25031223 120.91899109 282.24050903 C119.91924759 282.24325836 118.91950409 282.24600769 117.88946533 282.24884033 C116.80405457 282.24164978 115.7186438 282.23445923 114.6003418 282.22705078 C112.87286461 282.22748886 112.87286461 282.22748886 111.11048889 282.22793579 C107.30665535 282.22654327 103.50301805 282.2109854 99.69921875 282.1953125 C97.06077685 282.1915821 94.42233356 282.18873526 91.78388977 282.18673706 C85.55081227 282.18052692 79.31780513 282.16412243 73.08475858 282.14403808 C65.98684322 282.12166456 58.88892446 282.110682 51.7909826 282.10064721 C37.19395215 282.07975577 22.59697706 282.04458886 8 282 C8.05898793 318.74831276 8.13361926 355.49656241 8.22898628 392.24479939 C8.24025332 396.59150335 8.25139195 400.93820762 8.26245117 405.28491211 C8.2657567 406.58283961 8.2657567 406.58283961 8.269129 407.90698787 C8.30442086 421.88447282 8.32933066 435.86195773 8.35034702 449.8394706 C8.3721739 464.20092538 8.40528915 478.56232276 8.44870156 492.92372864 C8.47510014 501.77261724 8.49288213 510.62143444 8.49934604 519.47036042 C8.50463627 525.5532472 8.52097361 531.63604443 8.54566566 537.71888307 C8.55955745 541.21891594 8.56889842 544.71878899 8.56500816 548.21885109 C8.41478782 585.75476275 8.41478782 585.75476275 25.8046875 617.95703125 C39.65027716 631.14193924 58.35351424 633.08106287 76.53515625 633.2109375 C78.74805449 633.23898851 80.96094504 633.26765283 83.17382812 633.296875 C86.62540612 633.33817299 90.0768373 633.37510907 93.52856445 633.40136719 C96.88522063 633.42904701 100.2412455 633.47489097 103.59765625 633.5234375 C104.62182144 633.52669037 105.64598663 633.52994324 106.70118713 633.53329468 C114.95768308 633.67410506 121.85179876 635.02258212 128 641 C133.43464225 647.98739718 134.29959825 654.82557347 134.2746582 663.37255859 C134.2823246 664.74229073 134.2823246 664.74229073 134.29014587 666.13969421 C134.30398646 669.14267629 134.3030892 672.14542742 134.30078125 675.1484375 C134.30467134 677.24679651 134.30900665 679.34515474 134.31376648 681.44351196 C134.3212169 685.83639074 134.32094603 690.22918913 134.31567383 694.62207031 C134.30988218 700.23621416 134.32680876 705.85002777 134.3500185 711.46411705 C134.36478978 715.7965587 134.36562289 720.12892145 134.36250877 724.46138382 C134.36302032 726.53052041 134.36822665 728.59966162 134.37832069 730.66877365 C134.390733 733.56894803 134.38386458 736.46848723 134.37231445 739.36865234 C134.37995819 740.21361771 134.38760193 741.05858307 134.39547729 741.92915344 C134.32126392 750.41030951 132.25985928 757.98712227 126.20629883 764.13378906 C118.55355835 770.60690495 108.3410025 770.64941681 98.8125 770.75 C97.3718923 770.77619211 95.93130004 770.80324477 94.49072266 770.83105469 C90.30241022 770.90316956 86.1142602 770.94183576 81.92547607 770.97460938 C78.76938028 771.00200158 75.61349775 771.03954575 72.45751953 771.078125 C36.40441793 771.49702226 1.26316471 771.4948043 -34 763 C-35.18287598 762.71817871 -35.18287598 762.71817871 -36.38964844 762.43066406 C-58.90577611 756.89294042 -79.35605266 746.16925365 -96 730 C-96.67160156 729.39027344 -97.34320313 728.78054688 -98.03515625 728.15234375 C-124.9484841 702.9511958 -134.6095743 661.66453817 -136.16612029 626.21689796 C-136.41000798 616.74332715 -136.38509681 607.26943887 -136.34819686 597.79346466 C-136.33503925 593.54026938 -136.33963964 589.28708446 -136.34190369 585.03387451 C-136.34346418 577.6939817 -136.33418461 570.35416992 -136.31719017 563.01429749 C-136.29263638 552.40255375 -136.28497831 541.79084853 -136.2812262 531.17907947 C-136.27468715 513.9553017 -136.25479576 496.73156696 -136.22631836 479.5078125 C-136.19871141 462.79297091 -136.17751046 446.07814108 -136.16479492 429.36328125 C-136.16400675 428.33011215 -136.16321858 427.29694306 -136.16240653 426.2324658 C-136.15849094 421.04850431 -136.15469993 415.86454273 -136.15097082 410.68058109 C-136.11995437 367.78702429 -136.06718874 324.89351438 -136 282 C-137.15059402 282.0199855 -137.15059402 282.0199855 -138.32443237 282.04037476 C-145.59101046 282.16112936 -152.85709488 282.25221373 -160.12441826 282.31087303 C-163.85975185 282.34204589 -167.59424916 282.38425427 -171.32910156 282.45263672 C-174.94073701 282.51834129 -178.55157367 282.55381137 -182.16376114 282.56926346 C-183.53442062 282.58025949 -184.90504161 282.60173084 -186.27535629 282.63438034 C-195.26865107 282.83992705 -202.00789039 282.02200442 -209 276 C-214.3912439 269.32199629 -215.14998909 263.61842815 -215.19287109 255.16748047 C-215.20104858 254.27587723 -215.20922607 253.38427399 -215.21765137 252.46565247 C-215.2424533 249.51617088 -215.25901016 246.56673734 -215.2734375 243.6171875 C-215.27876118 242.607309 -215.28408485 241.5974305 -215.28956985 240.55694962 C-215.31628178 235.2091981 -215.33566097 229.86146974 -215.35009766 224.51367188 C-215.36342279 220.09842142 -215.39125232 215.68363465 -215.43212891 211.26855469 C-215.48157198 205.9276179 -215.50623325 200.58710084 -215.51332474 195.24594498 C-215.52001745 193.21667015 -215.53518757 191.18740395 -215.55921555 189.15826035 C-215.79702498 167.85625082 -215.79702498 167.85625082 -208.66317749 159.41891479 C-201.1752096 152.23171396 -190.88707107 152.5866525 -181.21484375 152.70703125 C-179.26959557 152.71339851 -179.26959557 152.71339851 -177.28504944 152.71989441 C-173.86713744 152.73125102 -170.44961883 152.76063645 -167.03186035 152.79400635 C-163.53236204 152.82490767 -160.03279906 152.83844223 -156.53320312 152.85351562 C-149.68864232 152.88551709 -142.84434014 152.93659941 -136 153 C-136.00368717 152.4095414 -136.00737434 151.81908279 -136.01117325 151.21073151 C-136.09964233 136.82086066 -136.16576689 122.43101415 -136.20724869 108.0409317 C-136.22784399 101.08187573 -136.25590609 94.12300168 -136.30175781 87.1640625 C-136.34599641 80.44672651 -136.3691464 73.72961843 -136.37950897 67.01213074 C-136.38689265 64.45091276 -136.40131119 61.88970497 -136.42292023 59.3285675 C-136.45200906 55.73769901 -136.45595353 52.14760823 -136.45410156 48.55664062 C-136.46848267 47.50071716 -136.48286377 46.4447937 -136.49768066 45.35687256 C-136.45387808 37.49406723 -134.7250538 32.33062131 -129.75 26.25 C-123.63425876 21.24621171 -116.76375131 19.1538736 -109.1784668 17.34277344 C-108.22936432 17.10810364 -107.28026184 16.87343384 -106.30239868 16.63165283 C-103.18700381 15.86431962 -100.06837511 15.11125987 -96.94921875 14.359375 C-94.76728205 13.82749008 -92.58546523 13.29511317 -90.40376282 12.76226807 C-85.83851615 11.64978106 -81.27157416 10.54460935 -76.70336914 9.44433594 C-70.86940497 8.03838024 -65.04057997 6.61229484 -59.21293926 5.18038559 C-54.71018322 4.07677305 -50.20461646 2.98500845 -45.69816017 1.89661407 C-43.54878861 1.37580774 -41.40034805 0.85114257 -39.25290489 0.3224411 C-36.2413045 -0.41735062 -33.22620204 -1.14077508 -30.2097168 -1.86035156 C-29.33611008 -2.07848511 -28.46250336 -2.29661865 -27.56242371 -2.5213623 C-18.01811789 -4.75933588 -8.50375934 -5.60286678 0 0 Z " fill="#000000" transform="translate(4858,241)"/>
<path d="M0 0 C6.1813005 6.63249032 7.99402326 14.52270985 8.16796875 23.41015625 C7.74958112 26.78958729 6.95007094 30.00674286 6.06665039 33.29199219 C5.83667138 34.19818172 5.60669237 35.10437126 5.3697443 36.03802109 C4.65418174 38.83390768 3.91420101 41.62231547 3.16796875 44.41015625 C2.83657457 45.66872185 2.83657457 45.66872185 2.49848557 46.95271301 C0.97233548 52.74763804 -0.61130546 58.52577166 -2.2109375 64.30078125 C-2.70999579 66.11005362 -3.20892999 67.91936022 -3.70774841 69.72869873 C-4.74126022 73.47367295 -5.77773615 77.21781138 -6.81616211 80.96142578 C-8.14027179 85.73673349 -9.45438259 90.5147321 -10.76608372 95.29346085 C-11.78819015 99.01128338 -12.81671147 102.72730891 -13.84702873 106.44286346 C-14.33443398 108.20434701 -14.81961792 109.96644691 -15.30243111 111.72919464 C-22.4757955 137.88896927 -22.4757955 137.88896927 -34.83203125 145.41015625 C-38.2840559 146.56083113 -41.00821397 146.54290133 -44.64453125 146.53515625 C-45.84722656 146.53773438 -47.04992188 146.5403125 -48.2890625 146.54296875 C-51.83203125 146.41015625 -51.83203125 146.41015625 -54.56640625 145.91796875 C-84.38854436 141.28055493 -120.81089122 147.56640893 -145.83203125 164.84765625 C-170.45760134 182.90640765 -184.59477936 206.85848368 -189.36881447 236.77377319 C-190.12075161 243.00137021 -189.975483 249.26697797 -189.97006226 255.52978516 C-189.97248312 256.96641937 -189.97534626 258.4030529 -189.97861159 259.83968544 C-189.98633439 263.77391699 -189.98798237 267.70813107 -189.98866272 271.64236927 C-189.99050784 275.89055215 -189.99811762 280.13872494 -190.00514221 284.38690186 C-190.01665123 291.7444852 -190.0249041 299.10206627 -190.03126144 306.45965576 C-190.04160101 318.08981836 -190.06216702 329.71995254 -190.0843811 341.35009766 C-190.09186012 345.33114615 -190.09927392 349.31219476 -190.10666847 353.29324341 C-190.10944432 354.78544877 -190.10944432 354.78544877 -190.11227625 356.3077997 C-190.13319019 367.62381683 -190.15202591 378.93983709 -190.16992188 390.25585938 C-190.17156006 391.28997082 -190.17319824 392.32408226 -190.17488606 393.38953042 C-190.20118674 410.15778222 -190.21982323 426.92603622 -190.23651378 443.69429994 C-190.25393246 460.91600673 -190.2827727 478.13767031 -190.32140315 495.35934258 C-190.34479889 505.9791985 -190.35879733 516.59898397 -190.36073078 527.21886587 C-190.36283965 534.49439051 -190.37576464 541.76984501 -190.39721011 549.04533815 C-190.40923959 553.24277811 -190.41639006 557.44007881 -190.41049767 561.6375351 C-190.40519779 565.48169014 -190.41369355 569.32556125 -190.43305404 573.16966891 C-190.43762421 574.55851923 -190.43716644 575.94739735 -190.43110566 577.33624196 C-190.39510407 586.3963183 -190.859187 592.99335908 -196.01953125 600.66015625 C-201.81673455 606.32853281 -208.42241386 608.51990162 -216.47283936 608.55059814 C-217.82673264 608.55916336 -217.82673264 608.55916336 -219.20797729 608.56790161 C-220.18574127 608.56901947 -221.16350525 608.57013733 -222.17089844 608.57128906 C-223.21055756 608.57625397 -224.25021667 608.58121887 -225.32138062 608.58633423 C-228.75722926 608.60092631 -232.19303172 608.60775309 -235.62890625 608.61328125 C-238.02158611 608.61903529 -240.41426596 608.62479299 -242.8069458 608.6305542 C-247.82377334 608.64105589 -252.84058489 608.64690396 -257.85742188 608.65039062 C-264.27422607 608.65587247 -270.69081778 608.67989765 -277.10755539 608.70836258 C-282.05076711 608.72702038 -286.99392798 608.73219625 -291.93717194 608.7337265 C-294.3021689 608.73674662 -296.6671651 608.74475343 -299.03212738 608.75791168 C-302.3467763 608.77503692 -305.66091027 608.77307585 -308.97558594 608.76660156 C-310.43008652 608.78042374 -310.43008652 608.78042374 -311.91397095 608.79452515 C-319.61325353 608.74760572 -327.19521526 607.5592822 -333.14453125 602.28515625 C-334.06685547 601.50785156 -334.06685547 601.50785156 -335.0078125 600.71484375 C-340.19163177 594.16569307 -341.42023024 587.46425078 -341.33539581 579.3038187 C-341.34120958 578.32055008 -341.34702334 577.33728146 -341.35301328 576.32421681 C-341.36759757 573.03324068 -341.3537348 569.74301218 -341.33996582 566.45204163 C-341.34457533 564.06726257 -341.35092858 561.68248635 -341.3588748 559.29771608 C-341.37209578 554.11472747 -341.37289721 548.9318904 -341.36268616 543.74890137 C-341.34754313 536.04152395 -341.35529794 528.33428696 -341.36751939 520.62691046 C-341.38857611 506.86054045 -341.38675922 493.09424472 -341.37520374 479.32786766 C-341.36514051 467.28005259 -341.36251517 455.23226474 -341.36729431 443.18444633 C-341.36759985 442.3852078 -341.36790539 441.58596927 -341.36822019 440.76251138 C-341.36946555 437.51811006 -341.37073915 434.27370875 -341.37205925 431.02930746 C-341.38429498 400.59475785 -341.37320204 370.16025554 -341.35167166 339.72571324 C-341.33269109 312.68991955 -341.33438625 285.65420123 -341.35351562 258.6184082 C-341.3749376 228.2409458 -341.3834254 197.86352518 -341.37106657 167.48605627 C-341.36978371 164.24726483 -341.36853235 161.00847338 -341.36729431 157.76968193 C-341.366978 156.97221369 -341.36666169 156.17474544 -341.3663358 155.35311149 C-341.36178715 143.31393382 -341.36710473 131.27478636 -341.37721252 119.23561287 C-341.38864966 105.54484703 -341.38579013 91.85416706 -341.36408955 78.16341192 C-341.35234689 70.50246857 -341.35157393 62.8417112 -341.36667425 55.18077269 C-341.37670517 49.46052376 -341.36582024 43.74046708 -341.34677595 38.02024811 C-341.3423051 35.70609099 -341.3445869 33.391909 -341.3542791 31.07776786 C-341.36644336 27.93226928 -341.35396641 24.78778089 -341.33539581 21.64233494 C-341.34476048 20.74386604 -341.35412514 19.84539714 -341.36377358 18.9197019 C-341.27734695 11.5951372 -339.51089854 4.79398861 -334.90234375 -1.02734375 C-334.26039063 -1.54296875 -333.6184375 -2.05859375 -332.95703125 -2.58984375 C-332.32023437 -3.12609375 -331.6834375 -3.66234375 -331.02734375 -4.21484375 C-324.93000178 -8.0338195 -318.86153387 -7.88135758 -311.90478516 -7.86450195 C-310.26951622 -7.87216835 -310.26951622 -7.87216835 -308.60121155 -7.87998962 C-305.00361616 -7.89386988 -301.4062127 -7.89292993 -297.80859375 -7.890625 C-295.30284555 -7.89451289 -292.79709801 -7.89884776 -290.29135132 -7.90361023 C-285.04089735 -7.91106916 -279.79049288 -7.91092228 -274.54003906 -7.90551758 C-268.48584148 -7.89948096 -262.43187648 -7.9117847 -256.37771857 -7.93308765 C-250.53645325 -7.95287974 -244.69527853 -7.95587118 -238.85398483 -7.95235252 C-236.37652414 -7.9528652 -233.89905969 -7.95809293 -231.42161942 -7.96816444 C-227.95358741 -7.98053245 -224.48609018 -7.9737343 -221.01806641 -7.9621582 C-219.99962143 -7.96980194 -218.98117645 -7.97744568 -217.93186951 -7.98532104 C-209.01239203 -7.91968017 -202.3491783 -6.1069908 -195.83203125 0.41015625 C-191.43969944 6.65484524 -190.68322598 11.98644118 -190.515625 19.45703125 C-190.4948439 20.22823303 -190.47406281 20.99943481 -190.45265198 21.79400635 C-190.38744553 24.24930197 -190.32840641 26.70470146 -190.26953125 29.16015625 C-190.22631851 30.8281356 -190.18270335 32.49610457 -190.13867188 34.1640625 C-190.03179389 38.24598821 -189.93044559 42.32801807 -189.83203125 46.41015625 C-188.40287891 44.82881778 -186.97467927 43.24661827 -185.546875 41.6640625 C-184.75144287 40.78306885 -183.95601074 39.9020752 -183.13647461 38.99438477 C-181.18549799 36.80653779 -179.27849272 34.59302829 -177.39453125 32.34765625 C-141.70821298 -8.30867438 -46.23262606 -40.12085033 0 0 Z " fill="#000000" transform="translate(2831.83203125,402.58984375)"/>
</svg>
