<?xml version="1.0" encoding="utf-8"?>
<!-- Generator: Adobe Illustrator 26.0.3, SVG Export Plug-In . SVG Version: 6.00 Build 0)  -->
<svg version="1.0" id="katman_1" xmlns="http://www.w3.org/2000/svg" xmlns:xlink="http://www.w3.org/1999/xlink" x="0px" y="0px"
	 viewBox="0 0 800 600" style="enable-background:new 0 0 800 600;" xml:space="preserve">
<style type="text/css">
	.st0{fill:#333332;}
	.st1{fill:#FF875B;}
</style>
<path class="st0" d="M709.1,263.1H695v-17c0-0.9-0.4-1.7-1.1-2.3c-0.7-0.5-1.5-0.7-2.4-0.5l-12.4,3c-1.3,0.3-2.2,1.5-2.2,2.8v13.9
	h-7.1c-1.6,0-2.8,1.3-2.8,2.9v10.3c0,1.6,1.3,2.9,2.8,2.9h7.1v41.4c0.2,17.6,11.4,20,23.6,20c1.2,0,2.4,0,3.6-0.1
	c1.2,0,2.5-0.1,3.8-0.1l0.1,0c1.7-0.2,2.7-1.4,2.7-3v-11c0-1.6-1.3-2.9-2.8-2.9h-4.3c-6.2,0-8.7-2.7-8.7-9.4v-34.9h14.1
	c1.6,0,2.8-1.3,2.8-2.9V266C711.9,264.4,710.6,263.1,709.1,263.1z"/>
<path class="st0" d="M633.4,262c-7.4,0-13.1,2.3-17.2,6.8V266c0-1.6-1.2-2.9-2.8-2.9h-13.1c-1.6,0-2.8,1.2-2.8,2.9v71.4
	c0,1.6,1.2,2.9,2.8,2.9h13.1c1.6,0,2.8-1.2,2.8-2.9v-44.7c0-8.3,5-13.8,12.5-13.8c7.5,0,12.4,5.5,12.4,14v44.6
	c0,1.6,1.2,2.9,2.8,2.9H657c1.6,0,2.8-1.2,2.8-2.9v-48.1C659.8,272.7,649.4,262,633.4,262z"/>
<path class="st0" d="M567.5,294.1h-27.8c0.2-2.5,0.5-4.2,1-5.7l0-0.1c1.8-6.2,6.2-9.5,12.6-9.5c6.9,0,11.8,3.7,13.4,10.4
	C567.1,290.3,567.4,292,567.5,294.1z M553.3,262c-15.2,0-26.7,8.6-30.7,22.9c-1.3,4.3-1.9,9.6-1.8,16.3c0,8.2,1.1,14.8,3.3,20.2
	c5,12.7,15.8,19.9,30.6,20.2c0.2,0,0.4,0,0.5,0c12.3,0,22.8-5.1,29-14c0.9-1.3,0.6-2.7-0.6-3.8l-8.8-7.5c-0.8-0.7-1.6-0.8-2.1-0.7
	c-0.5,0.1-1.3,0.4-2,1.4c-3.5,5.1-8.3,7.7-14.4,7.7c-8.2-0.1-13.5-3.5-15.6-10c-0.6-1.4-0.9-3.5-1.1-5.8h44c1.7,0,2.8-1.2,2.8-2.9
	c0.1-5,0.1-8.8-0.4-12.9C583.6,272.5,572.6,262,553.3,262z"/>
<path class="st0" d="M491,301c0,8.1-0.3,10.2-1,12.7c-1.5,6.1-6,9.7-12.3,9.7c-6.3,0-11.2-3.7-13.1-9.9c-0.6-1.6-1.3-5-1.3-12.3
	c0-5.8,0.5-9.7,1.6-12.5c2.1-6.3,6.7-9.9,12.7-9.9c6.3,0,10.9,3.7,12.4,9.8C490.7,291.3,491,293.2,491,301z M506.9,263.1h-13
	c-1.6,0-2.8,1.2-2.8,2.9v1.9c-4.3-4-9.9-6-17.1-6c-12.7,0-23.1,7.8-27.1,20.3c-2.1,5.9-2.3,13.2-2.3,18.9c0,7.5,0.6,13.2,1.9,18
	c4.5,15,17.7,20.4,28.5,20.4c6.8,0,12.2-1.9,16.1-5.6c-0.1,6.3-1.7,10.8-5,13.8c-4.3,3.9-11.6,5.4-22.5,4.3c-2.8,0-3.1,1.9-3.1,2.7
	l-0.4,12c0,1.7,0.9,2.8,2.6,3c2.7,0.3,5.3,0.4,7.8,0.4c12.1,0,22.2-3.2,28.9-9.2c6.9-6.2,10.4-15.3,10.4-27V266
	C509.7,264.4,508.5,263.1,506.9,263.1z"/>
<path class="st0" d="M438.2,263.4c-2-0.8-4.2-1.2-6.7-1.2c-6.7,0-12.1,2.7-16.2,8.1V266c0-1.6-1.3-2.9-2.8-2.9h-13.1
	c-1.6,0-2.8,1.3-2.8,2.9v71.4c0,1.6,1.3,2.9,2.8,2.9h13.1c1.6,0,2.8-1.3,2.8-2.9v-41.5c0-8.9,6.5-13.3,12.9-13.7
	c2.3-0.3,3.5-0.2,5,0.1c1.6,0.3,3.1-0.7,3.5-2.2l3.5-12.7C440.5,265.7,439.7,264,438.2,263.4z"/>
<path class="st0" d="M364.7,306.9v6.5c0,7.7-8,12.4-15.8,12.4c-5.2,0-10.8-2.3-10.8-8.7c0-6.5,5.5-10.2,15.1-10.2H364.7z M352.3,262
	c-14.4,0-25.9,6.6-29.3,16.8c-0.3,0.9-0.2,1.8,0.3,2.6c0.4,0.7,1.1,1.2,2,1.4l12.9,3.2c1.3,0.2,2.7-0.5,3.2-1.7
	c1.5-3.5,5.5-5.5,11.4-5.5c7.8,0,11.9,3.8,11.9,10.9v3.1h-14.8c-19.2,0-30.7,9.5-30.7,25.3c0,17.1,13.2,23.2,25.5,23.2
	c8.3,0,15.1-2.5,19.9-7.1v3.1c0,1.6,1.3,2.9,2.8,2.9h13.1c1.6,0,2.8-1.3,2.8-2.9V288C383.4,272.7,370.6,262,352.3,262z"/>
<path class="st1" d="M211.5,213.4h-52.4c-1.8,0-3.2,1.5-3.2,3.3c-1.1,50.8-26.8,99-71.1,133.1c-1.4,1.1-1.7,3.1-0.7,4.6l30.7,43.7
	c1,1.5,3.1,1.8,4.5,0.7c27.7-21.2,50-46.8,66-75.1c16,28.4,38.3,53.9,66,75.1c1.4,1.1,3.5,0.8,4.5-0.7l30.7-43.7
	c1-1.5,0.7-3.5-0.7-4.6c-44.3-34.1-70-82.3-71.1-133.1C214.7,214.8,213.3,213.4,211.5,213.4z"/>
</svg>
