<?xml version="1.0" encoding="UTF-8"?>
<svg xmlns="http://www.w3.org/2000/svg" version="1.1" viewBox="0 0 1100 500">
  <defs>
    <style>
      .cls-1 {
        fill: #20a1a1;
      }
    </style>
  </defs>
  <!-- Generator: Adobe Illustrator 28.6.0, SVG Export Plug-In . SVG Version: 1.2.0 Build 709)  -->
  <g>
    <g id="Layer_1">
      <path class="cls-1" d="M358.6,207.5v-1c0-12.8-10.2-23-23-23h-1c-5.1,0-9.7,1.5-13.3,4.1l-114.7-66v-2.6c0-12.8-10.2-23-23-23h-1c-12.8,0-23,10.2-23,23v2.6l-114.7,66c-1.5-1-2.6-1.5-4.1-2.6V51.9c8.2-3.6,13.8-11.8,13.8-21.5S43.8,6.8,31,6.8,7.4,17,7.4,30.4s5.6,17.9,13.8,21.5v133.6c-8.2,3.6-13.8,11.8-13.8,21v1c0,9.2,5.6,17.4,13.8,21v132.1c-8.2,3.6-13.8,11.8-13.8,21v1c0,12.8,10.2,23,23,23h1c5.1,0,9.7-1.5,13.3-4.1l114.7,66v2.6c0,12.8,10.2,23,23,23h1c12.8,0,23-10.2,23-23v-2.6l114.7-66c3.6,2.6,8.2,4.1,13.3,4.1h1c12.8,0,23-10.2,23-23v-.5c0-9.2-5.6-17.4-13.8-21v-132.1c8.2-3.6,13.8-11.8,13.8-21.5ZM325.3,356.9c-10.7-17.9-29.2-37.4-52.2-56.3-5.1,4.1-10.7,8.2-15.9,12.3,29.2,23.5,47.6,46.1,55.3,61.4-.5,2.6-1,5.1-1,7.7v2.6l-114.7,66.5c-3.1-2-6.1-3.6-10.2-4.1-14.3-24.1-28.2-78.3-28.2-152s.5-22.5,1-32.8c-6.7-3.1-12.8-6.1-18.9-9.2-1,13.8-1.5,27.6-1.5,42,0,59.4,9.2,119.3,26.6,154.1l-105.4-60.9c19.5,0,45.6-6.1,74.2-17.4-1-6.7-1.5-13.3-2.6-20-37.9,15.4-66.5,20-82.4,16.9-2.6-3.1-5.6-5.6-9.2-7.2v-131.6c3.6-1.5,6.7-4.1,9.2-7.2,23.5-4.6,78.8,8.7,148.4,50.2,9.2,5.6,17.9,11.3,26.1,16.9,5.6-4.1,11.3-8.2,16.9-12.3-10.7-7.2-21.5-14.3-32.8-21.5-57.3-34.3-112.1-53.7-147.9-54.3l105.4-60.9c-9.2,18.4-16.4,43.5-20.5,72.2,6.1,2.6,12.3,5.1,18.4,8.2,5.1-36.3,14.3-63,23-77.8,3.6-.5,7.2-2,10.2-4.1l114.7,66.5v2.6c0,2.6.5,5.1,1,7.2-11.8,24.6-51.2,64.5-114.2,102.4-9.7,6.1-19.5,11.3-28.7,15.9.5,7.2,1,14.3,2,21,12.3-6.1,24.6-12.8,36.9-20,50.7-30.2,96.7-68.6,117.2-101.9v124.9h-.5Z"/>
      <g>
        <path class="cls-1" d="M504,372.9c-7.7-4-15.3-11-23-20.9v24.1h-23.9v-214.2h23.9v83.1c7.9-10.1,15.6-17.1,23.3-21.1,7.7-3.9,16.8-5.9,27.5-5.9s26,3.4,36.3,10.1c10.4,6.7,18.4,16.2,24.1,28.5,5.7,12.3,8.6,26.2,8.6,42s-2.9,29.7-8.6,41.8c-5.7,12.2-13.8,21.6-24.3,28.3-10.5,6.7-22.6,10.1-36.2,10.1s-20.1-2-27.8-6ZM554.7,350.2c7.2-5.1,12.7-12.2,16.6-21.2,3.8-9,5.8-19.1,5.8-30.3s-1.9-21.6-5.8-30.6c-3.8-9-9.4-16-16.6-21.2-7.2-5.1-15.6-7.7-25.1-7.7s-18.1,2.6-25.5,7.7c-7.5,5.1-13.3,12.2-17.5,21.2s-6.3,19.2-6.3,30.6,2.1,21.4,6.3,30.5c4.2,9.1,10.1,16.1,17.5,21.2,7.5,5.1,16,7.6,25.5,7.6s17.9-2.6,25.1-7.7Z"/>
        <path class="cls-1" d="M664.7,368.5c-11.5-6.9-20.4-16.5-26.8-28.6-6.4-12.2-9.5-25.8-9.5-41s3-27.7,9-40c6-12.3,14.6-22.1,26-29.6,11.3-7.5,24.7-11.2,40-11.2s25.6,3,37,9c11.4,6,20.6,14.7,27.5,26.2,6.9,11.5,10.4,25.3,10.4,41.4v8.4h-126.3c.4,5.4,1.4,10.6,3.1,15.4,3.9,12,10.2,21.5,18.9,28.6,8.7,7.1,18.6,10.7,29.6,10.7s20.9-3,28.9-9c8-6,13.8-13.6,17.4-22.7h25.5c-5.1,15.7-13.7,28.4-25.8,38.2-12.2,9.7-27.4,14.6-45.8,14.6s-27.6-3.5-39.2-10.4ZM752.7,282.1c-.4-5.6-1.5-10.7-3.4-15.2-3.9-8.8-10-15.6-18.1-20.5-8.1-4.9-17.3-7.3-27.4-7.3s-19.3,2.4-27.1,7.3c-7.8,4.9-13.8,11.7-18.1,20.5-1.9,4.1-3.4,9.2-4.5,15.2h98.5Z"/>
        <path class="cls-1" d="M826,364.9c-12.3-9.4-19.8-22.3-22.5-38.7h25c2.1,9.9,6.9,17.7,14.5,23.3s18,8.4,31.3,8.4,19.5-2.1,26-6.2c6.5-4.1,9.7-10,9.7-17.7s-1.9-10.8-5.8-14.5c-3.8-3.6-8.7-6.4-14.6-8.3-5.9-1.9-13.7-3.7-23.4-5.6-12.2-2.4-21.9-4.9-29.3-7.4-7.4-2.5-13.7-6.6-18.9-12.2-5.2-5.6-7.9-13.4-7.9-23.3,0-14,5.3-25,15.9-32.8,10.6-7.9,24.1-11.8,40.6-11.8s30.9,4.4,42.1,13.2c11.2,8.8,18.1,20.9,20.8,36.2h-22.2c-2.2-9.5-6.9-16.7-14-21.3-7.1-4.7-16-7-26.7-7s-18.3,1.9-24,5.8c-5.7,3.8-8.6,9.1-8.6,15.9s1.8,9.4,5.3,12.3c3.6,3,8,5.3,13.2,6.9,5.2,1.6,12.6,3.3,22.2,5.2,12.5,2.4,22.7,5,30.6,7.7,7.9,2.7,14.6,7.1,20.2,13.2,5.6,6.1,8.4,14.6,8.4,25.4s-5.2,26.2-15.7,34.7c-10.5,8.5-25.2,12.8-44.1,12.8s-35.6-4.7-48-14Z"/>
        <path class="cls-1" d="M974.4,354.5c-4.9-9.2-7.3-22.5-7.3-40.1v-93.5h23.9v93.5c0,16.5,3,28.1,9,34.8,5.2,5.8,13.2,8.7,23.9,8.7s21.2-3.8,28.3-11.5c5.1-5.2,8.7-12.4,10.8-21.6,2.1-9.2,3.2-21.7,3.2-37.6v-66.2h23.9v155.2h-23.9v-24.1c-7.5,9.5-14.8,16.4-22,20.6-7.2,4.2-15.2,6.3-24,6.3-21.7,0-37-8.1-45.7-24.4Z"/>
      </g>
    </g>
  </g>
</svg>