<svg width="235" height="61" viewBox="0 0 235 61" fill="none" xmlns="http://www.w3.org/2000/svg">
<mask id="mask0_304_186" style="mask-type:luminance" maskUnits="userSpaceOnUse" x="10" y="10" width="215" height="41">
<path d="M224.351 10H10V51H224.351V10Z" fill="white"/>
</mask>
<g mask="url(#mask0_304_186)">
<path d="M200.015 45.5333C209.847 45.5333 217.73 38.8123 217.73 30.5C217.73 22.1877 209.847 15.5228 200.015 15.5228C190.183 15.5228 182.3 22.2438 182.3 30.5C182.322 38.7374 190.272 45.5333 200.015 45.5333ZM175.878 10.0748H224.24V50.9625H175.878V10.0748Z" fill="black"/>
<path fill-rule="evenodd" clip-rule="evenodd" d="M105.284 36.6968C102.45 41.9013 96.2942 45.5333 89.0969 45.5333C79.5533 45.5333 71.7366 39.0931 71.3823 31.0804H113.301V10.0748H64.9606V50.9625H113.322V36.6968H105.284ZM72.1574 26.0443H105.926C103.446 19.0799 96.8035 15.5228 89.1192 15.5228C81.4357 15.5228 74.2831 19.3233 72.1574 26.0443Z" fill="black"/>
<path d="M58.4504 10.0749H10.0885V50.9626H58.4504V36.6968H50.4343C47.6664 41.9014 41.4441 45.5333 34.3138 45.5333C24.482 45.5333 16.5324 38.7562 16.5324 30.5C16.5324 22.2438 24.482 15.5229 34.3138 15.5229C41.5769 15.5229 47.7993 19.2672 50.5672 24.5841H58.4504V10.0749Z" fill="black"/>
<path d="M169.833 36.6968H161.817C159.403 42.0698 152.893 45.4771 145.497 45.4771C135.953 45.4771 127.915 39.636 127.915 30.5V10.0748H119.744V50.9625H169.833V36.6968Z" fill="black"/>
</g>
</svg>
