<svg width="235" height="61" viewBox="0 0 235 61" fill="none" xmlns="http://www.w3.org/2000/svg">
<path d="M200.448 45.5558C210.307 45.5558 218.211 38.8164 218.211 30.4812C218.211 22.1461 210.307 15.4629 200.448 15.4629C190.589 15.4629 182.684 22.2024 182.684 30.4812C182.707 38.7413 190.678 45.5558 200.448 45.5558ZM176.245 10H224.74V51H176.245V10Z" fill="white"/>
<path fill-rule="evenodd" clip-rule="evenodd" d="M105.457 36.6951C102.615 41.9139 96.4424 45.5558 89.2253 45.5558C79.6555 45.5558 71.8173 39.098 71.4621 31.0632H113.495V10H65.0228V51H113.517V36.6951H105.457ZM72.2392 26.0133H106.101C103.614 19.0298 96.953 15.4629 89.2477 15.4629C81.543 15.4629 74.3708 19.2738 72.2392 26.0133Z" fill="white"/>
<path d="M58.4947 10H10V51H58.4947V36.6951H50.4566C47.6811 41.9139 41.4416 45.5558 34.2918 45.5558C24.433 45.5558 16.4615 38.7601 16.4615 30.4812C16.4615 22.2024 24.433 15.4629 34.2918 15.4629C41.5748 15.4629 47.8143 19.2175 50.5898 24.549H58.4947V10Z" fill="white"/>
<path d="M170.183 36.6951H162.145C159.725 42.0828 153.197 45.4995 145.78 45.4995C136.211 45.4995 128.15 39.6424 128.15 30.4812V10H119.957V51H170.183V36.6951Z" fill="white"/>
</svg>
