<?xml version="1.0" encoding="UTF-8"?>
<svg version="1.1" xmlns="http://www.w3.org/2000/svg" width="1200" height="627">
<path d="M0 0 C396 0 792 0 1200 0 C1200 206.91 1200 413.82 1200 627 C804 627 408 627 0 627 C0 420.09 0 213.18 0 0 Z " fill="#FEFEFE" transform="translate(0,0)"/>
<path d="M0 0 C1.67511805 0.01508823 3.35024939 0.02876925 5.02539062 0.04101562 C9.07976276 0.07366117 13.13347944 0.12520908 17.1875 0.1875 C13.49025 4.83324006 9.86384279 8.36231934 5.04502869 11.80947876 C-7.77160718 21.07941841 -23.1187014 32.77588256 -26.26333714 49.12816429 C-29.24519602 68.45470602 -27.5905402 88.81817711 -25.8125 108.1875 C-15.82438237 109.23788838 -5.84866028 109.88834731 4.1875 110.1875 C5.29439178 110.22060335 5.29439178 110.22060335 6.42364502 110.25437546 C25.88076623 110.73077233 40.38162957 109.28233592 55.25952148 95.64022827 C64.14682301 86.8305696 74.53018874 76.50212253 80.1875 65.1875 C49.4975 64.6925 49.4975 64.6925 18.1875 64.1875 C18.1875 43.0675 18.1875 21.9475 18.1875 0.1875 C39.3075 0.1875 60.4275 0.1875 82.1875 0.1875 C82.34793524 23.88289325 82.34793524 23.88289325 82.3828125 34.09570312 C82.40659073 41.02527337 82.43451403 47.95462935 82.48925781 54.8840332 C82.53318094 60.47971103 82.55673375 66.07515861 82.56700897 71.67099571 C82.5743179 73.7905101 82.58858635 75.91001396 82.61042023 78.02942848 C82.9159467 108.95766806 75.01539859 131.95116155 53.1015625 154.31640625 C34.93137639 171.5747057 10.59951377 177.10703276 -13.73828125 176.52734375 C-31.57958545 175.75235434 -47.89953103 168.19072678 -61.8125 157.1875 C-62.55628906 156.60742188 -63.30007812 156.02734375 -64.06640625 155.4296875 C-80.09296786 142.10673716 -90.8928901 121.74532769 -93.8125 101.1875 C-94.10626177 96.74604407 -94.13752117 92.32502206 -94.125 87.875 C-94.14111328 86.74126953 -94.15722656 85.60753906 -94.17382812 84.43945312 C-94.18674489 61.77053711 -84.40749838 42.26894787 -68.8125 26.1875 C-68.28527344 25.58679688 -67.75804687 24.98609375 -67.21484375 24.3671875 C-57.99304272 14.22556488 -44.82992786 7.08700028 -31.8125 3.1875 C-30.92377197 2.91752197 -30.03504395 2.64754395 -29.11938477 2.36938477 C-19.37910758 -0.24622382 -9.99285377 -0.15826913 0 0 Z " fill="#131313" transform="translate(280.8125,225.8125)"/>
<path d="M0 0 C1.20257446 0.00845947 1.20257446 0.00845947 2.42944336 0.01708984 C13.28378641 0.24025293 21.73735043 3.86235043 29.5 11.625 C30.056875 12.511875 30.61375 13.39875 31.1875 14.3125 C31.74244141 15.16134766 31.74244141 15.16134766 32.30859375 16.02734375 C36.83651491 24.19013587 36.39641266 34.64147712 34.4921875 43.57421875 C31.16483259 53.59822492 26.20069759 59.32690636 16.87109375 64.18359375 C7.93544286 67.94255024 -5.52042686 68.04856357 -14.5625 64.625 C-22.5312339 60.71580979 -28.23176234 54.65103788 -31.625 46.4375 C-34.41109688 37.10247424 -34.34663801 25.19355695 -30.0703125 16.38671875 C-23.19227339 5.04436233 -13.13661675 -0.09587772 0 0 Z " fill="#181818" transform="translate(501.8125,224.6875)"/>
<path d="M0 0 C0.67289063 -0.00773438 1.34578125 -0.01546875 2.0390625 -0.0234375 C11.83968395 0.01440274 19.95770295 3.51388977 27 10.25 C32.88830419 18.66186313 34 27.08775701 34 37.25 C16.84 37.25 -0.32 37.25 -18 37.25 C-15.55809208 45.81550063 -15.55809208 45.81550063 -10 51.25 C-3.99185141 53.82492082 2.5619505 53.97428057 9 53.25 C12.77604504 51.46134709 14.46771709 50.44231372 16.171875 46.625 C18 44.25 18 44.25 21.57421875 43.76171875 C22.94616376 43.79485752 24.3176753 43.85436405 25.6875 43.9375 C26.38939453 43.96005859 27.09128906 43.98261719 27.81445312 44.00585938 C29.5438833 44.06468353 31.27221438 44.15436611 33 44.25 C31.9715627 50.82506546 28.90897275 55.99171852 23.625 60.09375 C12.84625792 66.79760178 0.18626142 68.33522498 -12.18359375 65.52734375 C-21.47977588 62.03243205 -26.65000724 55.9770041 -31 47.25 C-34.14191182 38.82396377 -34.87226731 27.70594153 -31.375 19.3125 C-30.6311723 17.93147725 -29.83860061 16.57561401 -29 15.25 C-28.56429687 14.54230469 -28.12859375 13.83460938 -27.6796875 13.10546875 C-21.03716369 3.32317276 -11.65069247 -0.13391601 0 0 Z " fill="#191919" transform="translate(713,224.75)"/>
<path d="M0 0 C5.28 0 10.56 0 16 0 C16.60328125 1.90523437 17.2065625 3.81046875 17.828125 5.7734375 C18.42698121 7.65356746 19.02586553 9.53368859 19.62548828 11.41357422 C20.23595651 13.33089313 20.8426327 15.24941809 21.44921875 17.16796875 C23.46193591 23.47008313 25.5786843 29.65940812 28.10253906 35.77490234 C29.47377928 39.17465299 30.61896665 42.63942551 31.75 46.125 C31.97042969 46.7953125 32.19085937 47.465625 32.41796875 48.15625 C32.94816741 49.76989809 33.47452413 51.38480779 34 53 C38.07592339 43.42390471 41.29165151 33.53847073 44.625 23.6875 C45.5037936 21.09525181 46.38337718 18.5032783 47.26449585 15.91181946 C47.80910786 14.30960304 48.35233405 12.70691468 48.89395142 11.10368347 C49.26476334 10.01148247 49.26476334 10.01148247 49.64306641 8.8972168 C49.85750397 8.26341599 50.07194153 7.62961517 50.2928772 6.97660828 C51.13311467 4.62790684 52.07357584 2.31606039 53 0 C57.95 0 62.9 0 68 0 C67.28457031 2.206875 66.56914063 4.41375 65.83203125 6.6875 C65.5823056 7.45788605 65.33257996 8.22827209 65.07528687 9.02200317 C63.7850705 13.00180801 62.49400462 16.9813349 61.20166016 20.96044922 C58.55177962 29.12110959 55.90632857 37.28308715 53.28111267 45.45172119 C52.10123119 49.12145251 50.91781607 52.79003943 49.73397827 56.45849609 C49.16202274 58.23400278 48.59172602 60.01004471 48.02310181 61.78662109 C47.22535213 64.27840069 46.42190038 66.76827447 45.6171875 69.2578125 C45.38121353 69.99991974 45.14523956 70.74202698 44.90211487 71.50662231 C43.86837303 74.68733393 42.86876211 77.19685684 41 80 C38.30459685 80.26686213 35.84152536 80.34818073 33.1484375 80.29296875 C32.37440582 80.28872391 31.60037415 80.28447906 30.80288696 80.28010559 C28.32657323 80.26328998 25.85106842 80.22563395 23.375 80.1875 C21.69792841 80.17245682 20.02084408 80.15876778 18.34375 80.14648438 C14.22885419 80.11337721 10.11456431 80.06157637 6 80 C6 76.04 6 72.08 6 68 C14.25 68 22.5 68 31 68 C31.33 65.69 31.66 63.38 32 61 C32.66 59.68 33.32 58.36 34 57 C29.38 57 24.76 57 20 57 C18.53515625 53.09375 17.0703125 49.1875 15.60546875 45.28125 C15.33927734 44.57145996 15.07308594 43.86166992 14.79882812 43.13037109 C14.27654932 41.73752121 13.75440815 40.3446197 13.23242188 38.95166016 C12.01504845 35.70348652 10.79546504 32.45618567 9.5703125 29.2109375 C8.03642264 25.14450426 6.51423669 21.0737913 5 17 C4.62294922 15.98607178 4.62294922 15.98607178 4.23828125 14.95166016 C3.52789467 13.03239482 2.82507656 11.11054668 2.125 9.1875 C1.51011719 7.50720703 1.51011719 7.50720703 0.8828125 5.79296875 C0 3 0 3 0 0 Z " fill="#181818" transform="translate(884,226)"/>
<path d="M0 0 C1.32257812 -0.01836914 1.32257812 -0.01836914 2.671875 -0.03710938 C10.93482868 -0.05555347 18.22640131 1.73463024 25.25 6.1875 C29.63731081 10.80572191 31.25 13.79740961 31.25 20.1875 C26.3 20.1875 21.35 20.1875 16.25 20.1875 C15.92 18.5375 15.59 16.8875 15.25 15.1875 C7.13805759 11.74606989 -0.92742364 10.90147964 -9.5 13.1875 C-10.2425 13.5175 -10.985 13.8475 -11.75 14.1875 C-11.83096803 15.64492463 -11.88917774 17.10362807 -11.9375 18.5625 C-11.97230469 19.37460938 -12.00710938 20.18671875 -12.04296875 21.0234375 C-11.94628906 21.73757812 -11.84960938 22.45171875 -11.75 23.1875 C-8.40968573 25.41437618 -6.83821323 25.55124564 -2.90234375 25.86328125 C-1.73896484 25.96962891 -0.57558594 26.07597656 0.62304688 26.18554688 C3.05456201 26.39278559 5.48687252 26.59092327 7.91992188 26.77929688 C16.80529064 27.61458993 24.20462032 29.43107601 30.875 35.625 C33.28310999 41.86419407 33.64554227 49.07801373 31.47265625 55.4765625 C27.9544298 61.16081449 21.29129837 64.05536322 15.046875 65.8046875 C10.86456772 66.37712621 6.71690855 66.41254788 2.5 66.4375 C1.6440625 66.458125 0.788125 66.47875 -0.09375 66.5 C-8.66551694 66.5519501 -15.94176671 64.57075423 -22.75 59.1875 C-26.92495159 54.5486649 -28.87304241 51.42164865 -28.75 45.1875 C-26.31065775 45.05248106 -23.87875896 44.95346103 -21.4375 44.875 C-20.74720703 44.83310547 -20.05691406 44.79121094 -19.34570312 44.74804688 C-17.32421875 44.69921875 -17.32421875 44.69921875 -13.75 45.1875 C-11.75546994 47.5990324 -10.75 49.0350744 -10.75 52.1875 C-1.284077 55.04513713 7.17234924 55.39011609 16.25 51.1875 C17.63908639 50.01639816 17.63908639 50.01639816 17.5 46.75 C17.4175 45.574375 17.335 44.39875 17.25 43.1875 C13.96447752 40.99715168 12.44545249 40.81741391 8.5859375 40.4765625 C7.46316406 40.36570312 6.34039063 40.25484375 5.18359375 40.140625 C2.83514543 39.92408311 0.48618382 39.71302893 -1.86328125 39.5078125 C-10.44031291 38.64717534 -17.69526563 37.0958714 -24.3125 31.3125 C-27.73821884 26.86962094 -27.58152199 21.99345884 -27.328125 16.57421875 C-26.46652583 11.52687767 -24.66410805 8.4588703 -20.75 5.1875 C-13.93806109 0.81297803 -7.9382122 0.00570274 0 0 Z " fill="#191919" transform="translate(980.75,224.8125)"/>
<path d="M0 0 C0.87333984 -0.01224609 1.74667969 -0.02449219 2.64648438 -0.03710938 C12.24946117 -0.05862463 19.883845 1.7950621 27.3125 8.1875 C30.55096927 12.12922935 31.3125 14.97338016 31.3125 20.1875 C26.3625 20.1875 21.4125 20.1875 16.3125 20.1875 C15.6525 18.5375 14.9925 16.8875 14.3125 15.1875 C8.30011284 11.3128505 1.28543439 11.28719708 -5.6875 12.1875 C-7.9495858 13.35281692 -9.88584104 14.38584104 -11.6875 16.1875 C-11.83386054 19.55379251 -11.75943479 21.97169562 -10.6875 25.1875 C-9.92719482 25.25743164 -9.16688965 25.32736328 -8.38354492 25.39941406 C-4.87909265 25.73040933 -1.377232 26.08381285 2.125 26.4375 C3.32060547 26.54707031 4.51621094 26.65664062 5.74804688 26.76953125 C23.75947473 28.63447473 23.75947473 28.63447473 29.9375 34.8125 C33.32367312 40.66134449 32.93766764 46.53393011 32.3125 53.1875 C30.58541856 58.3863676 27.00549914 60.5759109 22.3125 63.0625 C12.28343072 67.79496707 -1.34451981 67.74407644 -12.078125 65.46875 C-14.47573304 64.55677639 -16.5288837 63.56649079 -18.6875 62.1875 C-19.27402344 61.81367188 -19.86054687 61.43984375 -20.46484375 61.0546875 C-24.49648849 58.07777623 -26.61883517 54.64308579 -28.6875 50.1875 C-28.7890625 47.46875 -28.7890625 47.46875 -28.6875 45.1875 C-26.26813683 45.02500546 -23.85968141 44.90652183 -21.4375 44.8125 C-20.75558594 44.76222656 -20.07367187 44.71195312 -19.37109375 44.66015625 C-17.359375 44.6015625 -17.359375 44.6015625 -13.6875 45.1875 C-11.390625 48.09375 -11.390625 48.09375 -9.6875 51.1875 C-3.74121249 54.90392969 2.43945221 54.90363624 9.3125 54.1875 C12.24974463 53.36186906 15.10451313 52.39548687 17.3125 50.1875 C17.64588596 46.72937831 17.64588596 46.72937831 17.3125 43.1875 C14.02697752 40.99715168 12.50795249 40.81741391 8.6484375 40.4765625 C7.52566406 40.36570312 6.40289063 40.25484375 5.24609375 40.140625 C2.89764543 39.92408311 0.54868382 39.71302893 -1.80078125 39.5078125 C-10.0075592 38.68432737 -18.05155202 37.62286273 -23.6875 31.0625 C-27.63790617 25.38379113 -27.50611048 19.98276178 -26.6875 13.1875 C-24.24857689 7.43668129 -20.12139347 4.3428417 -14.51953125 1.87890625 C-9.52798076 -0.00489852 -5.28117985 0.00381313 0 0 Z " fill="#191919" transform="translate(641.6875,224.8125)"/>
<path d="M0 0 C0.92699707 0.00829834 1.85399414 0.01659668 2.80908203 0.02514648 C11.70727438 0.24467169 18.89107738 1.64257256 25.75 7.625 C29.20279828 11.42473016 30.13059128 15.42532156 30.6875 20.4375 C28.24815775 20.57251894 25.81625896 20.67153897 23.375 20.75 C22.68470703 20.79189453 21.99441406 20.83378906 21.28320312 20.87695312 C19.26171875 20.92578125 19.26171875 20.92578125 15.6875 20.4375 C13.89453125 18.03125 13.89453125 18.03125 12.6875 15.4375 C6.37441242 11.62334292 -0.37441117 11.47587217 -7.5390625 12.87109375 C-9.70959785 13.49543175 -9.70959785 13.49543175 -12.3125 15.4375 C-13.3740942 19.02613524 -13.3740942 19.02613524 -13.3125 22.4375 C-9.90887004 25.52932302 -7.15899154 25.97195252 -2.640625 26.4296875 C-0.68382812 26.65205078 -0.68382812 26.65205078 1.3125 26.87890625 C3.3698097 27.09842432 5.42748129 27.31150434 7.48632812 27.51611328 C23.00262321 29.09537046 23.00262321 29.09537046 28.6875 34.4375 C32.26430051 40.02625079 32.56610936 45.9120979 31.6875 52.4375 C28.71480645 58.61155584 23.9315029 62.85041088 17.5625 65.25 C7.13592188 68.0230261 -8.62002999 68.68218263 -18.3125 63.4375 C-23.92571446 59.68566236 -27.35630035 55.91741133 -29.3125 49.4375 C-29.3125 48.1175 -29.3125 46.7975 -29.3125 45.4375 C-24.3625 45.4375 -19.4125 45.4375 -14.3125 45.4375 C-13.3225 47.4175 -12.3325 49.3975 -11.3125 51.4375 C-5.88607489 55.72151982 1.11800391 55.05289075 7.6875 54.4375 C12.58592514 53.22871383 12.58592514 53.22871383 16.6875 50.4375 C16.72842937 48.10452567 16.72991723 45.77044775 16.6875 43.4375 C13.25319974 41.40685182 10.17622106 40.97499374 6.234375 40.54296875 C4.97496094 40.39150391 3.71554687 40.24003906 2.41796875 40.08398438 C-0.21891324 39.7758828 -2.8563976 39.48558799 -5.49609375 39.20117188 C-14.15161775 38.1379806 -19.91445378 36.56556715 -26.28515625 30.5859375 C-27.81637163 27.38377606 -27.74647735 24.59219805 -27.75 21.0625 C-27.76933594 19.77601563 -27.78867187 18.48953125 -27.80859375 17.1640625 C-27.10768183 11.89894463 -24.8079185 8.89137909 -21.0625 5.25 C-14.24881264 0.75916061 -7.97263765 -0.09156493 0 0 Z " fill="#181818" transform="translate(851.3125,224.5625)"/>
<path d="M0 0 C4.98492055 3.43718312 7.96123974 7.65954018 9.9375 13.3359375 C10.17800903 15.79743958 10.17800903 15.79743958 10.16455078 18.40161133 C10.16439972 19.38225052 10.16424866 20.36288971 10.16409302 21.37324524 C10.15377045 22.419254 10.14344788 23.46526276 10.1328125 24.54296875 C10.1299826 25.62350021 10.12715271 26.70403168 10.12423706 27.81730652 C10.11306132 31.26113051 10.08796118 34.70469239 10.0625 38.1484375 C10.05246685 40.48632436 10.04334158 42.82421531 10.03515625 45.16210938 C10.01313046 50.88681941 9.97861821 56.61133405 9.9375 62.3359375 C4.9875 62.3359375 0.0375 62.3359375 -5.0625 62.3359375 C-5.0718457 60.96864502 -5.08119141 59.60135254 -5.09082031 58.19262695 C-5.13072903 53.1138465 -5.196491 48.03567124 -5.27001953 42.95727539 C-5.2982239 40.76041444 -5.31944107 38.56345211 -5.33349609 36.36645508 C-5.35493249 33.2060152 -5.4015878 30.04679354 -5.453125 26.88671875 C-5.45435364 25.90633133 -5.45558228 24.92594391 -5.45684814 23.91584778 C-5.55041632 19.54755659 -5.6308813 17.02721809 -7.98486328 13.25708008 C-12.91610609 8.69727401 -17.38528334 8.91303275 -23.921875 9.015625 C-29.04797121 9.53843581 -31.30502918 11.32629366 -34.68391418 15.19000244 C-36.27322991 17.66396401 -36.45394331 19.00670136 -36.49487305 21.92089844 C-36.51466721 22.82153015 -36.53446136 23.72216187 -36.55485535 24.65008545 C-36.56444023 26.09559784 -36.56444023 26.09559784 -36.57421875 27.5703125 C-36.59216995 28.56347473 -36.61012115 29.55663696 -36.62861633 30.57989502 C-36.68275006 33.74853281 -36.71662528 36.91701968 -36.75 40.0859375 C-36.78317032 42.23569809 -36.81765971 44.38543877 -36.85351562 46.53515625 C-36.93847852 51.80197451 -37.00527543 57.06874777 -37.0625 62.3359375 C-42.0125 62.3359375 -46.9625 62.3359375 -52.0625 62.3359375 C-52.0625 41.2159375 -52.0625 20.0959375 -52.0625 -1.6640625 C-47.1125 -1.6640625 -42.1625 -1.6640625 -37.0625 -1.6640625 C-36.7325 2.2959375 -36.4025 6.2559375 -36.0625 10.3359375 C-35.52625 9.4490625 -34.99 8.5621875 -34.4375 7.6484375 C-26.81667211 -3.70230263 -11.92285999 -6.18060022 0 0 Z " fill="#1A1A1A" transform="translate(597.0625,227.6640625)"/>
<path d="M0 0 C0.72960937 -0.01224609 1.45921875 -0.02449219 2.2109375 -0.03710938 C10.4594937 -0.05920372 19.25425952 2.04832193 25.39453125 7.86328125 C30.64522124 13.82939372 31.93169423 18.33003458 32.625 26.1875 C28.005 26.1875 23.385 26.1875 18.625 26.1875 C18.08875 24.970625 17.5525 23.75375 17 22.5 C14.89602231 18.45720328 13.03256305 14.89186341 8.625 13.1875 C1.84376036 12.47800907 -5.13811998 12.04694339 -11.375 15.1875 C-15.77687559 18.77042199 -17.38601401 21.6132153 -18.375 27.1875 C-18.96590468 34.15173374 -18.78088104 40.9287223 -15.375 47.1875 C-12.16349025 50.76726287 -8.95632457 53.0891401 -4.109375 53.390625 C-2.79453125 53.40609375 -1.4796875 53.4215625 -0.125 53.4375 C1.83179688 53.47617187 1.83179688 53.47617187 3.828125 53.515625 C7.92199924 53.1618334 10.22314264 52.47019559 13.625 50.1875 C15.37955028 47.75539044 15.37955028 47.75539044 16.5 45 C17.20125 43.411875 17.9025 41.82375 18.625 40.1875 C23.575 40.1875 28.525 40.1875 33.625 40.1875 C32.28635837 49.5579914 30.07158746 54.70866284 22.7109375 60.71484375 C13.35450523 67.32041485 1.61941575 67.07120592 -9.375 66.1875 C-17.81272273 64.51063612 -24.69450618 59.12871546 -29.7890625 52.2890625 C-35.03707782 43.64305165 -34.30786813 31.95083633 -33.375 22.1875 C-31.32829627 14.45958727 -26.0732686 8.12279924 -19.32421875 3.90625 C-12.96012711 0.55042013 -7.15664919 0.00625581 0 0 Z " fill="#181818" transform="translate(430.375,224.8125)"/>
<path d="M0 0 C6.66857296 3.16036692 10.4230447 7.03821051 13.3006897 13.89749146 C14.57830336 18.2521217 14.2952975 22.73782618 14.2265625 27.23828125 C14.22231766 28.29378677 14.21807281 29.3492923 14.21369934 30.43678284 C14.19698424 33.78885021 14.15934463 37.1403036 14.12109375 40.4921875 C14.10603768 42.77277774 14.09235089 45.05337746 14.08007812 47.33398438 C14.04710409 52.90778657 13.99537077 58.48113314 13.93359375 64.0546875 C8.98359375 64.0546875 4.03359375 64.0546875 -1.06640625 64.0546875 C-1.08098877 62.75321777 -1.09557129 61.45174805 -1.1105957 60.11083984 C-1.16869559 55.26876758 -1.24592816 50.42715465 -1.32885742 45.58544922 C-1.36205174 43.49242626 -1.3901007 41.39931497 -1.4128418 39.30615234 C-1.44648856 36.29226138 -1.49881018 33.27917587 -1.5546875 30.265625 C-1.56107742 29.33414642 -1.56746735 28.40266785 -1.5740509 27.44296265 C-1.69064438 22.25679238 -2.14430944 18.52522705 -5.06640625 14.0546875 C-10.31313687 10.01874087 -16.7381938 10.27235354 -23.06640625 11.0546875 C-27.53974138 13.21147408 -30.42753496 15.86529103 -33.06640625 20.0546875 C-33.67310027 23.4222991 -33.67130121 26.75265497 -33.67578125 30.16796875 C-33.6923175 31.13751999 -33.70885376 32.10707123 -33.72589111 33.10600281 C-33.7743537 36.19312893 -33.7957385 39.27976249 -33.81640625 42.3671875 C-33.84456734 44.46421747 -33.87449496 46.5612245 -33.90625 48.65820312 C-33.98011247 53.79032404 -34.02969796 58.92217179 -34.06640625 64.0546875 C-38.68640625 64.0546875 -43.30640625 64.0546875 -48.06640625 64.0546875 C-48.06640625 42.9346875 -48.06640625 21.8146875 -48.06640625 0.0546875 C-43.44640625 0.0546875 -38.82640625 0.0546875 -34.06640625 0.0546875 C-33.73640625 4.6746875 -33.40640625 9.2946875 -33.06640625 14.0546875 C-32.07640625 12.0746875 -31.08640625 10.0946875 -30.06640625 8.0546875 C-28.1640625 6.0078125 -28.1640625 6.0078125 -26.12890625 4.3046875 C-25.45988281 3.73234375 -24.79085937 3.16 -24.1015625 2.5703125 C-17.27234226 -2.51555594 -7.98737393 -2.46234967 0 0 Z " fill="#1A1A1A" transform="translate(802.06640625,225.9453125)"/>
<path d="M0 0 C4.62678576 1.91293431 7.05880623 4.48705301 9.671875 8.6875 C11.29715681 12.74114404 11.49725782 16.05188051 11.4375 20.375 C11.43065186 21.12869873 11.42380371 21.88239746 11.41674805 22.65893555 C11.20943737 29.81853018 9.8061585 34.33072728 4.4375 39.4375 C0.19607763 42.15636049 -3.35724869 42.2193746 -8.3125 42.3125 C-9.60800781 42.34988281 -10.90351563 42.38726562 -12.23828125 42.42578125 C-16.60116861 41.93195496 -18.64172319 40.77722598 -22 38 C-28.03406368 30.31276819 -27.66605894 21.25081866 -27 12 C-25.53950372 6.98351279 -22.25825216 3.91354095 -18 1 C-13.08324451 -1.45837774 -5.39146524 -0.77574045 0 0 Z " fill="#FBFBFB" transform="translate(511,237)"/>
<path d="M0 0 C4.29 0 8.58 0 13 0 C13 5.28 13 10.56 13 16 C13.66 16 14.32 16 15 16 C14.67 31.51 14.34 47.02 14 63 C9.38 63 4.76 63 0 63 C0 42.21 0 21.42 0 0 Z " fill="#121212" transform="translate(754,227)"/>
<path d="M0 0 C2.54999129 2.24446238 4.17893673 4.45943596 5.6953125 7.4921875 C5.6953125 9.1421875 5.6953125 10.7921875 5.6953125 12.4921875 C-6.1846875 12.4921875 -18.0646875 12.4921875 -30.3046875 12.4921875 C-29.16037829 5.62633224 -27.31436239 3.02376063 -22.3046875 -1.5078125 C-15.07417028 -5.36408835 -6.57822552 -4.71395108 0 0 Z " fill="#F4F4F4" transform="translate(725.3046875,239.5078125)"/>
<path d="M0 0 C4.62 0 9.24 0 14 0 C14.1953125 3.54817708 14.390625 7.09635417 14.5859375 10.64453125 C14.76102939 14.12755234 14.76102939 14.12755234 17 17 C16.34 17.33 15.68 17.66 15 18 C14.34 17.67 13.68 17.34 13 17 C13 11.72 13 6.44 13 1 C8.71 1 4.42 1 0 1 C0 0.67 0 0.34 0 0 Z " fill="#212121" transform="translate(754,226)"/>
</svg>
