<?xml version="1.0" standalone="no"?>
<!DOCTYPE svg PUBLIC "-//W3C//DTD SVG 20010904//EN"
 "http://www.w3.org/TR/2001/REC-SVG-20010904/DTD/svg10.dtd">
<svg version="1.0" xmlns="http://www.w3.org/2000/svg"
     width="244" height="61" viewBox="0 0 851.000000 213.000000"
 preserveAspectRatio="xMidYMid meet">

<g transform="translate(0.000000,213.000000) scale(0.100000,-0.100000)"
fill="#000000" stroke="none">
<path d="M2477 1879 c-61 -14 -112 -45 -155 -94 -54 -61 -75 -127 -74 -231 0
-105 33 -186 100 -245 87 -76 242 -100 377 -58 84 26 153 89 178 164 26 75 26
75 -57 75 -72 0 -74 -1 -81 -27 -18 -73 -79 -113 -173 -113 -69 0 -107 12
-140 43 -44 41 -56 77 -57 167 0 72 4 92 24 126 33 58 87 86 165 87 97 1 155
-39 180 -125 5 -15 18 -18 81 -18 l75 0 -6 28 c-22 102 -100 188 -196 217 -56
16 -180 18 -241 4z"/>
<path d="M3193 1875 c-153 -47 -233 -172 -220 -345 9 -132 58 -210 165 -262
62 -31 73 -33 172 -33 99 0 109 2 173 33 48 24 77 46 98 75 54 74 63 103 63
218 1 98 -1 109 -29 164 -55 108 -165 166 -311 164 -38 0 -88 -6 -111 -14z
m166 -106 c99 -22 143 -90 143 -215 -1 -84 -25 -141 -75 -178 -44 -33 -168
-35 -221 -4 -59 35 -86 93 -86 187 1 122 38 183 127 207 59 16 59 16 112 3z"/>
<path d="M4025 1878 c-48 -17 -85 -48 -116 -96 l-28 -44 -3 68 -3 69 -72 3
-73 3 0 -321 0 -321 73 3 72 3 5 227 c5 224 5 227 30 254 71 76 215 72 274 -9
19 -26 21 -45 25 -253 l3 -224 70 0 69 0 -3 248 c-3 232 -4 249 -25 288 -28
52 -72 90 -121 104 -47 13 -138 12 -177 -2z"/>
<path d="M4583 1876 c-104 -34 -153 -94 -153 -188 0 -116 62 -159 270 -184
168 -20 202 -39 179 -101 -15 -42 -56 -58 -149 -58 -96 0 -129 14 -158 66 -16
28 -20 29 -91 29 l-73 0 7 -27 c31 -131 152 -192 356 -181 69 4 101 11 144 32
75 37 99 74 103 156 6 133 -42 171 -249 196 -74 8 -149 22 -167 30 -30 13 -33
18 -30 51 4 50 38 73 116 80 79 7 146 -16 167 -58 15 -28 18 -29 90 -29 l74 0
-9 32 c-18 60 -56 105 -117 134 -51 25 -71 29 -163 31 -68 2 -120 -2 -147 -11z"/>
<path d="M5293 1872 c-72 -26 -119 -60 -154 -112 -70 -105 -78 -247 -20 -365
50 -100 138 -154 266 -163 147 -9 265 41 322 138 47 77 45 80 -36 80 -67 0
-69 -1 -96 -36 -35 -46 -79 -64 -155 -64 -101 0 -169 50 -186 138 l-6 32 258
2 259 3 -3 55 c-8 132 -64 230 -158 276 -76 37 -211 45 -291 16z m226 -120
c36 -26 71 -80 71 -108 l0 -24 -180 0 c-117 0 -180 4 -180 10 0 45 61 119 115
139 44 16 143 7 174 -17z"/>
<path d="M6106 1876 c-46 -17 -99 -66 -123 -115 l-18 -36 -3 78 -3 77 -69 0
-70 0 0 -320 0 -320 70 0 70 0 0 220 0 219 32 37 c40 45 82 64 143 64 62 0
111 -22 135 -62 18 -30 20 -50 20 -255 l0 -223 75 0 75 0 0 209 c0 114 -5 233
-10 262 -13 67 -53 126 -105 153 -51 26 -163 32 -219 12z"/>
<path d="M6665 1874 c-101 -32 -148 -90 -148 -184 0 -67 21 -111 67 -140 36
-22 74 -30 256 -54 114 -16 133 -28 128 -80 -5 -52 -46 -71 -146 -71 -100 1
-142 17 -167 65 -15 29 -18 30 -85 30 -80 0 -83 -5 -51 -75 23 -51 53 -78 116
-107 43 -20 66 -23 170 -23 140 0 204 17 253 68 37 39 52 75 52 128 0 73 -40
135 -105 159 -16 6 -95 20 -175 30 -124 16 -147 22 -162 40 -57 70 37 134 170
116 52 -7 92 -31 107 -64 9 -20 18 -22 82 -22 83 0 86 5 54 68 -25 48 -66 87
-116 108 -57 24 -233 29 -300 8z"/>
<path d="M7973 1876 c-113 -37 -158 -97 -151 -202 7 -111 60 -145 269 -170
158 -19 181 -30 177 -81 -5 -59 -41 -78 -146 -78 -101 1 -142 17 -162 65 -12
30 -13 30 -87 30 l-75 0 6 -32 c11 -58 56 -110 121 -143 57 -29 66 -30 190
-30 122 0 133 2 188 28 74 37 107 89 107 168 0 122 -54 161 -256 185 -71 8
-144 22 -161 29 -28 13 -33 20 -33 49 0 19 7 42 15 50 38 37 162 45 228 15 16
-7 35 -26 43 -41 14 -27 18 -28 89 -28 l74 0 -9 32 c-18 60 -56 105 -116 134
-49 24 -71 28 -163 31 -71 2 -120 -2 -148 -11z"/>
<path d="M860 1865 c-296 -61 -542 -266 -653 -545 -102 -258 -68 -576 87 -808
164 -246 438 -392 736 -392 244 0 444 84 620 260 107 107 165 199 211 333 39
114 49 188 49 367 l0 155 -218 -218 -217 -217 -323 0 -322 0 0 322 0 323 217
217 218 218 -170 -1 c-99 0 -197 -6 -235 -14z"/>
<path d="M1270 1560 l0 -320 320 0 320 0 0 320 0 320 -320 0 -320 0 0 -320z"/>
<path d="M7121 1853 c11 -27 171 -460 191 -515 10 -27 13 -28 80 -28 56 0 69
-3 65 -14 -3 -8 -11 -32 -18 -55 l-12 -41 -124 0 -123 0 0 -60 0 -60 176 2
176 3 134 395 c74 217 134 396 134 398 0 2 -34 2 -76 0 l-75 -3 -90 -273 c-50
-151 -93 -271 -96 -268 -3 3 -47 126 -98 273 l-92 268 -82 3 -81 3 11 -28z"/>
</g>
</svg>
