<?xml version="1.0" encoding="UTF-8"?>
<svg version="1.1" xmlns="http://www.w3.org/2000/svg" width="350" height="61" viewBox="0 0 2137 309">
<path d="M0 0 C705.21 0 1410.42 0 2137 0 C2137 101.97 2137 203.94 2137 309 C1431.79 309 726.58 309 0 309 C0 207.03 0 105.06 0 0 Z " fill="#FEFEFE" transform="translate(0,0)"/>
<path d="M0 0 C239.25 0 478.5 0 725 0 C751.21357277 60.13701987 751.21357277 60.13701987 760.15625 81.046875 C760.61481384 82.11865997 761.07337769 83.19044495 761.5458374 84.29470825 C763.83426054 89.64377408 766.1206754 94.99368065 768.40332031 100.34521484 C772.80608515 110.6520659 777.27853451 120.91965436 781.90231323 131.12937927 C784.98643028 137.94391191 787.95393507 144.80128226 790.875 151.6875 C794.6335294 160.50372219 798.43408326 169.29836946 802.3125 178.0625 C806.5266368 187.59620791 810.6551753 197.16465596 814.75 206.75 C820.83931055 221.00383087 826.99391742 235.22870919 833.17025757 249.44503784 C837.44962081 259.29548354 841.7250181 269.1476522 846 279 C846.37648682 279.8674585 846.75297363 280.73491699 847.14086914 281.62866211 C849.24553264 286.47912882 851.34394796 291.33222708 853.4375 296.1875 C853.92114014 297.30181396 854.40478027 298.41612793 854.90307617 299.56420898 C855.53693237 301.03869507 855.53693237 301.03869507 856.18359375 302.54296875 C856.53993896 303.36821045 856.89628418 304.19345215 857.26342773 305.04370117 C858 307 858 307 858 309 C574.86 309 291.72 309 0 309 C0 207.03 0 105.06 0 0 Z " fill="#071D49" transform="translate(0,0)"/>
<path d="M0 0 C1.70817191 0.00056958 1.70817191 0.00056958 3.45085233 0.00115067 C5.41324892 -0.00183591 5.41324892 -0.00183591 7.41528988 -0.00488281 C8.88619184 -0.00202921 10.35709363 0.0009164 11.82799524 0.00394398 C13.37565861 0.00350841 14.92332191 0.00263378 16.47098482 0.00135481 C20.74432497 -0.00089302 25.01764031 0.00313506 29.2909773 0.00813287 C33.89154804 0.01243308 38.49211727 0.01099126 43.09268945 0.0102306 C51.07029359 0.00970509 59.04788957 0.0128547 67.02549165 0.01846844 C78.55990483 0.0265798 90.09431404 0.02919828 101.62872975 0.03045643 C120.34049378 0.03264752 139.05225347 0.03930916 157.76401514 0.04875904 C175.94565554 0.05793168 194.12729477 0.06500178 212.30893701 0.06926686 C214.00588047 0.06966885 214.00588047 0.06966885 215.73710561 0.07007897 C224.58398159 0.07215827 233.4308576 0.07411524 242.27773362 0.07603353 C285.67558992 0.08547498 329.07343533 0.10559144 372.47129053 0.1241985 C372.47129053 102.0941985 372.47129053 204.0641985 372.47129053 309.1241985 C201.53129053 309.1241985 30.59129053 309.1241985 -145.52870947 309.1241985 C-145.52870947 308.7941985 -145.52870947 308.4641985 -145.52870947 308.1241985 C-144.41495947 307.9179485 -143.30120947 307.7116985 -142.15370947 307.4991985 C-133.75275838 305.36917012 -126.2387448 300.44763901 -121.52870947 293.1241985 C-120.02427075 290.18304497 -118.74732848 287.19261866 -117.52870947 284.1241985 C-117.19870947 283.4641985 -116.86870947 282.8041985 -116.52870947 282.1241985 C-116.45900097 279.8498228 -116.45596458 277.57332048 -116.48207861 275.29802662 C-116.49486202 273.84014371 -116.5073017 272.38225776 -116.51944739 270.92436939 C-116.52736367 270.14848973 -116.53527994 269.37261006 -116.54343611 268.57321888 C-116.58573182 263.56767465 -116.57370744 258.56188625 -116.57354838 253.5561977 C-116.57652466 249.17543201 -116.59669308 244.79610063 -116.65541846 240.4157024 C-117.11257702 204.23561026 -117.11257702 204.23561026 -106.80559546 190.85582691 C-104.76117901 188.0833244 -103.29694338 185.11668143 -101.72792822 182.04997975 C-101.15034765 180.96321949 -100.57276709 179.87645924 -99.97768408 178.75676686 C-99.39639746 177.6611443 -98.81511084 176.56552174 -98.21620947 175.4366985 C-93.58870737 166.73980963 -88.86235991 158.11117665 -83.96620947 149.5616985 C-78.61545716 140.20527249 -73.61711167 130.6927857 -68.69081885 121.10710865 C-63.63344284 111.27785367 -58.37031454 101.57364483 -53.04384619 91.88835865 C-50.35218548 86.97779104 -47.6920545 82.0501629 -45.02870947 77.1241985 C-40.41386055 68.59432135 -35.77670011 60.07697538 -31.12514502 51.56706959 C-27.16460975 44.31183194 -23.25098845 37.03188345 -19.34120947 29.7491985 C-15.35146697 22.32399608 -11.34371657 14.91140089 -7.21620947 7.5616985 C-6.6657395 6.57967457 -6.6657395 6.57967457 -6.10414892 5.57781178 C-3.03330317 0.1489818 -3.03330317 0.1489818 0 0 Z " fill="#FEFEFE" transform="translate(1764.5287094712257,-0.12419849634170532)"/>
<path d="M0 0 C137.94 0 275.88 0 418 0 C415.88689598 1.05655201 413.77070649 2.10783606 411.6328125 3.11328125 C402.35878049 7.54805979 396.38590697 12.55444734 392 22 C389.96579962 28.60268935 389.70899351 34.6723478 389.7215271 41.55395508 C389.7128385 43.27317484 389.7128385 43.27317484 389.70397437 45.02712631 C389.68700332 48.85795668 389.6841003 52.68866636 389.68115234 56.51953125 C389.6729509 59.26945285 389.66177014 62.01936046 389.65071106 64.76927185 C389.62847708 70.68467704 389.61344062 76.60006505 389.60334396 82.51550293 C389.58873556 91.06814273 389.56319271 99.62072263 389.53501268 108.17332721 C389.48958391 122.05059418 389.45295294 135.9278698 389.421875 149.80517578 C389.39167341 163.28273029 389.35729314 176.76026357 389.31738281 190.23779297 C389.31366055 191.49740202 389.31366055 191.49740202 389.30986309 192.78245771 C389.29042245 199.35013191 389.27074007 205.91780539 389.25098133 212.48547864 C389.15425579 244.65695994 389.07860845 276.82845947 389 309 C304.52 309 220.04 309 133 309 C116.4378879 271.45921257 116.4378879 271.45921257 109.5546875 255.30859375 C104.75594204 244.06700289 99.90506016 232.84776318 95.0625 221.625 C94.33747787 219.94457108 94.33747787 219.94457108 93.59780884 218.23019409 C87.11754296 203.21148986 80.62686232 188.19738557 74.1171875 173.19140625 C71.82633993 167.90944235 69.54073294 162.62523826 67.2578125 157.33984375 C59.94381833 140.40798291 52.60572457 123.48701648 45.23022461 106.58184814 C38.9857462 92.26892836 32.76725611 77.94500884 26.56494141 63.61376953 C24.95525538 59.89667552 23.34325065 56.18059514 21.73046875 52.46484375 C19.02782324 46.23776426 16.32956326 40.00879989 13.63476562 33.77832031 C12.51235498 31.18335975 11.38846574 28.58904559 10.26367188 25.99511719 C8.83835749 22.70739564 7.41688254 19.41803799 5.99807739 16.12750244 C5.20287674 14.28561643 4.40408553 12.4452819 3.60522461 10.60498047 C2.89378296 8.95199951 2.89378296 8.95199951 2.16796875 7.265625 C1.74797607 6.29399414 1.3279834 5.32236328 0.89526367 4.32128906 C0 2 0 2 0 0 Z " fill="#FEFEFE" transform="translate(725,0)"/>
<path d="M0 0 C1.29980122 -0.0034177 2.59960244 -0.0068354 3.93879157 -0.01035666 C7.51701843 -0.01923485 11.09475979 -0.00339297 14.67292488 0.01675558 C18.54256893 0.03412051 22.41218827 0.02817752 26.28186035 0.02514648 C32.97649241 0.02305481 39.67096786 0.03554467 46.36556053 0.05809784 C56.04464575 0.09068404 65.72365568 0.10103161 75.40278981 0.10604981 C91.10864204 0.1147921 106.8144109 0.14137869 122.5202179 0.17926025 C137.77184127 0.21600797 153.02344196 0.24430621 168.27510071 0.2612915 C169.21610135 0.2623424 170.157102 0.26339329 171.12661781 0.26447603 C175.84760721 0.26969639 180.56859676 0.27475118 185.28958642 0.27972364 C224.41999159 0.32115248 263.55029297 0.39267702 302.68061829 0.48101807 C302.68061829 17.97101807 302.68061829 35.46101807 302.68061829 53.48101807 C271.00061829 53.48101807 239.32061829 53.48101807 206.68061829 53.48101807 C206.68061829 137.96101807 206.68061829 222.44101807 206.68061829 309.48101807 C124.51061829 309.48101807 42.34061829 309.48101807 -42.31938171 309.48101807 C-42.44037576 239.86910958 -42.44037576 239.86910958 -42.46586609 210.79351807 C-42.47173952 204.13856993 -42.47780092 197.483622 -42.48417664 190.82867432 C-42.48496788 189.99460894 -42.48575913 189.16054357 -42.48657435 188.30120349 C-42.49961489 174.8437276 -42.52326227 161.38629025 -42.5508401 147.9288372 C-42.57891526 134.1132597 -42.59556244 120.29770236 -42.6016472 106.48209751 C-42.60575926 97.96020244 -42.6187372 89.43841627 -42.64313111 80.91655473 C-42.65901437 75.06924448 -42.66377622 69.22199034 -42.65988585 63.37466009 C-42.65796829 60.00326073 -42.66251555 56.63220423 -42.67699814 53.26081276 C-42.69195613 49.59888514 -42.68832273 45.93742085 -42.68014526 42.27548218 C-42.68888379 41.21903602 -42.69762231 40.16258986 -42.70662564 39.07413018 C-42.64335972 28.56949046 -40.19677276 19.57737776 -33.31938171 11.48101807 C-23.76205171 2.05409997 -13.03914914 -0.12686772 0 0 Z " fill="#FDFEFE" transform="translate(1156.3193817138672,-0.48101806640625)"/>
<path d="M0 0 C89.1 0 178.2 0 270 0 C270 0.33 270 0.66 270 1 C269.45472656 1.14695313 268.90945313 1.29390625 268.34765625 1.4453125 C258.33684953 4.42288578 249.86407892 9.91585532 244.78125 19.234375 C241.05634968 27.16309139 240.8497508 34.5985324 240.84178162 43.23751831 C240.83684364 44.37378886 240.83190566 45.51005942 240.82681805 46.68076241 C240.81145371 50.49013572 240.80308525 54.29949218 240.79467773 58.10888672 C240.78564316 60.83880482 240.77513135 63.56871677 240.76467896 66.29862976 C240.74294491 72.17696305 240.72478922 78.05529863 240.70907402 83.93365097 C240.68634738 92.43272809 240.65820845 100.93178054 240.62875474 109.43083669 C240.58111307 123.22048178 240.53783962 137.01013698 240.49731445 150.79980469 C240.45794209 164.19401842 240.41650048 177.58822313 240.37231445 190.98242188 C240.36956495 191.81666223 240.36681544 192.65090258 240.36398262 193.51042295 C240.34246307 200.03487268 240.32082362 206.55932202 240.29914629 213.08377123 C240.19295059 245.05582929 240.09721104 277.02791092 240 309 C160.8 309 81.6 309 0 309 C0 207.03 0 105.06 0 0 Z " fill="#FEFEFE" transform="translate(0,0)"/>
<path d="M0 0 C1.44795959 0.00424484 1.44795959 0.00424484 2.9251709 0.00857544 C5.98149478 0.01969126 9.03751601 0.04477965 12.09375 0.0703125 C14.17707907 0.08035342 16.26041278 0.08947732 18.34375 0.09765625 C23.42719837 0.11960239 28.51042303 0.15407233 33.59375 0.1953125 C39.26471274 13.19344126 44.93176991 26.1932682 50.59375 39.1953125 C50.89468567 39.88633057 51.19562134 40.57734863 51.50567627 41.28930664 C57.2964578 54.58883134 63.04607119 67.90520552 68.75 81.2421875 C69.20856384 82.31397247 69.66712769 83.38575745 70.1395874 84.49002075 C72.42801054 89.83908658 74.7144254 95.18899315 76.99707031 100.54052734 C81.39983515 110.8473784 85.87228451 121.11496686 90.49606323 131.32469177 C93.58018028 138.13922441 96.54768507 144.99659476 99.46875 151.8828125 C103.2272794 160.69903469 107.02783326 169.49368196 110.90625 178.2578125 C115.1203868 187.79152041 119.2489253 197.35996846 123.34375 206.9453125 C129.43306055 221.19914337 135.58766742 235.42402169 141.76400757 249.64035034 C146.04337081 259.49079604 150.3187681 269.3429647 154.59375 279.1953125 C154.97023682 280.062771 155.34672363 280.93022949 155.73461914 281.82397461 C157.83928264 286.67444132 159.93769796 291.52753958 162.03125 296.3828125 C162.51489014 297.49712646 162.99853027 298.61144043 163.49682617 299.75952148 C163.91939697 300.74251221 164.34196777 301.72550293 164.77734375 302.73828125 C165.13368896 303.56352295 165.49003418 304.38876465 165.85717773 305.23901367 C166.59375 307.1953125 166.59375 307.1953125 166.59375 309.1953125 C57.69375 309.1953125 -51.20625 309.1953125 -163.40625 309.1953125 C-161.4812448 303.42029691 -159.56660973 297.99359777 -157.0703125 292.49609375 C-156.75473892 291.79129883 -156.43916534 291.08650391 -156.11402893 290.36035156 C-155.43957709 288.85487816 -154.76329121 287.35022524 -154.08529663 285.84634399 C-152.27560994 281.83133252 -150.48027067 277.80990836 -148.68359375 273.7890625 C-148.32052628 272.97738113 -147.9574588 272.16569977 -147.58338928 271.329422 C-144.19591746 263.74691921 -140.88299031 256.13333781 -137.59375 248.5078125 C-131.09684975 233.4602215 -124.50054542 218.45785422 -117.87437439 203.46681213 C-116.34281177 200.0015424 -114.81183622 196.53601361 -113.28125 193.0703125 C-112.81016312 192.00364853 -112.81016312 192.00364853 -112.32955933 190.91543579 C-107.21723623 179.33585102 -102.14600432 167.7387178 -97.09375 156.1328125 C-91.17657943 142.5405181 -85.24152424 128.95626637 -79.28125 115.3828125 C-78.90532715 114.52665344 -78.5294043 113.67049438 -78.14208984 112.78839111 C-74.23493502 103.89154056 -70.3217026 94.99740952 -66.39453125 86.109375 C-66.0752919 85.38676987 -65.75605255 84.66416473 -65.42713928 83.91966248 C-64.17490837 81.08545363 -62.92263731 78.25126346 -61.6690979 75.41763306 C-58.36738365 67.95316043 -55.08711592 60.48063475 -51.8671875 52.98046875 C-32.91338706 8.83243044 -32.91338706 8.83243044 -18.40625 2.1953125 C-12.14150214 0.29799631 -6.52144708 -0.07308002 0 0 Z " fill="#071D49" transform="translate(691.40625,-0.1953125)"/>
<path d="M0 0 C7.70764838 4.24772335 14.01136542 10.45572295 20.14453125 16.6796875 C20.88646225 17.42444839 21.62839325 18.16920929 22.39280701 18.9365387 C24.73020838 21.28501495 27.06050665 23.64039357 29.390625 25.99609375 C30.987163 27.60267796 32.58416415 29.20880207 34.18164062 30.81445312 C38.06916575 34.72386993 41.95090508 38.63895779 45.828125 42.55859375 C50.80657261 38.39921315 55.42242023 34.05239859 59.94140625 29.40234375 C61.28535239 28.03601074 62.62976811 26.67013948 63.97460938 25.3046875 C66.05912513 23.1831714 68.1403995 21.05882571 70.21362305 18.92626953 C81.67424494 7.1542842 91.1537228 -2.04733199 108.265625 -2.81640625 C127.62415063 -2.43682732 141.86220818 16.44477655 154.453125 29.12109375 C155.75627446 30.42927155 157.0596583 31.73721592 158.36328125 33.04492188 C161.52093292 36.21346589 164.6754125 39.38513552 167.828125 42.55859375 C172.88294527 38.3452307 177.52752059 33.92065854 182.08984375 29.18359375 C183.46992678 27.77137632 184.85081167 26.35994214 186.23242188 24.94921875 C188.3745449 22.75789372 190.51173053 20.56264475 192.63549805 18.35351562 C203.44739897 7.1264959 212.95175603 -2.23489524 229.390625 -2.81640625 C238.50255716 -2.69342312 245.83994821 0.41740786 252.51855469 6.59033203 C253.81496887 7.78786102 253.81496887 7.78786102 255.13757324 9.00958252 C262.84678407 16.3132387 270.3762704 23.79922533 277.90625 31.28662109 C280.02112027 33.3881154 282.14304512 35.48207548 284.27148438 37.56982422 C286.87497147 40.12360088 289.46559601 42.68980396 292.04787445 45.26501846 C293.48754695 46.69487615 294.93931273 48.11252535 296.39141846 49.52975464 C304.8477226 58.01319244 310.93023841 66.46331615 310.95254517 78.70433044 C310.94894989 79.52216507 310.94535461 80.33999969 310.94165039 81.18261719 C310.94179642 82.05126907 310.94194244 82.91992096 310.9420929 83.81489563 C310.94139691 86.68261218 310.93361915 89.55026356 310.92578125 92.41796875 C310.92391596 94.40765345 310.92249258 96.3973386 310.92149353 98.38702393 C310.91767712 103.62145254 310.90785429 108.85585336 310.89678955 114.090271 C310.88655662 119.43257267 310.88199187 124.77487884 310.87695312 130.1171875 C310.86623126 140.59766845 310.84916532 151.07812879 310.828125 161.55859375 C268.97532771 161.62728349 227.12253693 161.68013454 185.26969443 161.71178974 C180.32685023 161.71554179 175.38400614 161.71942476 170.44116211 161.72338867 C169.45714465 161.7241756 168.47312719 161.72496253 167.45929102 161.72577331 C151.53318377 161.73882173 135.60710907 161.76247247 119.68102112 161.79005214 C103.33534066 161.81812202 86.98967722 161.83477336 70.64397365 161.84085923 C60.56051255 161.84497239 50.47714343 161.8579563 40.39371065 161.88234315 C33.47599993 161.89821987 26.55833666 161.90298972 19.64060905 161.89909788 C15.65143335 161.89717935 11.66241822 161.90008841 7.67327118 161.91621017 C4.01555815 161.930884 0.35811259 161.93149804 -3.29961314 161.92129043 C-5.23804272 161.91943663 -7.17646948 161.93230813 -9.11485273 161.94583768 C-28.27168725 161.84815593 -37.28360744 153.76558951 -50.1875 140.87890625 C-51.33219507 139.74065169 -52.47703411 138.6025419 -53.62200928 137.46456909 C-56.00904267 135.08944719 -58.39197185 132.71029332 -60.77246094 130.32861328 C-63.81070145 127.29016908 -66.86250228 124.26575018 -69.91797256 121.24464607 C-72.28241371 118.90251972 -74.63763022 116.55128025 -76.99040985 114.19744492 C-78.11143993 113.07876081 -79.23568194 111.96328509 -80.36328888 110.85123062 C-86.07004076 105.21592016 -91.17565375 100.15680843 -94.171875 92.55859375 C-94.57664062 91.54152344 -94.98140625 90.52445312 -95.3984375 89.4765625 C-97.89445056 80.05978595 -96.76642989 70.09412717 -92.171875 61.55859375 C-90.33932495 59.25569153 -90.33932495 59.25569153 -88.19873047 56.93676758 C-87.39570496 56.06670074 -86.59267944 55.19663391 -85.76531982 54.30020142 C-78.16601156 46.26674661 -70.37964316 38.41852256 -62.58935547 30.57104492 C-60.38964885 28.35346712 -58.19880481 26.12765797 -56.01513672 23.89428711 C-53.34684097 21.16540196 -50.66374138 18.45190863 -47.9698143 15.74833107 C-46.95769397 14.72773869 -45.95064825 13.70208395 -44.94922256 12.67099571 C-32.27861883 -0.35494073 -17.80887467 -6.46289807 0 0 Z " fill="#D91B83" transform="translate(1826.171875,147.44140625)"/>
<path d="M0 0 C65.34 0 130.68 0 198 0 C195.88689598 1.05655201 193.77070649 2.10783606 191.6328125 3.11328125 C182.35878049 7.54805979 176.38590697 12.55444734 172 22 C169.96579962 28.60268935 169.70899351 34.6723478 169.7215271 41.55395508 C169.7128385 43.27317484 169.7128385 43.27317484 169.70397437 45.02712631 C169.68700332 48.85795668 169.6841003 52.68866636 169.68115234 56.51953125 C169.6729509 59.26945285 169.66177014 62.01936046 169.65071106 64.76927185 C169.62847708 70.68467704 169.61344062 76.60006505 169.60334396 82.51550293 C169.58873556 91.06814273 169.56319271 99.62072263 169.53501268 108.17332721 C169.48958391 122.05059418 169.45295294 135.9278698 169.421875 149.80517578 C169.39167341 163.28273027 169.35731575 176.76026364 169.31738281 190.23779297 C169.31492126 191.06906295 169.31245972 191.90033293 169.30992357 192.7567929 C169.29754866 196.92718391 169.28509219 201.09757467 169.27259517 205.26796532 C169.16908601 239.84528187 169.08040738 274.42262246 169 309 C157.45 309 145.9 309 134 309 C134 291.18 134 273.36 134 255 C89.78 255 45.56 255 0 255 C0 170.85 0 86.7 0 0 Z " fill="#FEFEFE" transform="translate(945,0)"/>
<path d="M0 0 C94.71 0 189.42 0 287 0 C282.91244423 8.17511155 278.85133959 16.26423132 274.4375 24.25 C273.39386188 26.15067428 272.35092323 28.05173275 271.30859375 29.953125 C270.76960449 30.93603516 270.23061523 31.91894531 269.67529297 32.93164062 C266.75832077 38.27418021 263.88055591 43.63776489 261 49 C256.21161406 57.90832079 251.39110322 66.79808931 246.5390625 75.671875 C242.66400417 82.76589714 238.82734377 89.88013778 235 97 C230.69199435 105.01401924 226.36497875 113.01686593 222 121 C217.05717084 130.04109683 212.163823 139.108165 207.28344727 148.18310547 C202.29438919 157.45878859 197.28310939 166.72225565 192.26171875 175.98046875 C189.94600922 180.25078694 187.63728072 184.52480759 185.33203125 188.80078125 C184.73269775 189.91114746 184.13336426 191.02151367 183.51586914 192.16552734 C182.35870702 194.30962892 181.20289532 196.45445997 180.04858398 198.60009766 C179.53239502 199.55577637 179.01620605 200.51145508 178.484375 201.49609375 C178.02772461 202.34357178 177.57107422 203.1910498 177.10058594 204.06420898 C176 206 176 206 175 207 C174.89686767 209.28331741 174.86425774 211.56983155 174.8581543 213.85546875 C174.85467987 214.57267593 174.85120544 215.28988312 174.84762573 216.02882385 C174.84025405 217.59265359 174.83491623 219.1564939 174.83133507 220.72033691 C174.82417883 223.20133963 174.8085152 225.68214349 174.78999329 228.16308594 C174.73750954 235.21953466 174.68962016 242.27588019 174.67407227 249.33251953 C174.66394501 253.64570623 174.63449195 257.95840111 174.59275246 262.27139282 C174.58049491 263.9106574 174.57531156 265.54999166 174.57755089 267.18930054 C174.59444792 283.60927516 174.59444792 283.60927516 170 291 C169.29617188 292.19689453 169.29617188 292.19689453 168.578125 293.41796875 C163.29820068 300.45269145 156.08299876 306.7417655 147.25341797 308.56811523 C143.81664216 309.02434039 140.53664017 309.11299398 137.0703125 309.09765625 C135.78125 309.09443359 134.4921875 309.09121094 133.1640625 309.08789062 C131.81770764 309.07953733 130.47135348 309.07107241 129.125 309.0625 C127.75520996 309.0574783 126.38541815 309.05291657 125.015625 309.04882812 C121.6770381 309.03707254 118.33854185 309.02063964 115 309 C115.00079559 307.7693985 115.00159119 306.538797 115.00241089 305.27090454 C115.00602025 293.64806846 114.97811842 282.02567359 114.9197216 270.4029789 C114.8907052 264.42821507 114.87261764 258.45384251 114.87988281 252.47900391 C114.88649176 246.70801636 114.86390085 240.93780091 114.82144547 235.16697311 C114.81034227 232.97030767 114.80958878 230.77356366 114.81957626 228.57689285 C115.21650185 212.68098179 115.21650185 212.68098179 108 199 C103.89167194 191.74893106 100.07647172 184.33985131 96.25 176.9375 C92.22931638 169.19564474 88.12306889 161.51601217 83.85375977 153.90869141 C80.39825027 147.74539965 77.03813278 141.53332934 73.6875 135.3125 C69.40143995 127.36427614 65.03143354 119.47178966 60.5625 111.625 C55.23841388 102.27353421 50.1028128 92.83025468 45.02197266 83.34472656 C41.32486877 76.44608144 37.57202093 69.58375912 33.75048828 62.75341797 C30.33632815 56.63840093 27.00998927 50.47770558 23.6875 44.3125 C18.17500369 34.09387402 12.51427003 23.96520232 6.77734375 13.87109375 C6.30280762 13.03562012 5.82827148 12.20014648 5.33935547 11.33935547 C4.48294276 9.84352125 3.6181597 8.3524285 2.74267578 6.86767578 C0 2.20115903 0 2.20115903 0 0 Z " fill="#071C49" transform="translate(1475,0)"/>
<path d="M0 0 C70.29 0 140.58 0 213 0 C213 17.16 213 34.32 213 52 C162.18 52 111.36 52 59 52 C59 79.39 59 106.78 59 135 C105.2 135 151.4 135 199 135 C199 152.16 199 169.32 199 187 C153.13 187 107.26 187 60 187 C60 227.26 60 267.52 60 309 C40.2 309 20.4 309 0 309 C0 207.03 0 105.06 0 0 Z " fill="#071C49" transform="translate(0,0)"/>
<path d="M0 0 C1.37491973 -0.00256327 1.37491973 -0.00256327 2.77761561 -0.00517833 C5.83770982 -0.00846292 8.89758297 0.00251351 11.95765686 0.01345825 C14.15570572 0.01402259 16.35375495 0.01370537 18.55180359 0.01257324 C24.51197588 0.01199961 30.4720676 0.02375578 36.43222117 0.03772116 C42.66356037 0.05022663 48.89490142 0.05139887 55.12625122 0.05377197 C65.58292508 0.05928119 76.03957138 0.07177224 86.49623108 0.08963013 C97.26445875 0.10800093 108.03267839 0.12215155 118.80091858 0.13064575 C119.46517953 0.1311712 120.12944048 0.13169665 120.81383055 0.13223802 C124.14638395 0.13484818 127.4789374 0.13737106 130.81149089 0.13986182 C158.43844456 0.16076495 186.06534738 0.19744186 213.692276 0.24050903 C213.692276 17.73050903 213.692276 35.22050903 213.692276 53.24050903 C182.012276 53.24050903 150.332276 53.24050903 117.692276 53.24050903 C117.692276 137.72050903 117.692276 222.20050903 117.692276 309.24050903 C97.892276 309.24050903 78.092276 309.24050903 57.692276 309.24050903 C57.692276 224.76050903 57.692276 140.28050903 57.692276 53.24050903 C25.682276 53.24050903 -6.327724 53.24050903 -39.307724 53.24050903 C-39.307724 21.41524801 -39.307724 21.41524801 -29.057724 10.42800903 C-20.59143308 2.62429741 -11.25145478 -0.0773611 0 0 Z " fill="#081D4A" transform="translate(1245.3077239990234,-0.240509033203125)"/>
<path d="M0 0 C55.44 0 110.88 0 168 0 C168 0.33 168 0.66 168 1 C167.38253906 1.14695313 166.76507812 1.29390625 166.12890625 1.4453125 C155.67479852 4.2139803 148.85057501 8.91536763 143 18 C141.07191338 21.61219559 139.40057621 25.31665647 137.75 29.0625 C137.27820313 30.11252197 136.80640625 31.16254395 136.3203125 32.24438477 C134.86707218 35.49061862 133.43031385 38.74360584 132 42 C131.57138672 42.97549805 131.14277344 43.95099609 130.70117188 44.95605469 C128.62027485 49.70564516 126.55563777 54.46208437 124.5 59.22265625 C122.02541899 64.95138837 119.51696555 70.66478474 117 76.375 C116.0715654 78.48305126 115.14318278 80.59112541 114.21484375 82.69921875 C113.70937012 83.84696777 113.20389648 84.9947168 112.68310547 86.17724609 C109.30638279 93.84592983 105.93299523 101.51607719 102.5625 109.1875 C102.18245819 110.05246094 101.80241638 110.91742188 101.41085815 111.80859375 C95.2586597 125.81513918 89.15270604 139.84140745 83.0625 153.875 C76.14280492 169.81985972 69.15998994 185.73538414 62.12088013 201.62786865 C56.18967054 215.02001748 50.31106637 228.43393365 44.47128296 241.86618042 C37.76048525 257.29808432 30.96783947 272.69329419 24.15429688 288.08007812 C23.76539276 288.95857422 23.37648865 289.83707031 22.97579956 290.7421875 C22.25188037 292.37714168 21.5275666 294.01192124 20.80276489 295.64648438 C20.47678314 296.38253906 20.15080139 297.11859375 19.81494141 297.87695312 C19.53534576 298.50766724 19.25575012 299.13838135 18.96768188 299.78820801 C17.6275929 302.85119611 16.31699509 305.92701147 15 309 C0.15 309 -14.7 309 -30 309 C-30 308.67 -30 308.34 -30 308 C-29.38253906 307.85304688 -28.76507813 307.70609375 -28.12890625 307.5546875 C-17.96835423 304.86376505 -10.38349051 300.17276924 -5 291 C-1.42765632 283.31662416 -0.41933669 276.45194042 -0.48101807 268.0473175 C-0.47351681 266.89452417 -0.46601556 265.74173084 -0.458287 264.55400437 C-0.43810178 260.71851495 -0.44609494 256.88362185 -0.45410156 253.0480957 C-0.44757214 250.28786923 -0.4350485 247.52767743 -0.42277527 244.76747131 C-0.39953243 238.83899169 -0.39071164 232.91063414 -0.39188385 226.98211098 C-0.39355748 218.4106533 -0.37317384 209.83935773 -0.34752855 201.2679434 C-0.3065073 187.35905676 -0.28314984 173.4501994 -0.27099609 159.54125977 C-0.25915677 146.03569723 -0.23889372 132.53019006 -0.20751953 119.0246582 C-0.20460126 117.76172889 -0.20460126 117.76172889 -0.20162404 116.47328585 C-0.18634178 109.88796891 -0.17057336 103.30265315 -0.1546514 96.71733773 C-0.07682812 64.47823418 -0.04138272 32.23921071 0 0 Z " fill="#FDFDFE" transform="translate(513,0)"/>
<path d="M0 0 C0 84.15 0 168.3 0 255 C44.22 255 88.44 255 134 255 C134 272.82 134 290.64 134 309 C70.31 309 6.62 309 -59 309 C-59.1613254 239.17747224 -59.1613254 239.17747224 -59.1953125 210.00585938 C-59.20314366 203.32901978 -59.21122549 196.65218057 -59.21972656 189.9753418 C-59.22078156 189.13854124 -59.22183655 188.30174068 -59.22292352 187.43958253 C-59.24030745 173.94074091 -59.27183536 160.44196764 -59.30861118 146.94316652 C-59.3460544 133.08351557 -59.36824299 119.22390034 -59.37635398 105.36420089 C-59.38183475 96.81616896 -59.39912768 88.26833016 -59.43166587 79.72035769 C-59.45285552 73.85387501 -59.45919001 67.98749176 -59.45400551 62.12097361 C-59.45145055 58.73923368 -59.45749517 55.35810131 -59.4768219 51.97637558 C-59.49679081 48.30154478 -59.49191294 44.62753317 -59.48101807 40.9526825 C-59.49266943 39.89525823 -59.5043208 38.83783396 -59.51632524 37.74836653 C-59.4264441 26.49372282 -56.11955461 18.21656029 -48.29296875 10.16015625 C-34.12932498 -3.18310611 -20.39256265 0 0 0 Z " fill="#071D49" transform="translate(945,0)"/>
<path d="M0 0 C2.3805542 1.89675903 2.3805542 1.89675903 4.69042969 4.03173828 C5.55470581 4.83009094 6.41898193 5.6284436 7.30944824 6.45098877 C15.01865907 13.75464495 22.5481454 21.24063158 30.078125 28.72802734 C32.19299527 30.82952165 34.31492012 32.92348173 36.44335938 35.01123047 C39.04684647 37.56500713 41.63747101 40.13121021 44.21974945 42.70642471 C45.65942195 44.1362824 47.11118773 45.5539316 48.56329346 46.97116089 C57.0195976 55.45459869 63.10211341 63.9047224 63.12442017 76.14573669 C63.12082489 76.96357132 63.11722961 77.78140594 63.11352539 78.62402344 C63.11367142 79.49267532 63.11381744 80.36132721 63.1139679 81.25630188 C63.11327191 84.12401843 63.10549415 86.99166981 63.09765625 89.859375 C63.09579096 91.8490597 63.09436758 93.83874485 63.09336853 95.82843018 C63.08955212 101.06285879 63.07972929 106.29725961 63.06866455 111.53167725 C63.05843162 116.87397892 63.05386687 122.21628509 63.04882812 127.55859375 C63.03810626 138.0390747 63.02104032 148.51953504 63 159 C51.71627402 159.09297124 40.43264024 159.16390223 29.14860821 159.20724869 C23.90809721 159.2280603 18.66784966 159.25625986 13.42749023 159.30175781 C8.36352283 159.34544559 3.2998077 159.36918536 -1.76433372 159.37950897 C-3.68950556 159.38685936 -5.61466469 159.4012123 -7.53972816 159.42292023 C-22.80288158 159.58807886 -34.44893762 158.39212477 -45.93823242 147.27294922 C-47.41565665 145.78850026 -48.88780797 144.29879021 -50.35546875 142.8046875 C-51.13892166 142.01603302 -51.92237457 141.22737854 -52.72956848 140.41482544 C-55.22037039 137.90627899 -57.70435229 135.39112156 -60.1875 132.875 C-62.68223498 130.35263385 -65.17842318 127.83174985 -67.67756653 125.31375122 C-69.22956825 123.74950521 -70.77888888 122.18259358 -72.32524109 120.61276245 C-73.02639542 119.90507721 -73.72754974 119.19739197 -74.44995117 118.46826172 C-75.06472824 117.84523163 -75.67950531 117.22220154 -76.31291199 116.58029175 C-78.11800874 114.80289917 -78.11800874 114.80289917 -81 113 C-80.5153125 112.59910156 -80.030625 112.19820313 -79.53125 111.78515625 C-70.84331556 104.41711954 -61.22867762 95.93261065 -59.75 83.97900391 C-58.8471292 71.39242063 -61.06240509 61.99973296 -69 52 C-72.227064 48.5510452 -75.57027727 45.24671381 -79 42 C-77.6188363 38.90827105 -76.02112097 36.75272298 -73.65869141 34.33642578 C-72.63589584 33.28480759 -72.63589584 33.28480759 -71.59243774 32.21194458 C-70.85294891 31.46395599 -70.11346008 30.71596741 -69.3515625 29.9453125 C-68.58379486 29.16614471 -67.81602722 28.38697693 -67.0249939 27.584198 C-65.39532287 25.9356375 -63.76272532 24.28996563 -62.12744141 22.64697266 C-59.65480888 20.15504154 -57.20437918 17.64260445 -54.75390625 15.12890625 C-39.14068041 -0.69541101 -22.03354515 -12.4038455 0 0 Z " fill="#E67821" transform="translate(2074,150)"/>
<path d="M0 0 C1.39515633 0.02011855 2.79034104 0.03835975 4.18554688 0.0546875 C7.56194067 0.10141959 10.93683806 0.16692645 14.3125 0.25 C14.40409586 35.87749726 14.47455919 71.50497385 14.51676132 107.13256466 C14.52176402 111.34065528 14.52694132 115.54874566 14.53222656 119.75683594 C14.5332758 120.59457558 14.53432505 121.43231523 14.53540608 122.29544093 C14.55280173 135.85226061 14.58433478 149.40901231 14.62111118 162.96579169 C14.65854401 176.88080843 14.6807408 190.79578962 14.68885398 204.71085465 C14.6943369 213.29420496 14.71164157 221.87736308 14.74416587 230.46065421 C14.76534268 236.35002325 14.7716929 242.23929323 14.76650551 248.12869756 C14.76394857 251.52448955 14.7700125 254.91967641 14.7893219 258.31545448 C14.80926471 262.00377183 14.80442238 265.69127131 14.79351807 269.37960815 C14.80516943 270.44383621 14.8168208 271.50806427 14.82882524 272.60454166 C14.74612808 282.97512625 11.4146035 291.62181476 4.3125 299.25 C-5.82726015 308.69046635 -16.56610568 309.82248916 -29.8125 309.5 C-31.26039177 309.47989039 -32.70831073 309.46164755 -34.15625 309.4453125 C-37.66724127 309.40170153 -41.1771912 309.3329257 -44.6875 309.25 C-44.75619773 273.87727968 -44.80904483 238.50457289 -44.84069599 203.13179988 C-44.84444801 198.9537519 -44.84833099 194.77570404 -44.85229492 190.59765625 C-44.85308185 189.76589783 -44.85386878 188.93413942 -44.85467956 188.0771762 C-44.86772609 174.61737006 -44.89137578 161.15760243 -44.91895839 147.69781913 C-44.94703355 133.88224164 -44.96368072 120.06668429 -44.96976548 106.25107944 C-44.97387755 97.72918438 -44.98685549 89.20739821 -45.0112494 80.68553667 C-45.02713265 74.83822641 -45.03189451 68.99097228 -45.02800413 63.14364202 C-45.02608658 59.77224267 -45.03063383 56.40118616 -45.04511642 53.02979469 C-45.06007442 49.36786708 -45.05644102 45.70640278 -45.04826355 42.04446411 C-45.05700207 40.98801795 -45.0657406 39.93157179 -45.07474393 38.84311211 C-45.011478 28.33847239 -42.56489104 19.3463597 -35.6875 11.25 C-25.34501054 1.04863613 -14.01577612 -0.35555158 0 0 Z " fill="#061C48" transform="translate(1158.6875,-0.25)"/>
<path d="M0 0 C8.1871347 4.51197064 14.76600594 11.21841997 21.28125 17.81640625 C22.1444989 18.68248505 23.0077478 19.54856384 23.89715576 20.44088745 C26.62892241 23.18375281 29.35362645 25.93351079 32.078125 28.68359375 C33.92140807 30.53692285 35.76515398 32.38979174 37.609375 34.2421875 C41.70950202 38.36206465 45.80612646 42.48536154 49.89538574 46.61602783 C51.51978357 48.24868462 53.15872468 49.86427745 54.80371094 51.47607422 C56.70920149 53.43625686 57.80314817 55.04274153 58.828125 57.55859375 C59.488125 57.55859375 60.148125 57.55859375 60.828125 57.55859375 C65.51948245 64.5537428 67.47244992 70.60135962 67.640625 78.93359375 C67.67607422 79.67456299 67.71152344 80.41553223 67.74804688 81.17895508 C67.60286473 94.20486437 58.76324715 104.67316937 49.94867516 113.30041504 C49.15230361 114.077901 49.15230361 114.077901 48.33984375 114.87109375 C47.22912678 115.97889603 46.11968088 117.08797399 45.01142883 118.19824219 C42.70495576 120.50152802 40.38726769 122.79262759 38.05981445 125.07470703 C35.09922492 127.9784681 32.1636463 130.90604146 29.23547649 133.842453 C26.95339594 136.12734941 24.66117705 138.40184743 22.36561012 140.67318726 C21.28005238 141.74864421 20.19692644 142.82656235 19.1164608 143.90713501 C9.6857276 153.31282191 0.44306001 161.38082023 -13.421875 161.87109375 C-30.08797612 161.48244667 -39.04259784 152.008945 -50.1875 140.87890625 C-51.33219507 139.74065169 -52.47703411 138.6025419 -53.62200928 137.46456909 C-56.00904267 135.08944719 -58.39197185 132.71029332 -60.77246094 130.32861328 C-63.81070145 127.29016908 -66.86250228 124.26575018 -69.91797256 121.24464607 C-72.28241371 118.90251972 -74.63763022 116.55128025 -76.99040985 114.19744492 C-78.11143993 113.07876081 -79.23568194 111.96328509 -80.36328888 110.85123062 C-86.07004076 105.21592016 -91.17565375 100.15680843 -94.171875 92.55859375 C-94.57664062 91.54152344 -94.98140625 90.52445312 -95.3984375 89.4765625 C-97.89445056 80.05978595 -96.76642989 70.09412717 -92.171875 61.55859375 C-90.33932495 59.25569153 -90.33932495 59.25569153 -88.19873047 56.93676758 C-87.39570496 56.06670074 -86.59267944 55.19663391 -85.76531982 54.30020142 C-78.16601156 46.26674661 -70.37964316 38.41852256 -62.58935547 30.57104492 C-60.38964885 28.35346712 -58.19880481 26.12765797 -56.01513672 23.89428711 C-53.34684097 21.16540196 -50.66374138 18.45190863 -47.9698143 15.74833107 C-46.95769397 14.72773869 -45.95064825 13.70208395 -44.94922256 12.67099571 C-32.27861883 -0.35494073 -17.80887467 -6.46289807 0 0 Z " fill="#93328F" transform="translate(1826.171875,147.44140625)"/>
<path d="M0 0 C52.47 0 104.94 0 159 0 C159 69.96 159 139.92 159 212 C155.81410471 208.81410471 153.16203218 206.09486437 150.50390625 202.5859375 C149.55354492 201.33586914 149.55354492 201.33586914 148.58398438 200.06054688 C147.91689453 199.17431641 147.24980469 198.28808594 146.5625 197.375 C145.85802734 196.44494141 145.15355469 195.51488281 144.42773438 194.55664062 C139.32432595 187.80253406 134.29392505 180.99637947 129.29125977 174.16748047 C124.92913582 168.22523395 120.48021764 162.35358574 116 156.5 C110.25788261 148.99644184 104.60169569 141.43690993 99.01220703 133.8190918 C93.39874459 126.16940485 87.70576862 118.58095764 82 111 C75.02134768 101.72782808 68.09090252 92.4230144 61.21582031 83.07373047 C56.00565751 75.9941739 50.73960961 68.95785038 45.45458984 61.93408203 C43.51983141 59.36154824 41.58863094 56.78635595 39.65771484 54.2109375 C38.67257269 52.89697839 37.68721899 51.58317786 36.70166016 50.26953125 C33.95610959 46.60997463 31.2129942 42.9486181 28.47265625 39.28515625 C27.23186171 37.62753614 25.99097481 35.96998516 24.75 34.3125 C24.13261963 33.4872583 23.51523926 32.6620166 22.87915039 31.81176758 C19.45375554 27.24179064 16.00397539 22.69221378 12.5234375 18.1640625 C11.42177246 16.72873169 11.42177246 16.72873169 10.29785156 15.2644043 C8.87369042 13.41155465 7.44607504 11.56135378 6.01464844 9.71411133 C5.37301758 8.87904053 4.73138672 8.04396973 4.0703125 7.18359375 C3.50070801 6.44681396 2.93110352 5.71003418 2.34423828 4.95092773 C1 3 1 3 0 0 Z " fill="#FDFDFE" transform="translate(297,0)"/>
<path d="M0 0 C3.74066405 3.74066405 6.73362403 7.21136083 9.6875 11.5 C13.3291466 16.69254203 17.08549962 21.76239338 20.98071289 26.76953125 C24.61012826 31.45425932 28.12302267 36.21950748 31.625 41 C36.75420217 47.99963615 41.97203593 54.92441497 47.25 61.8125 C51.99574377 68.00873662 56.6545819 74.24064237 61.14257812 80.62548828 C65.54319952 86.84399405 70.20347725 92.86366787 74.8359375 98.91015625 C79.87080364 105.49131086 84.80656864 112.13790475 89.70117188 118.82373047 C94.14427709 124.87689396 98.68342565 130.8520989 103.25 136.8125 C108.13818215 143.19393884 112.93431387 149.61722005 117.56445312 156.18798828 C120.59107748 160.46977157 123.75779373 164.62637512 126.97680664 168.76464844 C131.28465962 174.32284767 135.42993652 179.99767945 139.58544922 185.67016602 C144.32881806 192.12890409 149.17515848 198.50317024 154.08911133 204.83300781 C158 209.89567065 158 209.89567065 158 211 C105.86 211 53.72 211 0 211 C0 141.37 0 71.74 0 0 Z " fill="#FEFEFE" transform="translate(299,98)"/>
<path d="M0 0 C55.11 0 110.22 0 167 0 C160.21875 13.5625 160.21875 13.5625 156.5 19.6875 C152.19783771 26.88457524 148.07802676 34.17385105 144 41.5 C139.67280581 49.26647662 135.28771773 56.98589044 130.74682617 64.62915039 C126.78492038 71.31721897 122.977603 78.08999707 119.16552734 84.86425781 C115.01458871 92.23057644 110.80040356 99.55842285 106.5625 106.875 C99.24620643 119.51249456 92.09870386 132.23921503 85 145 C82.32186248 142.5849251 80.6956489 139.98947088 78.91796875 136.86328125 C78.32306641 135.82365234 77.72816406 134.78402344 77.11523438 133.71289062 C76.16100586 132.02969727 76.16100586 132.02969727 75.1875 130.3125 C74.17347826 128.53666257 73.15769471 126.76184016 72.14187622 124.98703003 C71.44753409 123.77358226 70.75375275 122.55981345 70.06051636 121.34573364 C66.74508084 115.54150717 63.37689501 109.7686609 60 104 C53.18880817 92.34658214 46.44535458 80.65456615 39.70605469 68.95947266 C29.62226673 51.46724632 19.52137587 33.98158224 9.21875 16.6171875 C8.61530762 15.59987549 8.01186523 14.58256348 7.39013672 13.53442383 C6.23237037 11.58511681 5.07260713 9.63699414 3.91064453 7.69018555 C3.39614746 6.82433838 2.88165039 5.95849121 2.3515625 5.06640625 C1.89604004 4.30271729 1.44051758 3.53902832 0.97119141 2.75219727 C0 1 0 1 0 0 Z " fill="#FDFEFE" transform="translate(1535,0)"/>
<path d="M0 0 C49.83 0 99.66 0 151 0 C157.75 13.5 157.75 13.5 159.89453125 18.7421875 C160.60947754 20.47988403 160.60947754 20.47988403 161.33886719 22.25268555 C162.06831543 24.0457312 162.06831543 24.0457312 162.8125 25.875 C163.33068934 27.14053052 163.84924937 28.40590931 164.36816406 29.67114258 C165.41195063 32.21782393 166.45318596 34.7655269 167.49267578 37.31396484 C168.91105329 40.78248827 170.34148126 44.24571592 171.77734375 47.70703125 C172.60164853 49.70048526 173.42587241 51.69397273 174.25 53.6875 C174.63260986 54.60708496 175.01521973 55.52666992 175.40942383 56.47412109 C175.75384521 57.31152832 176.0982666 58.14893555 176.453125 59.01171875 C176.75379883 59.73834717 177.05447266 60.46497559 177.36425781 61.21362305 C178 63 178 63 178 65 C110.35 65 42.7 65 -27 65 C-20.09987017 47.74967543 -20.09987017 47.74967543 -16.58203125 39.375 C-16.19810715 38.458396 -15.81418304 37.54179199 -15.41862488 36.59741211 C-14.21770886 33.73113472 -13.0151064 30.86556849 -11.8125 28 C-10.99794257 26.05603329 -10.18348884 24.11202312 -9.36914062 22.16796875 C-8.58603031 20.29944027 -7.80283043 18.43094932 -7.01953125 16.5625 C-6.66010941 15.7051123 -6.30068756 14.84772461 -5.93037415 13.96435547 C-5.58959335 13.15240723 -5.24881256 12.34045898 -4.89770508 11.50390625 C-4.60269608 10.80080322 -4.30768707 10.0977002 -4.0037384 9.37329102 C-2.68031454 6.24411915 -1.33835015 3.12281702 0 0 Z " fill="#FEFEFE" transform="translate(616,244)"/>
<path d="M0 0 C1.7899387 2.68490806 2.9908847 5.09681035 4.2578125 8.046875 C4.7105957 9.10011963 5.16337891 10.15336426 5.62988281 11.23852539 C6.12327148 12.39731201 6.61666016 13.55609863 7.125 14.75 C7.38099976 15.34892059 7.63699951 15.94784119 7.90075684 16.56491089 C13.47584603 29.61320532 18.85725329 42.74128089 24.21533203 55.87988281 C27.79459724 64.65300197 31.41834946 73.40490479 35.10546875 82.13328552 C38.45350398 90.06146463 41.73713483 98.01541511 45.01074219 105.97460938 C47.68442785 112.47224752 50.36451882 118.95153568 53.32714844 125.32373047 C54 127 54 127 54 129 C18.36 129 -17.28 129 -54 129 C-52.15552053 123.46656159 -50.37909537 118.30292195 -48.1015625 112.9921875 C-47.83074356 112.35753067 -47.55992462 111.72287384 -47.28089905 111.06898499 C-46.70070922 109.71028265 -46.11895259 108.35224843 -45.53573608 106.99484253 C-43.95297011 103.31077347 -42.38192514 99.62169922 -40.80859375 95.93359375 C-40.48689713 95.18048416 -40.1652005 94.42737457 -39.83375549 93.65144348 C-36.7499657 86.42803678 -33.71537007 79.1844785 -30.6875 71.9375 C-27.02531959 63.17683222 -23.33757817 54.42753074 -19.6171875 45.69140625 C-19.23990005 44.80525131 -18.86261261 43.91909637 -18.47389221 43.00608826 C-16.62206398 38.65785071 -14.76802576 34.31057229 -12.91088867 29.96459961 C-9.19633108 21.25740443 -5.57248028 12.52835193 -2.12670898 3.7109375 C-1 1 -1 1 0 0 Z " fill="#FBFCFD" transform="translate(692,64)"/>
<path d="M0 0 C0.33 0 0.66 0 1 0 C1 25.41 1 50.82 1 77 C-24.08 77 -49.16 77 -75 77 C-72.32197506 75.21465004 -70.42987093 74.43175487 -67.4375 73.4375 C-63.36936123 71.82988264 -60.52749392 69.96663538 -57.32543945 66.99584961 C-56.45730621 66.19194794 -55.58917297 65.38804626 -54.69473267 64.55978394 C-47.11983441 57.3642268 -39.70282045 50.0101244 -32.29418945 42.64428711 C-30.22097633 40.58446536 -28.14070556 38.53218876 -26.05395508 36.48608398 C-23.50237907 33.98414573 -20.96360162 31.46985321 -18.4331913 28.94651604 C-17.02060754 27.54376563 -15.59593313 26.1532236 -14.17094421 24.76307678 C-6.86327733 17.43142324 -2.4076815 10.06848629 0 0 Z " fill="#FEFEFC" transform="translate(2136,232)"/>
<path d="M0 0 C2.48026485 1.07001123 3.83712216 2.36022364 5.7094574 4.3079071 C6.41441849 5.03246094 7.11937958 5.75701477 7.84570312 6.50352478 C8.59988022 7.29200806 9.35405731 8.08049133 10.13108826 8.89286804 C11.75369987 10.55344971 13.37676144 12.21359181 15.00022888 13.87333679 C17.54474501 16.49199355 20.08426064 19.11510681 22.61521912 21.74687195 C25.06528056 24.28829812 27.53427855 26.81011355 30.00608826 29.33036804 C31.11609947 30.50094757 31.11609947 30.50094757 32.24853516 31.69517517 C37.62967572 37.15134005 42.95739373 40.05600716 50.03343201 42.87724304 C51.35343201 43.53724304 52.67343201 44.19724304 54.03343201 44.87724304 C17.73343201 44.87724304 -18.56656799 44.87724304 -55.96656799 44.87724304 C-53.30966793 43.10597633 -51.3684034 42.27048987 -48.40406799 41.25224304 C-34.86747324 35.81904096 -24.8645988 22.87939628 -14.96363831 12.60697937 C-12.91565179 10.486864 -10.85261921 8.38238797 -8.78688049 6.27958679 C-8.16080902 5.62143478 -7.53473755 4.96328278 -6.88969421 4.28518677 C-6.30162994 3.69028946 -5.71356567 3.09539215 -5.10768127 2.48246765 C-4.5960141 1.95366501 -4.08434692 1.42486237 -3.55717468 0.8800354 C-1.96656799 -0.12275696 -1.96656799 -0.12275696 0 0 Z " fill="#FEFCFC" transform="translate(1994.966567993164,264.1227569580078)"/>
<path d="M0 0 C4.99393971 4.17473699 9.63704713 8.53745417 14.18359375 13.19140625 C15.5368158 14.56213885 16.89034067 15.93257254 18.24414062 17.30273438 C20.34494134 19.43446893 22.44330761 21.56843596 24.53637695 23.70776367 C26.57856072 25.79255777 28.63031395 27.86754714 30.68359375 29.94140625 C31.60584999 30.89159386 31.60584999 30.89159386 32.54673767 31.86097717 C38.02235261 37.36825081 43.89070312 41.8044911 51.5 43.8125 C52.78390625 44.16248047 52.78390625 44.16248047 54.09375 44.51953125 C54.7228125 44.67808594 55.351875 44.83664062 56 45 C56 45.33 56 45.66 56 46 C19.7 46 -16.6 46 -54 46 C-51.94288734 44.97144367 -49.88103665 43.9480318 -47.7734375 43.02734375 C-34.46216844 36.97873777 -24.53882723 24.66537989 -14.375 14.4375 C-12.97549577 13.03296858 -11.57575787 11.62866994 -10.17578125 10.22460938 C-6.78115715 6.81908122 -3.38970094 3.41042818 0 0 Z " fill="#FEFCFE" transform="translate(1872,263)"/>
<path d="M0 0 C8.1114707 3.32093153 16.48551347 13.02774483 20 21 C23.28142198 30.70312951 23.97426057 42.0029317 19.5625 51.4375 C14.85070142 59.54669472 8.4076919 66.30177546 1 72 C-0.0828125 70.90751953 -0.0828125 70.90751953 -1.1875 69.79296875 C-2.93213322 68.06045104 -4.69925969 66.349907 -6.5 64.67578125 C-14.9783882 56.66105491 -19.39119766 49.42342906 -20.23828125 37.703125 C-20.406113 29.89453195 -19.59759718 23.97034454 -16 17 C-15.01 17 -14.02 17 -13 17 C-12.95875 15.906875 -12.9175 14.81375 -12.875 13.6875 C-12.58625 12.470625 -12.2975 11.25375 -12 10 C-9 8.1875 -9 8.1875 -6 7 C-5.67 6.34 -5.34 5.68 -5 5 C-4.34 5 -3.68 5 -3 5 C-3 4.34 -3 3.68 -3 3 C-2.34 3 -1.68 3 -1 3 C-0.67 2.01 -0.34 1.02 0 0 Z " fill="#C7102D" transform="translate(1993,191)"/>
<path d="M0 0 C3.51669103 1.5613216 5.31082812 3.4404178 7.6953125 6.4765625 C9.12943367 8.24711001 9.12943367 8.24711001 11.8125 10.25 C12.8953125 11.11625 12.8953125 11.11625 14 12 C14 12.66 14 13.32 14 14 C14.66 14 15.32 14 16 14 C22.5680495 23.79343095 23.87978906 33.46403135 22 45 C19.11597517 56.51374255 10.48014864 64.32323386 2 72 C1.1028125 71.0409375 1.1028125 71.0409375 0.1875 70.0625 C-1.90810337 67.79689611 -1.90810337 67.79689611 -5 67 C-14.34208151 56.80013138 -19.68987397 46.98676149 -19.46704102 32.84594727 C-18.92320057 21.25370459 -13.83068006 15.10116988 -6 7 C-4.80103438 5.63498619 -3.6118013 4.26128918 -2.4375 2.875 C-1.633125 1.92625 -0.82875 0.9775 0 0 Z " fill="#850B56" transform="translate(1871,191)"/>
<path d="M0 0 C9.57 0 19.14 0 29 0 C26.91945369 1.04027316 24.83321935 2.07317927 22.703125 3.0078125 C12.4128352 7.69415467 6.01951311 14.39789318 2 25 C1.32931414 29.00924481 1.32050374 32.92595705 1.36076355 36.98428345 C1.35240787 38.15255657 1.3440522 39.32082968 1.33544332 40.52450502 C1.31739525 43.7402724 1.32143967 46.95510559 1.3351289 50.1708653 C1.34443952 53.64862973 1.32481481 57.12625003 1.30880737 60.60397339 C1.28502692 66.62035135 1.27934356 72.63652452 1.28615379 78.65294266 C1.29597357 87.35149185 1.2781867 96.04981476 1.25378648 104.7483273 C1.21493752 118.86298496 1.19823635 132.97757768 1.19555664 147.09228516 C1.1929068 160.79869922 1.1797682 174.50503746 1.15258789 188.21142578 C1.15091451 189.05710529 1.14924113 189.9027848 1.14751705 190.77409096 C1.13905722 195.01686121 1.13039187 199.25963101 1.12162435 203.50240064 C1.0492211 238.66825676 1.01280097 273.83407358 1 309 C0.67 309 0.34 309 0 309 C0 207.03 0 105.06 0 0 Z " fill="#40587B" transform="translate(0,0)"/>
<path d="M0 0 C9.57 0 19.14 0 29 0 C26.91945369 1.04027316 24.83321935 2.07317927 22.703125 3.0078125 C12.45886347 7.67319275 6.01702099 14.4316143 2 25 C1.62761653 26.65837856 1.28280314 28.32401931 1 30 C0.67 30 0.34 30 0 30 C0 20.1 0 10.2 0 0 Z " fill="#F8FAFB" transform="translate(0,0)"/>
<path d="M0 0 C0 3.99833488 -1.35814212 4.81158018 -4.0625 7.6875 C-4.88234375 8.57050781 -5.7021875 9.45351562 -6.546875 10.36328125 C-7.35640625 11.23339844 -8.1659375 12.10351562 -9 13 C-10.2771117 14.45283831 -11.54866384 15.91059854 -12.8125 17.375 C-15.11570875 20.02475636 -17.51728189 22.51728189 -20 25 C-20.66 25.99 -21.32 26.98 -22 28 C-22.66 26.68 -23.32 25.36 -24 24 C-16.08 16.08 -8.16 8.16 0 0 Z " fill="#CD2F84" transform="translate(1897,166)"/>
<path d="M0 0 C2.67129667 2.67129667 2.93641818 4.6660124 3.11352539 8.38183594 C3.10828857 9.24067383 3.10305176 10.09951172 3.09765625 10.984375 C3.09443359 11.91894531 3.09121094 12.85351562 3.08789062 13.81640625 C3.07951172 14.78449219 3.07113281 15.75257813 3.0625 16.75 C3.05798828 17.73355469 3.05347656 18.71710938 3.04882812 19.73046875 C3.03706483 22.15370791 3.02062684 24.57682273 3 27 C2.34 27 1.68 27 1 27 C0.81824219 27.60328125 0.63648438 28.2065625 0.44921875 28.828125 C-0.89273864 33.09486131 -2.06244802 36.55156941 -5 40 C-5.433125 41.0209375 -5.433125 41.0209375 -5.875 42.0625 C-7.40534348 44.69809155 -9.38055572 45.47706728 -12 47 C-13.7041054 48.62836738 -15.38025441 50.28769752 -17 52 C-17.99 51.67 -18.98 51.34 -20 51 C-19.5153125 50.59910156 -19.030625 50.19820313 -18.53125 49.78515625 C-9.91982615 42.48200641 -0.05697669 33.88723485 1.21777344 21.96289062 C1.61622946 14.55358442 1.16866578 7.31852999 0 0 Z " fill="#EB6238" transform="translate(2013,212)"/>
<path d="M0 0 C0.66 0.33 1.32 0.66 2 1 C1.2575 1.70125 0.515 2.4025 -0.25 3.125 C-2.97817223 5.97718006 -4.91302954 8.6763063 -7 12 C-7.93423645 8.98968256 -8.04449911 8.13349732 -7 5 C-5.01679982 3.96708324 -3.01652194 2.9662501 -1 2 C-0.67 1.34 -0.34 0.68 0 0 Z M-11 12 C-10.01 12.33 -9.02 12.66 -8 13 C-9.02657415 15.68488625 -10.06199032 18.10166412 -11.5625 20.5625 C-13.66114052 25.58098819 -13.74697842 30.60802291 -14 36 C-14.33 36 -14.66 36 -15 36 C-15.46321804 27.07018562 -15.1428035 20.02668177 -11 12 Z " fill="#CF1450" transform="translate(1988,196)"/>
<path d="M0 0 C0 4.58932737 -2.90413734 6.81589422 -6 10 C-7.66666667 11.33333333 -9.33333333 12.66666667 -11 14 C-13.07793656 16.2704295 -15.0523692 18.61733139 -17 21 C-17.99 20.34 -18.98 19.68 -20 19 C-19.2265625 18.29875 -18.453125 17.5975 -17.65625 16.875 C-11.62458712 11.38735044 -5.69258176 5.84326775 0 0 Z " fill="#FDECFB" transform="translate(1975,282)"/>
<path d="M0 0 C-1.15173355 2.46800047 -2.04783565 4.04783565 -4 6 C-5.32 6 -6.64 6 -8 6 C-8.2475 6.78375 -8.495 7.5675 -8.75 8.375 C-10.15389099 11.32317108 -11.00675737 11.9024777 -14 13 C-14 10 -14 10 -12.64453125 8.28125 C-4.12719298 0 -4.12719298 0 0 0 Z " fill="#DE8037" transform="translate(2040,149)"/>
<path d="M0 0 C0.66 0.99 1.32 1.98 2 3 C1.01 4.485 1.01 4.485 0 6 C0.31506627 9.14221967 0.31506627 9.14221967 1 12 C-0.98 10.35 -2.96 8.7 -5 7 C-3.70700306 4.11562221 -2.34058637 2.12780579 0 0 Z " fill="#E57735" transform="translate(2000,185)"/>
<path d="M0 0 C0.33 0.99 0.66 1.98 1 3 C0.01 3.33 -0.98 3.66 -2 4 C-2 4.66 -2 5.32 -2 6 C-3.64453125 7.62109375 -3.64453125 7.62109375 -5.8125 9.4375 C-8.31102718 11.54463676 -10.7242056 13.65241398 -13 16 C-13.66 15.67 -14.32 15.34 -15 15 C-10.05 10.05 -5.1 5.1 0 0 Z " fill="#863B82" transform="translate(1789,153)"/>
<path d="M0 0 C1 2 1 2 0.375 3.9375 C-1.36900377 6.55350565 -3.29125884 7.42515049 -6 9 C-7.7041054 10.62836738 -9.38025441 12.28769752 -11 14 C-11.99 13.67 -12.98 13.34 -14 13 C-13.49210937 12.56429688 -12.98421875 12.12859375 -12.4609375 11.6796875 C-8.13240118 7.93477405 -3.99693056 4.09685382 0 0 Z " fill="#ED723E" transform="translate(2007,250)"/>
<path d="M0 0 C1.89551022 -0.05441656 3.7914792 -0.09298035 5.6875 -0.125 C6.74324219 -0.14820313 7.79898438 -0.17140625 8.88671875 -0.1953125 C12.02251859 0.00141271 14.17645373 0.66942346 17 2 C17 2.33 17 2.66 17 3 C10.90218999 3.22084624 5.78357065 3.01167675 0 1 C0 0.67 0 0.34 0 0 Z " fill="#DD894A" transform="translate(2050,145)"/>
<path d="M0 0 C0.33 1.32 0.66 2.64 1 4 C0.34 4 -0.32 4 -1 4 C-1.2475 4.7425 -1.495 5.485 -1.75 6.25 C-3.12281238 9.27018724 -4.44820092 10.89851841 -7 13 C-8.32148827 13.37756808 -9.65475471 13.71856793 -11 14 C-10.62488281 13.57589844 -10.24976562 13.15179688 -9.86328125 12.71484375 C-6.30335421 8.63482662 -3.08682003 4.4486524 0 0 Z " fill="#FEF1D7" transform="translate(2132,244)"/>
<path d="M0 0 C0.66 0.33 1.32 0.66 2 1 C0.19587357 4.26460973 -0.83394693 5.88929795 -4 8 C-3.67 6.35 -3.34 4.7 -3 3 C-2.34 3 -1.68 3 -1 3 C-0.67 2.01 -0.34 1.02 0 0 Z M-8 10 C-7.34 10.33 -6.68 10.66 -6 11 C-7.65 12.32 -9.3 13.64 -11 15 C-9.125 11.125 -9.125 11.125 -8 10 Z " fill="#C9133C" transform="translate(1993,191)"/>
<path d="M0 0 C5.03891682 1.43969052 6.86602297 4.01900215 10 8 C10.66 8.33 11.32 8.66 12 9 C11.67 9.99 11.34 10.98 11 12 C9.16364422 10.19047409 7.33083792 8.37759362 5.5 6.5625 C4.97535156 6.04623047 4.45070313 5.52996094 3.91015625 4.99804688 C2.58775448 3.68423213 1.29164432 2.34406495 0 1 C0 0.67 0 0.34 0 0 Z " fill="#C7378C" transform="translate(1886,276)"/>
<path d="M0 0 C0.33 0 0.66 0 1 0 C1.30318061 5.00248008 0.6719673 10.00650053 -2.625 13.9375 C-3.07875 14.288125 -3.5325 14.63875 -4 15 C-4.66 14.67 -5.32 14.34 -6 14 C-4.02 9.38 -2.04 4.76 0 0 Z " fill="#1F304F" transform="translate(573,204)"/>
<path d="M0 0 C0.66 0.99 1.32 1.98 2 3 C1.01 3.495 1.01 3.495 0 4 C-0.33 4.99 -0.66 5.98 -1 7 C-3.0625 8.1875 -3.0625 8.1875 -5 9 C-5.66 8.34 -6.32 7.68 -7 7 C-4.69 4.69 -2.38 2.38 0 0 Z " fill="#E07F34" transform="translate(2008,177)"/>
<path d="M0 0 C0.99 0.99 1.98 1.98 3 3 C1.87926138 3.83905565 0.75325453 4.67107831 -0.375 5.5 C-1.00148438 5.9640625 -1.62796875 6.428125 -2.2734375 6.90625 C-4 8 -4 8 -6 8 C-4.55746343 4.63408134 -2.66735273 2.48952921 0 0 Z " fill="#8C3584" transform="translate(1773,169)"/>
<path d="M0 0 C0.66 0.99 1.32 1.98 2 3 C1.01 3.495 1.01 3.495 0 4 C-0.33 4.99 -0.66 5.98 -1 7 C-3.0625 8.1875 -3.0625 8.1875 -5 9 C-5.66 8.34 -6.32 7.68 -7 7 C-4.69 4.69 -2.38 2.38 0 0 Z " fill="#E07F34" transform="translate(2024,161)"/>
<path d="M0 0 C0 0.99 0 1.98 0 3 C-0.66 3 -1.32 3 -2 3 C-2.20625 3.61875 -2.4125 4.2375 -2.625 4.875 C-4.54775888 7.84653645 -6.66594527 8.13024659 -10 9 C-7.12505529 5.01930733 -4.17882671 2.56428003 0 0 Z " fill="#C83686" transform="translate(1916,149)"/>
<path d="M0 0 C0.33 0.99 0.66 1.98 1 3 C-1.5958956 5.87402727 -3.21369298 7.24432948 -7 8 C-6.02133662 6.85373678 -5.04205413 5.70800212 -4.0625 4.5625 C-3.51722656 3.92441406 -2.97195312 3.28632813 -2.41015625 2.62890625 C-1.63204305 1.73008851 -0.84063472 0.84063472 0 0 Z " fill="#FEF2D9" transform="translate(2096,282)"/>
<path d="M0 0 C0.33 0.99 0.66 1.98 1 3 C-1.5958956 5.87402727 -3.21369298 7.24432948 -7 8 C-6.02133662 6.85373678 -5.04205413 5.70800212 -4.0625 4.5625 C-3.51722656 3.92441406 -2.97195312 3.28632813 -2.41015625 2.62890625 C-1.63204305 1.73008851 -0.84063472 0.84063472 0 0 Z " fill="#FEF2D9" transform="translate(2112,266)"/>
<path d="M0 0 C0.33 0 0.66 0 1 0 C1.05422947 1.4370809 1.09289723 2.87475462 1.125 4.3125 C1.14820312 5.11300781 1.17140625 5.91351563 1.1953125 6.73828125 C1 9 1 9 -1 12 C-1.66 12 -2.32 12 -3 12 C-2.01 8.04 -1.02 4.08 0 0 Z " fill="#FDE5C8" transform="translate(2136,232)"/>
<path d="M0 0 C0.33 0.66 0.66 1.32 1 2 C-0.9626228 4.04795423 -2.4277307 4.94976638 -5.26953125 5.19921875 C-7.51954383 5.18858877 -9.75385562 5.12958525 -12 5 C-12 4.67 -12 4.34 -12 4 C-11.30132812 3.79503906 -10.60265625 3.59007812 -9.8828125 3.37890625 C-8.97273438 3.10949219 -8.06265625 2.84007812 -7.125 2.5625 C-6.22007812 2.29566406 -5.31515625 2.02882813 -4.3828125 1.75390625 C-2.01724619 1.07386174 -2.01724619 1.07386174 0 0 Z " fill="#DFE8F0" transform="translate(495,304)"/>
<path d="M0 0 C0.66 0.33 1.32 0.66 2 1 C-1.0684847 3.97550031 -2.46236331 4.96474513 -6.8125 5.25 C-7.864375 5.1675 -8.91625 5.085 -10 5 C-6.76527494 2.84351662 -3.62848922 1.38542316 0 0 Z " fill="#E9F1F6" transform="translate(1155,304)"/>
<path d="M0 0 C0.66 0.99 1.32 1.98 2 3 C4.05003955 4.19232613 4.05003955 4.19232613 6 5 C5.67 6.32 5.34 7.64 5 9 C2.69 6.69 0.38 4.38 -2 2 C-1.34 1.34 -0.68 0.68 0 0 Z " fill="#DA803B" transform="translate(2027,292)"/>
<path d="M0 0 C0.66 0.99 1.32 1.98 2 3 C-0.31 4.65 -2.62 6.3 -5 8 C-5.66 7.67 -6.32 7.34 -7 7 C-4.69 4.69 -2.38 2.38 0 0 Z " fill="#DE7F36" transform="translate(2016,169)"/>
<path d="M0 0 C0.33 0.99 0.66 1.98 1 3 C-3.625 7.875 -3.625 7.875 -7 9 C-5.44499019 5.18315774 -2.96404505 2.80804268 0 0 Z " fill="#162547" transform="translate(13,8)"/>
<path d="M0 0 C0.66 1.32 1.32 2.64 2 4 C1.67 4.99 1.34 5.98 1 7 C-0.65 7.33 -2.3 7.66 -4 8 C-2.68 5.36 -1.36 2.72 0 0 Z " fill="#16294E" transform="translate(1678,41)"/>
<path d="M0 0 C0.33 1.32 0.66 2.64 1 4 C-1.375 5.5625 -1.375 5.5625 -4 7 C-4.66 6.67 -5.32 6.34 -6 6 C-4.02 4.02 -2.04 2.04 0 0 Z " fill="#FEEFD7" transform="translate(2083,295)"/>
<path d="M0 0 C2.97 0 5.94 0 9 0 C9 0.33 9 0.66 9 1 C4.05 2.485 4.05 2.485 -1 4 C-0.67 2.68 -0.34 1.36 0 0 Z " fill="#E7EFF6" transform="translate(261,0)"/>
</svg>
