<?xml version="1.0" encoding="utf-8"?>
<!-- Generator: Adobe Illustrator 25.4.1, SVG Export Plug-In . SVG Version: 6.00 Build 0)  -->
<svg version="1.0" id="katman_1" xmlns="http://www.w3.org/2000/svg" xmlns:xlink="http://www.w3.org/1999/xlink" x="0px" y="0px"
	 viewBox="0 0 1700 1200" style="enable-background:new 0 0 1700 1200;" xml:space="preserve">
<style type="text/css">
	.st0{fill-rule:evenodd;clip-rule:evenodd;fill:#1F1F1F;}
	.st1{filter:url(#Adobe_OpacityMaskFilter);}
	.st2{fill-rule:evenodd;clip-rule:evenodd;fill:#FFFFFF;}
	.st3{mask:url(#mask-2_00000007389471769370530820000001887551872512815492_);fill-rule:evenodd;clip-rule:evenodd;fill:#1F1F1F;}
</style>
<g id="chain_x2F_hedera">
	<g id="Group" transform="translate(0.000000, 11.000000)">
		<polygon id="Fill-1" class="st0" points="346.1,598.8 434.8,598.8 434.8,576.7 346.1,576.7 		"/>
		<path id="Fill-2" class="st0" d="M454.1,657.9h-20.2v-42.8h-88.7v42.8h-20V519h20.2v41.8h88.7V519h20.2v138.8H454.1z M389.6,415.6
			c-95.8,0-173.5,77.7-173.5,173.5s77.7,173.5,173.5,173.5S563.1,685,563.1,589.1S485.4,415.6,389.6,415.6L389.6,415.6z"/>
		<polygon id="Fill-4" class="st0" points="828.4,577.9 736.9,577.9 736.9,511.8 713.6,511.8 713.6,667 736.9,667 736.9,599.7 
			828.4,599.7 828.4,667 851.7,667 851.7,511.8 828.4,511.8 		"/>
		<path id="Fill-6" class="st0" d="M931.9,555.8c-31.4,0-55.3,24.5-55.3,56.8c0,32.6,24.5,56.8,57.1,56.8
			c37.4,0,50.5-25.1,52.3-33.8l0.3-1.5h-21.5l-0.3,0.6c-0.3,0.6-7.5,14.4-30.5,14.4c-19.1,0-33.2-13.5-35-32.9h88.5V615
			C987.5,580.3,964.5,555.8,931.9,555.8 M931.9,574.9c15.3,0,25.7,7.8,30.8,22.7h-62.2C904.9,583,916.3,574.9,931.9,574.9"/>
		<path id="Fill-8" class="st0" d="M1095.7,573.1c-5.4-7.5-17.6-17.3-37.7-17.3c-31.7,0-53.8,23.3-53.8,56.8
			c0,33.5,22.1,56.8,53.8,56.8c21.5,0,33.2-12,37.7-18.2v15.6h21.8V506.1h-21.8V573.1z M1061.9,649.1c-20.6,0-34.7-15-34.7-36.5
			c0-21.5,14.4-36.5,34.7-36.5c20.3,0,34.4,15,34.4,36.5C1096.3,634.1,1082,649.1,1061.9,649.1L1061.9,649.1z"/>
		<path id="Fill-10" class="st0" d="M1198.9,555.8c-31.4,0-55.3,24.5-55.3,56.8c0,32.6,24.5,56.8,57.1,56.8
			c37.4,0,50.5-25.1,52.3-33.8l0.3-1.5h-21.5l-0.3,0.6c-0.3,0.6-7.5,14.4-30.5,14.4c-19.1,0-33.2-13.5-35-32.9h88.5V615
			C1254.2,580.3,1231.5,555.8,1198.9,555.8 M1198.9,574.9c15.3,0,25.7,7.8,30.8,22.7h-62.2C1171.7,583,1183.1,574.9,1198.9,574.9"/>
		<path id="Fill-12" class="st0" d="M1300.9,574v-15.8H1279V667h21.8v-61.3c0-19.1,9.9-26.3,35.6-26.3h28.4v-21.8h-27.8
			C1315.2,557.6,1305.4,567.1,1300.9,574"/>
		<g id="Group-16" transform="translate(539.588501, 65.401345)">
			<defs>
				<filter id="Adobe_OpacityMaskFilter" filterUnits="userSpaceOnUse" x="832.8" y="490.4" width="111.2" height="113.6">
					<feColorMatrix  type="matrix" values="1 0 0 0 0  0 1 0 0 0  0 0 1 0 0  0 0 0 1 0"/>
				</filter>
			</defs>
			
				<mask maskUnits="userSpaceOnUse" x="832.8" y="490.4" width="111.2" height="113.6" id="mask-2_00000007389471769370530820000001887551872512815492_">
				<g class="st1">
					<polygon id="path-1_00000047029349492031749310000003670595190177196178_" class="st2" points="832.8,490.4 944,490.4 944,604 
						832.8,604 					"/>
				</g>
			</mask>
			<path id="Fill-14" class="st3" d="M922.2,507.7c-4.2-6-15.3-17.3-36.5-17.3c-26.3,0-52.9,19.4-52.9,56.8
				c0,33.5,21.8,56.8,52.9,56.8c20.3,0,31.4-10.8,36.5-17.9v15.6H944V492.8h-21.8V507.7z M922.8,547.2c0,21.2-14.1,36.5-33.2,36.5
				c-20,0-34.1-15-34.1-36.5c0-21.5,14.1-36.5,34.1-36.5C908.7,510.7,922.8,526.2,922.8,547.2L922.8,547.2z"/>
		</g>
	</g>
</g>
</svg>
