<?xml version="1.0" encoding="UTF-8"?>
<svg version="1.1" xmlns="http://www.w3.org/2000/svg" width="202" height="61" viewBox="0 0 3072 933">
<path d="M0 0 C1.42820068 0.47542236 1.42820068 0.47542236 2.88525391 0.96044922 C63.43295527 21.3972849 121.68544757 59.87654316 163 109 C163.78246094 109.89332031 164.56492187 110.78664062 165.37109375 111.70703125 C224.23583421 179.2961137 256.34285977 268.50595189 256.1875 357.875 C256.18656342 358.58510223 256.18562683 359.29520447 256.18466187 360.02682495 C256.03295355 413.74576844 244.66601817 467.22331168 222 516 C221.28812799 517.58161096 220.57719779 519.16364616 219.8671875 520.74609375 C205.6000074 552.12488048 185.9236565 581.30224883 163 607 C162.175 607.93585937 161.35 608.87171875 160.5 609.8359375 C156.15423858 614.7249191 151.67228534 619.42416091 147 624 C144.33266743 626.6538612 141.68198192 629.32222171 139.0546875 632.015625 C132.37050504 638.8371824 125.50744383 645.07949552 118 651 C116.97409302 651.85903857 115.95076637 652.72116566 114.9296875 653.5859375 C49.84956961 708.09577848 -36.77159092 736.53583106 -121.0625 736.375 C-122.14550385 736.37445618 -123.22850769 736.37391235 -124.34432983 736.37335205 C-195.46068082 736.21042799 -264.78027747 715.91300002 -325 678 C-326.07121094 677.32582031 -327.14242187 676.65164063 -328.24609375 675.95703125 C-342.54833943 666.65362872 -356.21395422 656.29111608 -369 645 C-369.84433594 644.25492188 -370.68867188 643.50984375 -371.55859375 642.7421875 C-374.05583382 640.51265157 -376.52851785 638.25803597 -379 636 C-380.00484479 635.09985442 -381.01007228 634.20013593 -382.015625 633.30078125 C-452.29297107 570.00178454 -494.1344131 475.80667216 -499.8190918 382.01855469 C-500.19577146 374.37121097 -500.2445753 366.71776752 -500.25 359.0625 C-500.25067474 358.19516235 -500.25134949 357.32782471 -500.25204468 356.4342041 C-500.1776186 295.54393134 -485.37317633 235.89743309 -457 182 C-456.61827637 181.26313965 -456.23655273 180.5262793 -455.84326172 179.76708984 C-442.11631669 153.38261819 -424.72208896 129.21280013 -405 107 C-404.13117188 106.01902344 -403.26234375 105.03804688 -402.3671875 104.02734375 C-397.00892859 98.08527454 -391.45567014 92.35811493 -385.8125 86.6875 C-385.15926758 86.02959473 -384.50603516 85.37168945 -383.83300781 84.69384766 C-379.38549237 80.26089587 -374.77846928 76.07284494 -370 72 C-369.04299194 71.18293579 -369.04299194 71.18293579 -368.06665039 70.34936523 C-284.6965185 -0.28527119 -174.98630896 -31.23482863 0 0 Z M-262 206 C-262 305.33 -262 404.66 -262 507 C-247.81 507 -233.62 507 -219 507 C-219 476.31 -219 445.62 -219 414 C-154.98 414 -90.96 414 -25 414 C-25 444.69 -25 475.38 -25 507 C-10.81 507 3.38 507 18 507 C18 407.67 18 308.34 18 206 C3.81 206 -10.38 206 -25 206 C-25 236.03 -25 266.06 -25 297 C-89.02 297 -153.04 297 -219 297 C-219 266.97 -219 236.94 -219 206 C-233.19 206 -247.38 206 -262 206 Z " fill="#ffffff" transform="translate(536,113)"/>
<path d="M0 0 C1.65128906 0.52787109 1.65128906 0.52787109 3.3359375 1.06640625 C15.86143893 5.48974766 25.65437098 12.65437098 35 22 C35.33 15.07 35.66 8.14 36 1 C48.54 1 61.08 1 74 1 C74.04524962 24.82740342 74.08204883 48.65477173 74.10362434 72.4822073 C74.11391111 83.54715456 74.12792143 94.61207312 74.15087891 105.67700195 C74.17089271 115.32780114 74.1837353 124.97857952 74.18817699 134.62939888 C74.1907709 139.73340658 74.19681281 144.83735479 74.21146011 149.94134331 C74.22517066 154.75855152 74.22919581 159.5756765 74.22621536 164.39290237 C74.22675956 166.14829144 74.23065593 167.90368369 74.23841095 169.65905571 C74.27431784 178.21614382 74.09621045 186.65776495 73.12252808 195.16639709 C73.00849803 196.16998344 73.00849803 196.16998344 72.89216435 197.19384426 C70.30160609 217.44436265 60.21539251 235.49534891 44.82421875 248.8359375 C28.26824649 261.52197987 6.78457172 268.3360484 -14 269 C-15.19625 269.03996094 -16.3925 269.07992188 -17.625 269.12109375 C-43.67832194 269.69330345 -70.89021001 264.59606625 -91 247 C-91.66 246.48179687 -92.32 245.96359375 -93 245.4296875 C-104.51883303 236.1156311 -113.07620961 222.73418875 -115 208 C-109.23432697 207.85163549 -103.46976532 207.74277667 -97.70263672 207.67041016 C-95.74117683 207.64024383 -93.77985176 207.59930392 -91.81884766 207.54736328 C-88.99868538 207.47453884 -86.18030615 207.44054348 -83.359375 207.4140625 C-82.48319519 207.38309479 -81.60701538 207.35212708 -80.70428467 207.32022095 C-78.32295657 207.31890575 -76.29893975 207.37612604 -74 208 C-71.55566406 210.88037109 -71.55566406 210.88037109 -70 214 C-58.02678448 227.3035728 -42.11070839 232.15195004 -24.703125 233.12890625 C-8.40735787 233.52831231 9.10042737 229.99817384 21.4453125 218.77734375 C33.52750304 206.19671301 35.34005706 192.720222 35.125 175.9375 C35.11494631 174.58138685 35.1058247 173.22526645 35.09765625 171.86914062 C35.07424058 168.579239 35.04144423 165.28971562 35 162 C34.13967163 162.89295776 34.13967163 162.89295776 33.26196289 163.80395508 C18.68815504 178.69547285 0.24564606 187.59671702 -20.796875 188.30078125 C-22.78116033 188.32004616 -24.76565221 188.32360192 -26.75 188.3125 C-27.79841064 188.30758545 -28.84682129 188.3026709 -29.92700195 188.29760742 C-53.75801885 187.93978435 -74.50112377 178.9395724 -91.6328125 162.46875 C-110.8686543 142.46818054 -117.58996951 115.17641439 -117.2109375 88.109375 C-116.39624387 61.69720864 -106.57822429 36.50621677 -87.1875 18.1875 C-63.82446239 -1.73872144 -29.53505747 -9.50158826 0 0 Z M-60.87109375 47.58203125 C-75.50846519 64.2068623 -77.98617912 82.52712369 -77 104 C-75.58079446 117.26957183 -67.81465771 131.52966443 -57.5703125 140.01171875 C-42.96625494 151.20264671 -28.08662203 154.54454501 -10 153 C-5.40209605 152.15352396 -1.2933436 150.83589358 3 149 C3.94101563 148.59910156 4.88203125 148.19820312 5.8515625 147.78515625 C19.08117356 141.35668327 28.50332689 129.68345586 33.72314453 116.12109375 C39.62851064 98.98981575 38.62014657 79.99036409 31.45703125 63.43359375 C23.94519226 48.59900097 13.5104708 39.65793201 -2.01953125 33.9453125 C-22.22263926 27.53751153 -45.57118352 33.01471341 -60.87109375 47.58203125 Z " fill="#ffffff" transform="translate(2102,615)"/>
<path d="M0 0 C13.2 0 26.4 0 40 0 C40 36.3 40 72.6 40 110 C90.16 110 140.32 110 192 110 C192 73.7 192 37.4 192 0 C205.2 0 218.4 0 232 0 C232 85.8 232 171.6 232 260 C218.8 260 205.6 260 192 260 C192 223.04 192 186.08 192 148 C141.84 148 91.68 148 40 148 C40 184.96 40 221.92 40 260 C26.8 260 13.6 260 0 260 C0 174.2 0 88.4 0 0 Z " fill="#ffffff" transform="translate(1066,137)"/>
<path d="M0 0 C13.2 0 26.4 0 40 0 C40 36.63 40 73.26 40 111 C90.16 111 140.32 111 192 111 C192 74.37 192 37.74 192 0 C205.2 0 218.4 0 232 0 C232 86.13 232 172.26 232 261 C218.8 261 205.6 261 192 261 C192 223.71 192 186.42 192 148 C141.84 148 91.68 148 40 148 C40 185.29 40 222.58 40 261 C26.8 261 13.6 261 0 261 C0 174.87 0 88.74 0 0 Z " fill="#ffffff" transform="translate(1066,538)"/>
<path d="M0 0 C12.21 0 24.42 0 37 0 C37 89.1 37 178.2 37 270 C24.79 270 12.58 270 0 270 C-0.33 262.41 -0.66 254.82 -1 247 C-2.588125 248.670625 -4.17625 250.34125 -5.8125 252.0625 C-20.16219745 266.64860103 -39.22700639 273.9358671 -59.48901367 274.47485352 C-85.86481017 274.67073693 -108.57668709 267.48936885 -127.8125 248.75 C-147.20795526 229.13025334 -153.44647932 202.563488 -153.36352539 175.79760742 C-152.9651141 148.79240458 -144.04940104 124.51139066 -124.51367188 105.38427734 C-106.81965214 89.20281091 -83.11306195 82.36881599 -59.49609375 82.81640625 C-36.1969411 84.03993717 -17.46824999 92.53175001 -1 109 C-0.67 73.03 -0.34 37.06 0 0 Z M-100 137 C-110.6587521 150.71008113 -115.34682747 167.76481718 -114 185 C-111.66660556 202.11763579 -105.7659455 217.67018007 -91.625 228.4375 C-80.69947176 235.77713559 -69.81707437 239.40697679 -56.6875 239.3125 C-55.85863281 239.30686035 -55.02976562 239.3012207 -54.17578125 239.29541016 C-37.82830071 238.97393517 -25.34179628 232.68125145 -14 221 C-3.18987981 208.83861479 1.43763282 193.05125917 1.21484375 176.9609375 C-0.05403987 159.47341416 -5.75233217 143.62650505 -18.625 131.25 C-27.97874108 123.56326228 -40.00320754 118.94889884 -52 118 C-52.65355469 117.94585937 -53.30710937 117.89171875 -53.98046875 117.8359375 C-71.341518 117.11934635 -88.42162324 124.05213782 -100 137 Z " fill="#ffffff" transform="translate(1705,127)"/>
<path d="M0 0 C20.60988849 16.49396363 31.77633072 39.4624398 34.77294922 65.46484375 C37.29933334 93.67341654 32.2899463 122.46572433 13.75 144.75 C-3.56080198 164.78405035 -25.90722568 173.32911791 -51.71875 175.28125 C-75.21960282 175.92806246 -96.46771791 167.46056622 -114 152 C-114.99 151.01 -114.99 151.01 -116 150 C-116.33 183.33 -116.66 216.66 -117 251 C-129.54 251 -142.08 251 -155 251 C-155 163.88 -155 76.76 -155 -13 C-142.46 -13 -129.92 -13 -117 -13 C-116.67 -5.74 -116.34 1.52 -116 9 C-113.8653125 6.7415625 -113.8653125 6.7415625 -111.6875 4.4375 C-82.37728393 -24.79015208 -32.06985103 -24.06326678 0 0 Z M-105 37 C-114.52632708 49.45890577 -118.40223343 62.81040835 -118.3125 78.3125 C-118.30686035 79.32997314 -118.3012207 80.34744629 -118.29541016 81.39575195 C-118.01803121 98.54793197 -112.27556481 111.91894238 -100 124 C-99.4121875 124.58652344 -98.824375 125.17304687 -98.21875 125.77734375 C-87.80839009 135.42656885 -72.86124752 139.42266334 -58.9296875 139.2109375 C-43.03013725 138.06616988 -28.31479567 132.40705125 -17.62109375 120.30859375 C-5.6335486 105.1612344 -1.53611293 87.53308083 -3.625 68.4375 C-6.09890833 52.6274236 -13.45175583 37.76284845 -26.5 28.16015625 C-51.73440806 11.20578833 -84.20830385 14.77559874 -105 37 Z " fill="#ffffff" transform="translate(2787,629)"/>
<path d="M0 0 C4.35155891 3.47691848 8.0747564 6.91998771 11.43359375 11.3984375 C11.76359375 4.1384375 12.09359375 -3.1215625 12.43359375 -10.6015625 C24.64359375 -10.6015625 36.85359375 -10.6015625 49.43359375 -10.6015625 C49.43359375 49.7884375 49.43359375 110.1784375 49.43359375 172.3984375 C37.22359375 172.3984375 25.01359375 172.3984375 12.43359375 172.3984375 C12.10359375 164.8084375 11.77359375 157.2184375 11.43359375 149.3984375 C9.90734375 151.0278125 8.38109375 152.6571875 6.80859375 154.3359375 C-8.25153198 169.65887271 -27.10308876 176.24329953 -48.50390625 176.6484375 C-74.56210195 176.15894653 -96.57388754 167.08379229 -114.75390625 148.2109375 C-134.03047155 126.30296805 -138.84704828 97.62947962 -137.56640625 69.3984375 C-135.52306696 43.65433666 -124.38685661 21.03570257 -104.91796875 4.09375 C-75.38536152 -18.69868261 -30.63492066 -23.17070471 0 0 Z M-84.56640625 38.3984375 C-96.44331391 54.26561058 -100.72763331 72.51593166 -98.0625 92.1015625 C-95.75547819 104.07170997 -91.72813935 114.26716807 -83.56640625 123.3984375 C-83.02113281 124.02492188 -82.47585937 124.65140625 -81.9140625 125.296875 C-72.80190602 135.11656363 -59.83805879 140.37754115 -46.56640625 141.3984375 C-45.61314453 141.47578125 -45.61314453 141.47578125 -44.640625 141.5546875 C-30.18031701 142.18914343 -16.6309492 137.04681905 -5.75390625 127.7109375 C6.26239174 116.12688045 12.44547345 100.96709747 13.43359375 84.3984375 C13.58025206 65.86449372 8.7389128 49.29626416 -4.2265625 35.68359375 C-15.73700302 24.44217855 -28.47865976 20.11063864 -44.41015625 20.08154297 C-60.13915509 20.33717076 -73.86966548 26.86663519 -84.56640625 38.3984375 Z " fill="#ffffff" transform="translate(2528.56640625,626.6015625)"/>
<path d="M0 0 C3.52745961 3.14514824 6.92395007 6.38098132 10.265625 9.72265625 C10.595625 2.46265625 10.925625 -4.79734375 11.265625 -12.27734375 C23.475625 -12.27734375 35.685625 -12.27734375 48.265625 -12.27734375 C48.265625 48.11265625 48.265625 108.50265625 48.265625 170.72265625 C36.055625 170.72265625 23.845625 170.72265625 11.265625 170.72265625 C10.935625 163.13265625 10.605625 155.54265625 10.265625 147.72265625 C8.986875 149.22828125 7.708125 150.73390625 6.390625 152.28515625 C-5.3867073 165.31187794 -22.19176163 173.70832771 -39.765625 174.93408203 C-66.12723311 176.02855951 -89.44585959 170.88753539 -110.0078125 153.34765625 C-129.47103116 134.60942855 -138.3669286 108.81937228 -139.01757812 82.17724609 C-139.29516306 56.5515306 -133.0188096 30.65474954 -114.81079102 11.74414062 C-113.4647313 10.3908478 -112.09995643 9.05624749 -110.734375 7.72265625 C-109.67669922 6.63404297 -109.67669922 6.63404297 -108.59765625 5.5234375 C-81.01624968 -21.21739287 -29.80306095 -24.82169219 0 0 Z M-86.734375 38.72265625 C-98.41444433 53.64368176 -101.33390468 71.88345515 -99.33984375 90.3828125 C-96.82604242 105.8062 -89.65273881 120.10334854 -77.10546875 129.7421875 C-62.95511706 139.30323594 -46.6680195 142.05845376 -29.94921875 139.0390625 C-14.10344567 134.48741612 -3.54424023 125.24421202 4.7109375 111.27734375 C13.29934161 95.28336964 13.99050316 76.53120039 9.33203125 59.26171875 C5.44239779 47.06791972 -1.27039204 36.33473203 -11.734375 28.72265625 C-12.65283203 28.03623047 -12.65283203 28.03623047 -13.58984375 27.3359375 C-20.89059209 22.32325874 -29.92952565 19.38717318 -38.734375 18.72265625 C-39.35957031 18.67109375 -39.98476562 18.61953125 -40.62890625 18.56640625 C-59.07797908 17.7449262 -74.49678012 25.45788264 -86.734375 38.72265625 Z " fill="#ffffff" transform="translate(2305.734375,226.27734375)"/>
<path d="M0 0 C4.57064532 3.64194846 8.00685259 7.05055793 11.69140625 11.65625 C12.02140625 4.39625 12.35140625 -2.86375 12.69140625 -10.34375 C24.90140625 -10.34375 37.11140625 -10.34375 49.69140625 -10.34375 C49.69140625 50.04625 49.69140625 110.43625 49.69140625 172.65625 C37.48140625 172.65625 25.27140625 172.65625 12.69140625 172.65625 C12.36140625 165.06625 12.03140625 157.47625 11.69140625 149.65625 C9.97953125 151.47125 8.26765625 153.28625 6.50390625 155.15625 C-8.35854473 170.25380165 -27.29299778 176.50958783 -48.24609375 176.90625 C-73.10915187 176.41282658 -94.56732988 167.91879923 -112.4921875 150.5390625 C-131.08612513 130.74902362 -138.12053784 103.16839922 -137.49609375 76.59375 C-136.24692358 50.36117648 -127.24388992 26.21108427 -108.30859375 7.65625 C-78.92004473 -18.09616122 -32.31571339 -23.73814641 0 0 Z M-64.30859375 24.65625 C-65.04078125 24.945 -65.77296875 25.23375 -66.52734375 25.53125 C-79.84945043 31.4521863 -88.78245353 42.94446502 -94.24609375 56.15625 C-100.19614973 73.18572057 -100.22685495 92.43602557 -92.69360352 108.97436523 C-85.55181131 123.51862419 -75.40199185 132.67667972 -60.359375 138.62109375 C-45.83313356 143.54997209 -30.99901375 142.49013186 -17.05859375 136.03125 C-3.77861708 128.85192839 5.81986421 116.89614212 10.69140625 102.65625 C15.65431744 82.92419348 14.53311069 64.20012108 4.3515625 46.30078125 C-3.39530345 33.83283356 -14.42182925 25.32277887 -28.5546875 21.3515625 C-40.78669359 19.08590476 -52.77275306 19.88279868 -64.30859375 24.65625 Z " fill="#ffffff" transform="translate(1474.30859375,626.34375)"/>
<path d="M0 0 C12.54 0 25.08 0 38 0 C38.33 36.63 38.66 73.26 39 111 C41.31 108.36 43.62 105.72 46 103 C57.87818831 90.21152062 75.47773537 83.68039893 92.66796875 82.875 C113.30718301 82.43876826 133.44012712 88.16725716 148.59375 102.6015625 C149.78484375 103.78878906 149.78484375 103.78878906 151 105 C151.7734375 105.75023437 152.546875 106.50046875 153.34375 107.2734375 C168.53318451 122.93103952 174.37412198 144.52060377 174.22705078 165.8972168 C174.22734283 167.03023727 174.22763489 168.16325775 174.22793579 169.33061218 C174.22655402 173.03689513 174.21104739 176.74297138 174.1953125 180.44921875 C174.19157827 183.03424469 174.18873324 185.61927206 174.18673706 188.20429993 C174.1799081 194.28843526 174.16418139 200.37248661 174.14403808 206.45659047 C174.12158664 213.39019788 174.11066254 220.323809 174.10064721 227.25744379 C174.07981207 241.50500795 174.04317328 255.75248642 174 270 C161.46 270 148.92 270 136 270 C135.9906543 266.80691162 135.98130859 263.61382324 135.97167969 260.32397461 C135.93778234 249.7268104 135.88216286 239.12983832 135.81609726 228.53282833 C135.77673282 222.11326573 135.74449029 215.69383805 135.72900391 209.27416992 C135.71376463 203.06887265 135.6791905 196.86394658 135.63169098 190.65881538 C135.61695192 188.30161341 135.60896332 185.94435842 135.60811615 183.58711052 C135.59392903 163.89012358 134.45750558 146.30631759 120.4375 131.14453125 C108.94157135 121.03032479 95.86804734 119.0709945 81.20947266 119.8046875 C69.54060113 120.83618996 58.45054015 126.62679477 50.5234375 135.16796875 C43.26966048 143.8911006 38.93465426 155.30457051 38.84178162 166.70137024 C38.8319928 167.6169722 38.82220398 168.53257416 38.81211853 169.47592163 C38.80636307 170.46782501 38.8006076 171.45972839 38.79467773 172.48168945 C38.78477814 173.53580521 38.77487854 174.58992096 38.76467896 175.67597961 C38.7331289 179.15505743 38.70833212 182.63414889 38.68359375 186.11328125 C38.66301862 188.52752535 38.642022 190.94176589 38.62062073 193.35600281 C38.56545781 199.70664588 38.516023 206.05732116 38.46777344 212.40802002 C38.41751624 218.889881 38.36185219 225.37169529 38.30664062 231.85351562 C38.19912971 244.56897199 38.09816872 257.28446807 38 270 C25.46 270 12.92 270 0 270 C0 180.9 0 91.8 0 0 Z " fill="#ffffff" transform="translate(1773,529)"/>
<path d="M0 0 C12.54 0 25.08 0 38 0 C38.33 36.63 38.66 73.26 39 111 C41.31 108.36 43.62 105.72 46 103 C57.05047812 91.10266281 73.88002698 83.97786601 90 83 C90.845625 82.94714844 91.69125 82.89429688 92.5625 82.83984375 C112.43055879 82.21896691 132.14643962 88.19141997 147.1875 101.375 C148.80802796 102.89945922 150.41340725 104.44025315 152 106 C152.94166016 106.92232422 152.94166016 106.92232422 153.90234375 107.86328125 C169.03814308 123.89144063 174.37799523 146.35561748 174.22705078 167.82714844 C174.22734283 168.9408078 174.22763489 170.05446716 174.22793579 171.20187378 C174.22655616 174.83779023 174.21105992 178.47349489 174.1953125 182.109375 C174.1915775 184.64813119 174.18873283 187.18688882 174.18673706 189.72564697 C174.17991314 195.69641296 174.16419323 201.66711239 174.14403808 207.63784432 C174.12157096 214.44330301 174.11065865 221.24876552 174.10064721 228.05425215 C174.07982333 242.03621673 174.04319097 256.01808753 174 270 C161.46 270 148.92 270 136 270 C135.97812622 265.29339111 135.97812622 265.29339111 135.95581055 260.49169922 C135.90529589 250.08214197 135.83867159 239.67273166 135.76428509 229.26331902 C135.71970762 222.95697197 135.68042397 216.65068765 135.65356445 210.34423828 C135.62740523 204.24921873 135.58691452 198.15444223 135.53681374 192.05957413 C135.52023 189.7434099 135.50866319 187.42720371 135.50238609 185.11098862 C135.4449925 165.86605252 135.07185809 146.62092035 120.96484375 131.7421875 C109.96349755 121.98751473 96.94646387 119.09158752 82.63671875 119.6171875 C73.29349586 120.22441106 65.41560922 123.06636246 57.90234375 128.6328125 C56 130 56 130 53.87890625 130.9296875 C51.49445754 132.28798053 51.08498685 133.51547128 50 136 C49.05499779 137.36350319 48.09566646 138.71714623 47.125 140.0625 C41.98791074 147.66137286 38.91608976 156.53573915 38.84178162 165.73933411 C38.82709839 167.12535828 38.82709839 167.12535828 38.81211853 168.53938293 C38.80636307 169.54063705 38.8006076 170.54189117 38.79467773 171.57348633 C38.78477814 172.63735565 38.77487854 173.70122498 38.76467896 174.79733276 C38.73312692 178.3088764 38.70833133 181.82043355 38.68359375 185.33203125 C38.6630188 187.76869557 38.64202218 190.20535635 38.62062073 192.64201355 C38.56545604 199.05184064 38.51602201 205.46169965 38.46777344 211.87158203 C38.41751753 218.41376583 38.36185281 224.95590336 38.30664062 231.49804688 C38.19912755 244.33199316 38.09816721 257.16597882 38 270 C25.46 270 12.92 270 0 270 C0 180.9 0 91.8 0 0 Z " fill="#ffffff" transform="translate(2863,529)"/>
<path d="M0 0 C1.55977287 1.3332712 3.10215709 2.68719896 4.625 4.0625 C5.37007812 4.71476562 6.11515625 5.36703125 6.8828125 6.0390625 C25.23792754 23.11507545 33.53199108 47.60302317 35.625 72.0625 C35.625 75.6925 35.625 79.3225 35.625 83.0625 C-13.215 83.0625 -62.055 83.0625 -112.375 83.0625 C-107.61009901 102.12210395 -101.71134926 118.56037161 -84.375 129.0625 C-68.51911351 137.52054346 -50.0806198 138.63037585 -32.78881836 133.90112305 C-23.80741215 131.16018764 -12.29675639 125.92724986 -7.40214539 117.35958862 C-4.50244499 112.43383679 -4.50244499 112.43383679 -1.49902344 111.44462585 C0.76638401 111.25281248 2.93590446 111.27418247 5.20703125 111.37890625 C6.02121017 111.38881088 6.8353891 111.39871552 7.67424011 111.40892029 C10.26385982 111.4479754 12.8491718 111.53576389 15.4375 111.625 C17.1972042 111.6601261 18.95697516 111.69206286 20.71679688 111.72070312 C25.02118018 111.79770624 29.322361 111.91841369 33.625 112.0625 C30.63333044 129.95009802 19.7338972 144.02468157 5.625 155.0625 C1.15461542 158.10519071 -3.55520762 160.62258245 -8.375 163.0625 C-9.31730469 163.54589844 -10.25960938 164.02929688 -11.23046875 164.52734375 C-32.50645549 174.4001218 -61.05608427 175.75547594 -83.375 169.0625 C-84.53386719 168.7221875 -85.69273438 168.381875 -86.88671875 168.03125 C-99.81919167 163.82001569 -111.21279649 157.09941692 -121.375 148.0625 C-122.12136719 147.41023437 -122.86773438 146.75796875 -123.63671875 146.0859375 C-138.60463245 132.13678232 -147.18494055 113.04503239 -150.375 93.0625 C-150.50519531 92.29035156 -150.63539062 91.51820313 -150.76953125 90.72265625 C-154.27975171 65.58947772 -148.20970863 38.66968152 -133.2109375 18.09375 C-116.785773 -2.45181659 -95.20674739 -15.3665313 -68.90625 -18.625 C-44.25546778 -20.80648515 -19.72556848 -15.28122743 0 0 Z M-92.375 25.0625 C-93.344375 25.76375 -94.31375 26.465 -95.3125 27.1875 C-101.87497571 32.8026367 -106.56526638 40.9648826 -109.375 49.0625 C-109.375 49.7225 -109.375 50.3825 -109.375 51.0625 C-75.715 51.0625 -42.055 51.0625 -7.375 51.0625 C-13.39365965 36.61771684 -20.93570271 24.82103276 -35.50390625 18.09375 C-54.43404579 11.29435294 -75.99989419 12.58622891 -92.375 25.0625 Z " fill="#ffffff" transform="translate(1489.375,228.9375)"/>
<path d="M0 0 C1.54890544 1.47158488 3.09128196 2.95009316 4.625 4.4375 C5.23730469 4.97632813 5.84960938 5.51515625 6.48046875 6.0703125 C15.21588331 14.02613629 21.36639208 25.54559573 25.625 36.4375 C25.98207031 37.345 26.33914063 38.2525 26.70703125 39.1875 C31.68394287 52.90662716 32.625 65.75858831 32.625 80.4375 C-16.215 80.4375 -65.055 80.4375 -115.375 80.4375 C-109.82003641 100.43536891 -104.38017398 116.15351999 -86.21875 126.96875 C-70.14001704 135.27315054 -50.73510245 136.0526449 -33.56640625 130.625 C-23.87774802 127.01991787 -13.72222789 121.91202412 -8.76611328 112.32543945 C-6.375 109.4375 -6.375 109.4375 -2.52441406 108.75634766 C-0.97949195 108.75729319 0.56564216 108.79094781 2.109375 108.8515625 C2.92496887 108.86005219 3.74056274 108.86854187 4.58087158 108.87728882 C7.18027098 108.91081881 9.77654221 108.98608891 12.375 109.0625 C14.13927804 109.09260051 15.90360482 109.11997618 17.66796875 109.14453125 C21.98818041 109.21060776 26.30606033 109.3141198 30.625 109.4375 C29.97745295 115.39307606 28.96817446 119.85312401 26.25 125.1875 C25.9005835 125.87779297 25.55116699 126.56808594 25.19116211 127.27929688 C21.39289574 134.40918781 16.40969857 139.86951924 10.625 145.4375 C9.89539062 146.17484375 9.16578125 146.9121875 8.4140625 147.671875 C-11.28283741 166.56332547 -38.21963205 170.2984568 -64.34375 169.78515625 C-90.10468649 168.82531366 -113.22920774 157.41629815 -131 138.8125 C-140.22639139 128.11714826 -146.17426708 115.83433742 -150.375 102.4375 C-150.7153125 101.40238281 -151.055625 100.36726563 -151.40625 99.30078125 C-158.01439937 74.91793382 -153.7367856 46.49222592 -141.75 24.44921875 C-128.03215095 1.99894265 -108.00828503 -13.16867687 -82.5 -19.375 C-53.4486161 -25.37589339 -22.60722853 -20.01965418 0 0 Z M-102.21875 28.37890625 C-106.88647115 34.27309494 -110.55270741 41.14832963 -112.375 48.4375 C-78.715 48.4375 -45.055 48.4375 -10.375 48.4375 C-12.84804748 40.59110568 -12.84804748 40.59110568 -16.8125 34.1875 C-17.43382812 33.35089844 -18.05515625 32.51429688 -18.6953125 31.65234375 C-19.24960938 30.92144531 -19.80390625 30.19054687 -20.375 29.4375 C-20.973125 28.550625 -21.57125 27.66375 -22.1875 26.75 C-32.39457745 15.95966098 -46.33049237 11.60831758 -60.875 11.1875 C-76.45413774 11.66469881 -91.30829484 16.89056681 -102.21875 28.37890625 Z " fill="#ffffff" transform="translate(1938.375,231.5625)"/>
<path d="M0 0 C10.65245187 9.04885697 17.69585002 19.8218888 22.29296875 32.91015625 C22.29296875 33.57015625 22.29296875 34.23015625 22.29296875 34.91015625 C16.74304846 35.10891373 11.19522722 35.25354278 5.64257812 35.34960938 C3.75679413 35.38967744 1.87125614 35.44415122 -0.01367188 35.51367188 C-15.71813651 36.07810295 -15.71813651 36.07810295 -20.57568359 33.22558594 C-22.52672425 31.22601193 -24.10109935 29.18939986 -25.70703125 26.91015625 C-41.15586041 15.39601548 -60.75355929 13.17615881 -79.39453125 15.66015625 C-87.0441115 16.9736271 -95.22540091 19.09630589 -100.70703125 24.91015625 C-104.01267281 30.52974691 -104.02434195 34.75115097 -102.70703125 40.91015625 C-102.0422456 43.78974181 -102.0422456 43.78974181 -100.70703125 45.91015625 C-99.39770892 46.62282536 -98.06039311 47.28514914 -96.70703125 47.91015625 C-96.14886719 48.22855469 -95.59070312 48.54695312 -95.015625 48.875 C-89.86551543 51.55219683 -84.76090878 52.54806905 -79.0859375 53.390625 C-77.83828613 53.58170334 -77.83828613 53.58170334 -76.56542969 53.77664185 C-70.7176888 54.65502458 -64.85932194 55.41712785 -58.98828125 56.12109375 C-58.18346817 56.21787918 -57.37865509 56.31466461 -56.54945374 56.41438293 C-53.28689284 56.80442598 -50.02433433 57.19287747 -46.75927734 57.56152344 C-25.04197136 60.03186158 -1.85504879 63.97037432 13.328125 81.22265625 C23.23100508 94.34239546 25.04455275 111.29281388 22.83203125 127.23046875 C19.74379098 141.14571609 11.84527069 152.28635035 -0.00390625 160.203125 C-24.62319089 175.55103405 -57.86357343 177.82234941 -85.7734375 171.8828125 C-101.5632598 168.11925367 -115.46903238 161.73524228 -127.70703125 150.91015625 C-128.31933594 150.39195312 -128.93164062 149.87375 -129.5625 149.33984375 C-139.08363343 140.66842245 -146.60236721 127.5381405 -148.70703125 114.91015625 C-135.17703125 114.91015625 -121.64703125 114.91015625 -107.70703125 114.91015625 C-105.72703125 118.37515625 -105.72703125 118.37515625 -103.70703125 121.91015625 C-93.70058921 133.38932061 -78.79881787 138.50911547 -63.96484375 139.78515625 C-48.70943858 140.62974616 -31.58366753 139.66317532 -19.3046875 129.52734375 C-15.960712 126.14248836 -14.77267068 122.95691296 -14.62109375 118.23046875 C-14.91765214 112.4709926 -15.66824218 108.26779708 -19.70703125 103.91015625 C-28.28850246 98.0209113 -37.69217738 96.39715249 -47.87109375 95.2265625 C-50.23437622 94.93555675 -52.59765743 94.6445408 -54.9609375 94.35351562 C-58.63979823 93.91206212 -62.31906604 93.47419381 -65.99853516 93.0378418 C-91.89244432 89.9433057 -116.834201 86.71944841 -134.171875 65.08203125 C-142.70669005 52.73378821 -143.39781843 37.18672861 -141.234375 22.7578125 C-137.70293173 9.37216227 -128.3168477 -1.11108982 -116.70703125 -8.08984375 C-82.2105406 -26.8165101 -31.31916767 -24.17857821 0 0 Z " fill="#ffffff" transform="translate(1708.70703125,630.08984375)"/>
<path d="M0 0 C1.18443695 0.00141495 2.3688739 0.0028299 3.58920288 0.00428772 C7.33814111 0.00984416 11.0870176 0.02238843 14.8359375 0.03515625 C17.39192622 0.04017688 19.94791588 0.0447388 22.50390625 0.04882812 C28.73962574 0.05894448 34.97521324 0.07852826 41.2109375 0.09765625 C41.2109375 12.63765625 41.2109375 25.17765625 41.2109375 38.09765625 C34.57677734 38.15373047 34.57677734 38.15373047 27.80859375 38.2109375 C24.23234139 38.24917228 20.65614602 38.29024355 17.07994843 38.33319855 C13.33237338 38.37744885 9.58489961 38.41696201 5.8371582 38.4440918 C-26.81878749 37.7036868 -26.81878749 37.7036868 -55.84765625 50.7578125 C-61.75911097 56.99358643 -64.88182149 66.4155368 -64.94728088 74.90655518 C-64.96196411 76.3536235 -64.96196411 76.3536235 -64.97694397 77.82992554 C-64.98269943 78.88152863 -64.9884549 79.93313171 -64.99438477 81.01660156 C-65.00428436 82.12909271 -65.01418396 83.24158386 -65.02438354 84.38778687 C-65.05598566 88.06709663 -65.08075102 91.74641932 -65.10546875 95.42578125 C-65.12603938 97.97597592 -65.14703588 100.52616719 -65.16844177 103.07635498 C-65.21800735 109.10399763 -65.26327561 115.13165776 -65.30646414 121.15934825 C-65.35587986 128.02270305 -65.41078189 134.88601054 -65.46614373 141.74931955 C-65.579886 155.86538933 -65.68601764 169.98150454 -65.7890625 184.09765625 C-78.3290625 184.09765625 -90.8690625 184.09765625 -103.7890625 184.09765625 C-103.7890625 123.70765625 -103.7890625 63.31765625 -103.7890625 1.09765625 C-91.2490625 1.09765625 -78.7090625 1.09765625 -65.7890625 1.09765625 C-65.2940625 12.48265625 -65.2940625 12.48265625 -64.7890625 24.09765625 C-62.8090625 21.78765625 -60.8290625 19.47765625 -58.7890625 17.09765625 C-41.7760168 2.77376938 -21.52204455 -0.09833945 0 0 Z " fill="#ffffff" transform="translate(2114.7890625,212.90234375)"/>
<path d="M0 0 C1.84536598 0.00212242 1.84536598 0.00212242 3.72801208 0.00428772 C7.62989812 0.0098534 11.53172527 0.02239954 15.43359375 0.03515625 C18.09049395 0.04074359 20.7473936 0.04473781 23.40429688 0.04882812 C29.89326971 0.05895765 36.38211637 0.07853979 42.87109375 0.09765625 C42.87109375 12.63765625 42.87109375 25.17765625 42.87109375 38.09765625 C36.09384766 38.15373047 36.09384766 38.15373047 29.1796875 38.2109375 C26.28577202 38.24127909 23.3919135 38.27246697 20.49804688 38.30664062 C15.92329094 38.36058526 11.34864763 38.41170484 6.77368164 38.4440918 C3.07760508 38.47045552 -0.6180843 38.51107886 -4.31391716 38.56084251 C-5.71096854 38.57729136 -7.10808654 38.58894028 -8.50522041 38.59527016 C-23.98135655 38.67235074 -42.13456953 40.21353913 -54.12890625 51.09765625 C-61.94825133 61.7940967 -63.26054503 72.14392305 -63.33422852 84.98999023 C-63.34412811 86.06390518 -63.35402771 87.13782013 -63.36422729 88.24427795 C-63.39569681 91.77741323 -63.42054203 95.31056194 -63.4453125 98.84375 C-63.46589459 101.29997599 -63.48689139 103.75619855 -63.50828552 106.2124176 C-63.5633765 112.66495977 -63.61284285 119.11753322 -63.66113281 125.57012939 C-63.71144274 132.15941132 -63.76707919 138.74864805 -63.82226562 145.33789062 C-63.92968846 158.25777525 -64.03067604 171.17769846 -64.12890625 184.09765625 C-76.33890625 184.09765625 -88.54890625 184.09765625 -101.12890625 184.09765625 C-101.12890625 123.70765625 -101.12890625 63.31765625 -101.12890625 1.09765625 C-88.91890625 1.09765625 -76.70890625 1.09765625 -64.12890625 1.09765625 C-63.63390625 12.48265625 -63.63390625 12.48265625 -63.12890625 24.09765625 C-61.14890625 21.78765625 -59.16890625 19.47765625 -57.12890625 17.09765625 C-40.36432718 3.1308453 -21.23729646 -0.09301112 0 0 Z " fill="#ffffff" transform="translate(2331.12890625,614.90234375)"/>
<path d="M0 0 C64.02 0 128.04 0 194 0 C194 16.17 194 32.34 194 49 C129.98 49 65.96 49 0 49 C0 32.83 0 16.66 0 0 Z " fill="#ffffff" transform="translate(319,444)"/>
<path d="M0 0 C2.31 0 4.62 0 7 0 C7.49371094 1.21558594 7.98742188 2.43117187 8.49609375 3.68359375 C9.14309709 5.2682831 9.7902397 6.85291559 10.4375 8.4375 C10.76298828 9.23994141 11.08847656 10.04238281 11.42382812 10.86914062 C11.73642578 11.63291016 12.04902344 12.39667969 12.37109375 13.18359375 C12.65911865 13.89056396 12.94714355 14.59753418 13.24389648 15.32592773 C13.88053845 16.99832767 13.88053845 16.99832767 15 18 C17.31 12.06 19.62 6.12 22 0 C24.64 0 27.28 0 30 0 C30 9.24 30 18.48 30 28 C28.35 28 26.7 28 25 28 C24.67 22.06 24.34 16.12 24 10 C23.32904297 11.82337891 23.32904297 11.82337891 22.64453125 13.68359375 C22.03490107 15.26863222 21.42416635 16.85324617 20.8125 18.4375 C20.52052734 19.23994141 20.22855469 20.04238281 19.92773438 20.86914062 C19.62802734 21.63291016 19.32832031 22.39667969 19.01953125 23.18359375 C18.75245361 23.89056396 18.48537598 24.59753418 18.21020508 25.32592773 C17 27 17 27 12 28 C9.69 22.39 7.38 16.78 5 11 C4.67 16.61 4.34 22.22 4 28 C2.68 28 1.36 28 0 28 C0 18.76 0 9.52 0 0 Z " fill="#ffffff" transform="translate(2419,216)"/>
<path d="M0 0 C8.25 0 16.5 0 25 0 C25 1.65 25 3.3 25 5 C21.7 5 18.4 5 15 5 C15 12.59 15 20.18 15 28 C13.35 28 11.7 28 10 28 C10 20.41 10 12.82 10 5 C6.7 5 3.4 5 0 5 C0 3.35 0 1.7 0 0 Z " fill="#ffffff" transform="translate(2389,216)"/>
</svg>
