<?xml version="1.0" encoding="UTF-8"?>
<svg version="1.1" xmlns="http://www.w3.org/2000/svg" width="196" height="61" viewBox="0 0 638 202">
<path d="M0 0 C3.43030767 3.06538132 4.81377742 4.95715354 5.625 9.5 C5 13 5 13 2.49145508 15.45751953 C-1.44408188 20.00093639 -0.61876295 25.4745946 -0.48828125 31.1796875 C-0.48120651 32.3475882 -0.47413177 33.51548889 -0.46684265 34.71878052 C-0.43892017 38.43817993 -0.37618052 42.15605783 -0.3125 45.875 C-0.28741459 48.40101988 -0.26460185 50.92706343 -0.24414062 53.453125 C-0.18910025 59.63593321 -0.10549322 65.81785789 0 72 C6.86949629 68.63306418 13.63448662 65.19986267 20.1875 61.25 C24.68488824 58.54681829 29.18287643 55.87955876 33.796875 53.37890625 C34.57393799 52.94868164 35.35100098 52.51845703 36.15161133 52.07519531 C37.63920771 51.25346633 39.13618627 50.4484253 40.64331055 49.66308594 C44.5116524 47.49492593 45.76002913 46.64219478 47.375 42.3203125 C47.58125 41.22460938 47.7875 40.12890625 48 39 C49.86555302 36.68671426 51.17137164 36.12413908 54.0859375 35.6875 C58.02381933 35.47817738 60.46185835 35.71971789 64 37.5625 C66.54977482 40.67003806 66.7716978 43.04276182 67 47 C68.06951904 47.40400024 68.06951904 47.40400024 69.16064453 47.81616211 C72.04900745 49.02043311 74.70039854 50.41191176 77.4296875 51.94140625 C78.46544922 52.52140381 79.50121094 53.10140137 80.56835938 53.69897461 C82.20514648 54.62141968 82.20514648 54.62141968 83.875 55.5625 C84.99455078 56.18713135 86.11410156 56.8117627 87.26757812 57.45532227 C92.83507478 60.57799316 98.29929322 63.78273985 103.65722656 67.2512207 C109.85376481 71.38536167 109.85376481 71.38536167 117.125 71.875 C118.40375 71.58625 119.6825 71.2975 121 71 C124.23340202 72.26524427 125.63270392 73.57148791 127.875 76.1875 C129.37463053 79.93657633 129.3872169 83.18704863 128 87 C127.3365155 87.5908136 126.67303101 88.1816272 125.98944092 88.79034424 C123.54820541 91.50180456 123.48836368 92.72181349 123.45410156 96.31933594 C123.43438293 97.38013367 123.41466431 98.4409314 123.39434814 99.53387451 C123.39311951 100.67253967 123.39189087 101.81120483 123.390625 102.984375 C123.37408875 104.15510559 123.35755249 105.32583618 123.34051514 106.53204346 C123.29192919 110.27141511 123.27063967 114.01037976 123.25 117.75 C123.22184934 120.28517684 123.19192321 122.82033464 123.16015625 125.35546875 C123.08616719 131.57023835 123.03458676 137.78489299 123 144 C123.94939453 144.42732422 123.94939453 144.42732422 124.91796875 144.86328125 C127 146 127 146 128.3125 148.1875 C129.20739139 151.8484193 128.92812307 154.35380221 128 158 C126.10888889 160.3181362 124.66171969 161.66914015 122 163 C120.36345774 162.90744444 118.72810782 162.79331469 117.09375 162.66796875 C109.96506982 162.61575674 105.37436708 165.55767003 99.5 169.3125 C97.40316391 170.60419692 95.30549571 171.89454394 93.20703125 173.18359375 C92.1701416 173.82925293 91.13325195 174.47491211 90.06494141 175.14013672 C87.19142055 176.88384246 84.28680737 178.51117047 81.32421875 180.09765625 C80.01904297 180.80571411 80.01904297 180.80571411 78.6875 181.52807617 C77.06767955 182.40078607 75.4391169 183.25753584 73.80078125 184.0949707 C68.14460352 187.21178127 66.81399008 189.83749015 65 196 C62.61449866 198.31533953 61.12655384 198.95566336 57.81640625 199.0859375 C54.07034195 198.85219293 51.60018759 198.39524548 48.4375 196.3125 C46.61279537 193.37710559 46.69140342 191.39456234 47 188 C46.30269775 187.74114014 45.60539551 187.48228027 44.88696289 187.21557617 C41.7023589 185.8746761 38.80453955 184.27276801 35.80859375 182.55078125 C34.92966209 182.04722359 34.92966209 182.04722359 34.03297424 181.53349304 C32.16605729 180.4628585 30.30177901 179.38771995 28.4375 178.3125 C27.21305612 177.60973762 25.988448 176.90726131 24.76367188 176.20507812 C24.16132217 175.85913101 23.55897247 175.5131839 22.93836975 175.15675354 C21.7288192 174.46223466 20.51872704 173.76865816 19.30809021 173.07603455 C16.38735544 171.3993711 13.49971608 169.69201305 10.63110352 167.92602539 C9.58752686 167.28785889 8.5439502 166.64969238 7.46875 165.9921875 C6.55416016 165.41968262 5.63957031 164.84717773 4.69726562 164.25732422 C0.82892719 162.45410708 -2.46832559 162.70437894 -6.64453125 163.01171875 C-9 163 -9 163 -12.125 161.125 C-14.71553279 158.18906283 -15.19130904 156.46483974 -15.3125 152.625 C-15.34988281 151.85414063 -15.38726562 151.08328125 -15.42578125 150.2890625 C-15 148 -15 148 -13.00750732 146.19512939 C-10.51914117 143.4742 -10.48808765 142.22537853 -10.45410156 138.58886719 C-10.42452362 136.96763947 -10.42452362 136.96763947 -10.39434814 135.31365967 C-10.39311951 134.15312073 -10.39189087 132.99258179 -10.390625 131.796875 C-10.37408875 130.60394836 -10.35755249 129.41102173 -10.34051514 128.1819458 C-10.2919247 124.3712454 -10.27063862 120.5609444 -10.25 116.75 C-10.22184973 114.16664645 -10.19192365 111.5833116 -10.16015625 109 C-10.08616253 102.66673944 -10.03458473 96.33359172 -10 90 C-10.639375 89.71125 -11.27875 89.4225 -11.9375 89.125 C-14 88 -14 88 -15 86 C-15.41974782 81.81866594 -15.63782635 78.18867638 -13.625 74.4375 C-12 73 -12 73 -10 73 C-10 54.85 -10 36.7 -10 18 C-11.32 17.34 -12.64 16.68 -14 16 C-15.73765543 12.52468913 -15.59585352 8.7911999 -15 5 C-10.61825317 -0.68442832 -6.90421992 -1.78557412 0 0 Z M58.37109375 56.24609375 C52.09411108 64.27562429 50.99171252 76.27451016 49 86 C46.16032769 86 43.76264289 85.59732819 41 85 C41.6243506 82.02069594 42.24946491 79.04155539 42.875 76.0625 C43.04902344 75.23169922 43.22304688 74.40089844 43.40234375 73.54492188 C44.56302438 68.02094183 45.76609747 62.50809643 47 57 C38.58142855 61.08207427 30.43955808 65.5096869 22.375 70.25 C21.30121094 70.87390625 20.22742188 71.4978125 19.12109375 72.140625 C13.74020197 75.14374344 13.74020197 75.14374344 9 79 C9.93457031 79.13535156 10.86914062 79.27070312 11.83203125 79.41015625 C36.3171462 83.28538439 59.8092483 94.83105144 80 109 C80.33 109.66 80.66 110.32 81 111 C77.98730284 112.67372064 75.45638654 113.76698518 72 114 C69.55140208 112.78613964 67.44591853 111.56325362 65.1875 110.0625 C63.85057249 109.21931661 62.51062514 108.38090571 61.16796875 107.546875 C60.13615479 106.90588867 60.13615479 106.90588867 59.08349609 106.25195312 C43.62882678 96.9653883 21.42452983 84.90904269 3 88 C0.80009329 89.13690191 0.80009329 89.13690191 -1 91 C-1.60523447 93.40858104 -1.60523447 93.40858104 -1.51757812 96.15820312 C-1.53018677 97.20939331 -1.54279541 98.2605835 -1.55578613 99.34362793 C-1.54768921 100.47804321 -1.53959229 101.6124585 -1.53125 102.78125 C-1.53699036 104.52879578 -1.53699036 104.52879578 -1.54284668 106.31164551 C-1.54557023 108.77629459 -1.53817825 111.24097236 -1.52148438 113.70556641 C-1.50008293 117.48535398 -1.52127309 121.26324053 -1.546875 125.04296875 C-1.5442318 127.43490004 -1.539107 129.82683015 -1.53125 132.21875 C-1.53934692 133.35316528 -1.54744385 134.48758057 -1.55578613 135.65637207 C-1.54317749 136.70756226 -1.53056885 137.75875244 -1.51757812 138.84179688 C-1.51439575 139.76762573 -1.51121338 140.69345459 -1.50793457 141.64733887 C-1.19364781 144.13073918 -1.19364781 144.13073918 0.79772949 145.80334473 C6.37244227 148.83249551 13.16397122 146.72343302 18.9375 145.125 C20.33180399 144.75695048 21.72633443 144.38975772 23.12109375 144.0234375 C24.11665283 143.75805176 24.11665283 143.75805176 25.13232422 143.48730469 C28.7311053 142.5483286 32.36399392 141.77914416 36 141 C36.495 144.96 36.495 144.96 37 149 C28.04180231 151.50525868 19.02917477 153.76819645 10 156 C13.42879004 158.87102453 16.86898469 161.18667127 20.78125 163.34765625 C21.87050781 163.95287109 22.95976563 164.55808594 24.08203125 165.18164062 C25.77392578 166.11266602 25.77392578 166.11266602 27.5 167.0625 C29.7399208 168.30277615 31.97951618 169.54364022 34.21875 170.78515625 C35.20810547 171.33051025 36.19746094 171.87586426 37.21679688 172.43774414 C39.08058323 173.48391685 40.92111582 174.57257441 42.73632812 175.70092773 C44.8541184 177.16591328 44.8541184 177.16591328 47 177 C46.04399252 172.62931685 45.0761114 168.26475317 44 163.921875 C38.84519901 142.74313714 38.70463338 121.67309362 39 100 C41.97 100.99 44.94 101.98 48 103 C47.67 103.99 47.34 104.98 47 106 C45.55825677 127.34264596 45.71344194 159.35373302 58 178 C60.27947636 179.3871142 60.27947636 179.3871142 63 180 C65.42341587 179.30300634 65.42341587 179.30300634 67.74609375 177.80859375 C68.65601074 177.28193115 69.56592773 176.75526855 70.50341797 176.21264648 C71.95578857 175.33394897 71.95578857 175.33394897 73.4375 174.4375 C74.4392627 173.848479 75.44102539 173.25945801 76.47314453 172.65258789 C78.58151798 171.41092429 80.68560775 170.16196199 82.78564453 168.90625 C85.96008313 167.02367241 89.1593141 165.19300721 92.37109375 163.375 C94.37275731 162.22979825 96.37407246 161.08398725 98.375 159.9375 C99.32560303 159.4024585 100.27620605 158.86741699 101.25561523 158.31616211 C102.56381226 157.55444702 102.56381226 157.55444702 103.8984375 156.77734375 C104.66849121 156.33640381 105.43854492 155.89546387 106.23193359 155.44116211 C108.14445984 154.12135855 108.14445984 154.12135855 108.8125 151.9519043 C109.22061971 147.7033143 105.47023031 144.18595096 103 141 C98.10076462 135.10851442 92.95748101 129.81668678 87 125 C89.36292656 122.47411298 90.66462511 121.11179163 94 120 C100.53961269 125.74497995 106.67889641 131.31301666 111.79296875 138.41796875 C112.19128906 138.94003906 112.58960938 139.46210938 113 140 C113.33 140 113.66 140 114 140 C114 125.15 114 110.3 114 95 C109.96670864 99.03093243 109.96670864 99.03093243 106.01171875 103.12890625 C90.18878079 119.58380421 71.50663081 132.02888594 51 142 C51 138.7 51 135.4 51 132 C51.68191406 131.7525 52.36382812 131.505 53.06640625 131.25 C73.72565203 122.44712563 95.6412966 105.39007362 108.1875 86.75 C109.3264665 84.00069796 109.3264665 84.00069796 107.87353516 81.52807617 C105.74845402 78.66057354 103.96661038 77.48465826 100.8359375 75.80078125 C99.80364014 75.23568848 98.77134277 74.6705957 97.70776367 74.08837891 C96.60795166 73.50233887 95.50813965 72.91629883 94.375 72.3125 C92.10710046 71.07860862 89.84017685 69.84292183 87.57421875 68.60546875 C86.45837402 67.99880371 85.3425293 67.39213867 84.19287109 66.76708984 C79.08418611 63.9396956 74.08692478 60.92742875 69.12841797 57.8449707 C63.89034893 54.48253495 63.89034893 54.48253495 58.37109375 56.24609375 Z " fill="#ffffff" transform="translate(17,2)"/>
<path d="M0 0 C50.57081545 0 50.57081545 0 59 8 C63.35472107 14.03322541 63.89833355 20.76951047 63 28 C61.43150522 34.41876327 57.37944675 38.41370217 52 42 C52.68707031 42.54527344 53.37414062 43.09054688 54.08203125 43.65234375 C60.8143535 49.2866907 64.14503511 53.36144908 65.265625 62.0625 C65.63404654 68.79935107 63.43138691 74.44367433 59.4375 79.75 C54.45193547 85.0015506 47.77986016 87.16440225 40.64208984 87.45410156 C38.74825445 87.45312005 36.85432649 87.43175395 34.9609375 87.390625 C33.61962769 87.38458252 33.61962769 87.38458252 32.2512207 87.37841797 C28.95893386 87.35772759 25.66694299 87.30188501 22.375 87.25 C14.99125 87.1675 7.6075 87.085 0 87 C0 58.29 0 29.58 0 0 Z M12 11 C12 19.91 12 28.82 12 38 C15.96 38.04125 19.92 38.0825 24 38.125 C25.84851563 38.15231201 25.84851563 38.15231201 27.734375 38.18017578 C38.56697204 38.34942548 38.56697204 38.34942548 47.9375 33.5625 C50.91536302 29.8627308 51.35533724 26.77677335 51.27734375 22.0625 C50.8083752 18.57495927 49.29403799 16.5958851 47 14 C42.53486135 11.28727371 39.26232167 10.63811077 34.0703125 10.70703125 C32.13671875 10.7215332 32.13671875 10.7215332 30.1640625 10.73632812 C28.81770214 10.76138812 27.47134797 10.78678288 26.125 10.8125 C24.75522295 10.82756496 23.38542998 10.84125018 22.015625 10.85351562 C18.67691255 10.88878371 15.33840508 10.94258794 12 11 Z M12 48 C12 57.24 12 66.48 12 76 C16.28779954 76.09226586 20.57210288 76.17175694 24.86010742 76.21972656 C26.31595584 76.23973822 27.77172494 76.26695677 29.22729492 76.30175781 C40.36192805 76.81881868 40.36192805 76.81881868 50 72 C52.75285278 67.52661423 53.4944606 63.99485819 52.5703125 58.921875 C51.25895403 54.50277659 49.20960605 51.73966589 45.30224609 49.3503418 C41.55386969 47.81757011 38.88868346 47.65527329 34.8515625 47.70703125 C34.19417084 47.71127609 33.53677917 47.71552094 32.85946655 47.71989441 C30.78087609 47.73655023 28.70329226 47.7741738 26.625 47.8125 C25.20704536 47.82756395 23.78907536 47.84124935 22.37109375 47.85351562 C18.9133724 47.88384651 15.45779909 47.94258267 12 48 Z " fill="#ffffff" transform="translate(197,96)"/>
<path d="M0 0 C18.81 0 37.62 0 57 0 C57 3.63 57 7.26 57 11 C42.15 11 27.3 11 12 11 C12 19.91 12 28.82 12 38 C26.52 38 41.04 38 56 38 C56 41.3 56 44.6 56 48 C41.48 48 26.96 48 12 48 C12 57.24 12 66.48 12 76 C26.85 76 41.7 76 57 76 C57 79.63 57 83.26 57 87 C38.19 87 19.38 87 0 87 C0 58.29 0 29.58 0 0 Z " fill="#ffffff" transform="translate(275,96)"/>
<path d="M0 0 C2.05859375 1.59765625 2.05859375 1.59765625 5.05859375 5.59765625 C3.07859375 8.23765625 1.09859375 10.87765625 -0.94140625 13.59765625 C-3.76644149 12.18513863 -6.16196724 10.82913486 -8.75390625 9.09765625 C-16.42438763 4.33521451 -24.06666936 3.8438176 -32.94140625 4.59765625 C-36.4991851 5.70329798 -36.4991851 5.70329798 -38.94140625 7.59765625 C-39.53953125 7.98953125 -40.13765625 8.38140625 -40.75390625 8.78515625 C-42.68711886 11.73584918 -43.08229692 15.1022259 -42.94140625 18.59765625 C-41.3594782 22.59246347 -39.26263974 23.83253784 -35.36669922 25.63330078 C-29.89141456 27.81040712 -24.18802405 29.28908034 -18.51757812 30.86523438 C-9.16803621 33.57282206 -0.26557872 36.98185013 5.05859375 45.59765625 C8.14358849 52.32465867 7.58645124 60.22647653 5.1875 67.08984375 C1.72393044 74.20873758 -3.74757021 78.0853808 -11.09375 80.734375 C-22.7045025 83.33942708 -37.3064001 83.26087934 -47.94140625 77.59765625 C-52.35368992 74.73422732 -56.01041586 71.99414184 -58.94140625 67.59765625 C-56.96140625 64.95765625 -54.98140625 62.31765625 -52.94140625 59.59765625 C-49.61337507 61.26167184 -46.76193894 63.02723992 -43.69140625 65.09765625 C-36.0629982 69.95760893 -28.98861422 71.51819887 -19.94140625 70.59765625 C-14.39567288 69.35881878 -10.46304595 67.1864595 -6.94140625 62.59765625 C-5.65396363 58.89625872 -5.88124224 56.86145231 -6.75390625 53.03515625 C-9.13921982 48.13312903 -14.15158606 46.6097308 -18.94140625 44.59765625 C-23.72280888 42.97661091 -28.58697094 41.6726043 -33.46289062 40.36914062 C-41.10924134 38.19542888 -48.74860135 35.18157618 -53.44140625 28.41015625 C-56.75456208 22.19798906 -57.11908925 15.61901285 -55.140625 8.86328125 C-51.82918428 1.35279714 -46.96089192 -2.23820484 -39.55859375 -5.4296875 C-26.04266461 -10.14505185 -11.94910839 -7.35782537 0 0 Z " fill="#ffffff" transform="translate(398.94140625,102.40234375)"/>
<path d="M0 0 C3.96 0 7.92 0 12 0 C12.00410889 1.79550293 12.00821777 3.59100586 12.01245117 5.44091797 C12.03193574 11.40824886 12.07438116 17.3750563 12.13209057 23.3421154 C12.1662176 26.95602405 12.19144798 30.56951642 12.19555664 34.18359375 C12.19987075 37.67884763 12.22858571 41.17316477 12.27343178 44.66812515 C12.29252695 46.63419897 12.28707976 48.60046257 12.28105164 50.56661987 C12.4055375 58.30146516 13.30499829 64.64722291 18 71 C24.76308994 76.63614839 31.381464 77.67075243 40 77 C46.00023956 75.95355822 49.81751889 73.88596414 53.7109375 69.20703125 C58.29395055 61.3603574 58.46611687 54.22790115 58.51171875 45.3125 C58.52966995 44.01425293 58.54762115 42.71600586 58.56611633 41.37841797 C58.61332599 37.9525042 58.64332174 34.52665492 58.66955566 31.1005249 C58.69950919 27.59423082 58.74598804 24.08815841 58.79101562 20.58203125 C58.87671753 13.7214663 58.94267837 6.86086023 59 0 C62.96 0 66.92 0 71 0 C71.04544314 7.24188806 71.08202562 14.48369633 71.10362434 21.72569752 C71.1139981 25.08956575 71.12803785 28.45333016 71.15087891 31.81713867 C71.17531301 35.69713005 71.18652564 39.5769766 71.1953125 43.45703125 C71.20563507 44.64706253 71.21595764 45.83709381 71.22659302 47.06318665 C71.22819804 59.1793466 70.304246 70.55272412 61.75 79.75 C52.52362266 88.44065221 42.25557889 88.44496922 30.23828125 88.27734375 C21.98960557 87.98311415 14.66574874 85.71926568 8.56640625 79.97265625 C2.61262987 72.47475831 -0.13309541 64.2850811 -0.11352539 54.83276367 C-0.11344986 53.61187546 -0.11337433 52.39098724 -0.11329651 51.13310242 C-0.10813522 49.82460831 -0.10297394 48.5161142 -0.09765625 47.16796875 C-0.09578961 45.80748039 -0.09436687 44.44699135 -0.09336853 43.08650208 C-0.08956275 39.51744713 -0.07974914 35.94843331 -0.06866455 32.37939453 C-0.05840863 28.73275305 -0.05386197 25.08610489 -0.04882812 21.43945312 C-0.03812503 14.29295038 -0.02054404 7.14648222 0 0 Z " fill="#ffffff" transform="translate(418,96)"/>
<path d="M0 0 C1.5 2.1875 1.5 2.1875 2 4 C1.09972412 5.03531726 0.17906965 6.05294165 -0.75 7.0625 C-1.51570312 7.91521484 -1.51570312 7.91521484 -2.296875 8.78515625 C-4 10 -4 10 -5.96875 9.76171875 C-6.6390625 9.51035156 -7.309375 9.25898437 -8 9 C-13.48886228 7.17037924 -16.92361817 6.47533607 -22.30078125 8.89453125 C-25.21675781 10.79159186 -26.00978701 12.71991946 -27 16 C-27.70593193 20.47685944 -27.35942791 23.28114418 -25.3125 27.375 C-22.81354214 30.21165486 -21.56049299 30.93594462 -18 32 C-15.0946135 32.03030396 -15.0946135 32.03030396 -12.1875 31.625 C-11.21167969 31.51414063 -10.23585938 31.40328125 -9.23046875 31.2890625 C-8.12638672 31.14597656 -8.12638672 31.14597656 -7 31 C-7 29.02 -7 27.04 -7 25 C-9.64 25 -12.28 25 -15 25 C-15 21.7 -15 18.4 -15 15 C-9.06 15 -3.12 15 3 15 C3 22.59 3 30.18 3 38 C-7.54278289 42.68568128 -7.54278289 42.68568128 -14.5625 42.5 C-15.30411377 42.48718994 -16.04572754 42.47437988 -16.80981445 42.46118164 C-24.63496909 42.17033824 -29.06535196 40.28722382 -34.375 34.6875 C-38.41905173 29.51155335 -39.49595933 23.85703919 -39.30859375 17.3984375 C-38.38379677 10.21077488 -35.57965956 4.72370352 -29.9765625 0.15625 C-21.19909722 -4.97839372 -8.85717696 -4.76924913 0 0 Z " fill="#ffffff" transform="translate(557,24)"/>
<path d="M0 0 C3.444375 -0.061875 6.88875 -0.12375 10.4375 -0.1875 C11.50411865 -0.21481201 12.5707373 -0.24212402 13.66967773 -0.27026367 C20.87677841 -0.33227314 27.50782563 0.26572658 33.33984375 4.83203125 C38.26944704 10.94281088 40.46297836 15.83218123 40.25 23.765625 C39.58496405 29.70938385 36.50028578 35.10362719 32 39 C25.19240281 43.25463443 18.77430259 43.50507559 10.9375 43.25 C7.328125 43.1675 3.71875 43.085 0 43 C0 28.81 0 14.62 0 0 Z M10 10 C10 17.92 10 25.84 10 34 C16.03981263 34.16147161 16.03981263 34.16147161 21.25 32.6875 C21.89453125 32.44386719 22.5390625 32.20023438 23.203125 31.94921875 C26.52807564 30.19277743 27.80986332 28.57041003 29 25 C29.40109454 20.74839783 29.26378256 18.4993027 27.25 14.6875 C25.04402601 11.68974124 25.04402601 11.68974124 21 10 C17.37 10 13.74 10 10 10 Z " fill="#ffffff" transform="translate(473,22)"/>
<path d="M0 0 C5.754375 -0.0928125 5.754375 -0.0928125 11.625 -0.1875 C13.42251709 -0.22846802 13.42251709 -0.22846802 15.25634766 -0.27026367 C21.88833351 -0.32204996 26.6733092 0.01744963 31.8125 4.625 C33.65485651 8.30971302 34.11416153 11.89732007 34 16 C32.35238724 20.85130425 29.98343485 22.93732632 26 26 C26.6496875 27.05960938 27.299375 28.11921875 27.96875 29.2109375 C28.81273123 30.59881775 29.65646864 31.98684629 30.5 33.375 C31.14388672 34.42300781 31.14388672 34.42300781 31.80078125 35.4921875 C35 40.7734375 35 40.7734375 35 43 C31.04 43 27.08 43 23 43 C22.38511719 41.85660156 21.77023437 40.71320312 21.13671875 39.53515625 C20.32080404 38.04400177 19.50437081 36.55313093 18.6875 35.0625 C18.08131836 33.93038086 18.08131836 33.93038086 17.46289062 32.77539062 C17.06650391 32.05673828 16.67011719 31.33808594 16.26171875 30.59765625 C15.90037842 29.93258057 15.53903809 29.26750488 15.16674805 28.58227539 C13.99804854 26.67942239 13.99804854 26.67942239 11 26 C11 31.61 11 37.22 11 43 C7.37 43 3.74 43 0 43 C0 28.81 0 14.62 0 0 Z M11 9 C11 11.64 11 14.28 11 17 C12.62463842 17.05395478 14.24978541 17.09277195 15.875 17.125 C16.77992188 17.14820313 17.68484375 17.17140625 18.6171875 17.1953125 C21.18806994 17.24324836 21.18806994 17.24324836 23 15 C22.83492354 12.42459787 22.83492354 12.42459787 22 10 C19.59454362 8.79727181 18.05003047 8.89928528 15.375 8.9375 C14.55773437 8.94652344 13.74046875 8.95554687 12.8984375 8.96484375 C12.27195312 8.97644531 11.64546875 8.98804688 11 9 Z " fill="#ffffff" transform="translate(362,22)"/>
<path d="M0 0 C5.4759375 -0.0928125 5.4759375 -0.0928125 11.0625 -0.1875 C12.76805054 -0.22846802 12.76805054 -0.22846802 14.50805664 -0.27026367 C20.47419648 -0.31904178 24.76291427 0.06125488 30 3 C33.08288795 6.18233595 33.25387079 9.2306209 33.4375 13.5 C33.33665268 17.24647802 33.13483628 18.77217318 31.1875 22.0625 C29 24 29 24 26 26 C26.6496875 27.05960938 27.299375 28.11921875 27.96875 29.2109375 C28.81273123 30.59881775 29.65646864 31.98684629 30.5 33.375 C31.14388672 34.42300781 31.14388672 34.42300781 31.80078125 35.4921875 C35 40.7734375 35 40.7734375 35 43 C30.852501 43.60400471 27.12157951 43.86326825 23 43 C20.06968055 40.08661881 18.58357163 36.78141125 17 33 C15.5020667 29.58153616 15.5020667 29.58153616 14 27 C12.68 26.67 11.36 26.34 10 26 C10 31.61 10 37.22 10 43 C6.7 43 3.4 43 0 43 C0 28.81 0 14.62 0 0 Z M10 9 C10 11.64 10 14.28 10 17 C13.63 17 17.26 17 21 17 C21.66 15.35 22.32 13.7 23 12 C21.22555028 9.75393573 20.41647515 9.04918998 17.51953125 8.70703125 C16.17955078 8.75923828 16.17955078 8.75923828 14.8125 8.8125 C13.46091797 8.85310547 13.46091797 8.85310547 12.08203125 8.89453125 C11.39496094 8.92933594 10.70789063 8.96414062 10 9 Z " fill="#ffffff" transform="translate(602,21)"/>
<path d="M0 0 C3.63 0 7.26 0 11 0 C11 5.28 11 10.56 11 16 C16.61 16 22.22 16 28 16 C28 10.72 28 5.44 28 0 C31.3 0 34.6 0 38 0 C38 14.19 38 28.38 38 43 C34.7 43 31.4 43 28 43 C28 37.06 28 31.12 28 25 C22.39 25 16.78 25 11 25 C11 30.94 11 36.88 11 43 C7.37 43 3.74 43 0 43 C0 28.81 0 14.62 0 0 Z " fill="#ffffff" transform="translate(196,22)"/>
<path d="M0 0 C9.9 0 19.8 0 30 0 C30 2.97 30 5.94 30 9 C23.34362157 10.23839599 16.7528064 10.09139136 10 10 C10 11.98 10 13.96 10 16 C16.27 16 22.54 16 29 16 C29 19.3 29 22.6 29 26 C22.73 26 16.46 26 10 26 C10.33 28.64 10.66 31.28 11 34 C17.6 34 24.2 34 31 34 C31 36.97 31 39.94 31 43 C20.77 43 10.54 43 0 43 C0 28.81 0 14.62 0 0 Z " fill="#ffffff" transform="translate(436,22)"/>
<path d="M0 0 C9.57 0 19.14 0 29 0 C30.4783226 2.95664519 30.06032783 5.74229737 30 9 C27.703463 10.1482685 26.41686833 10.11561175 23.8671875 10.09765625 C23.06152344 10.09443359 22.25585938 10.09121094 21.42578125 10.08789062 C20.58402344 10.07951172 19.74226563 10.07113281 18.875 10.0625 C17.60076172 10.05573242 17.60076172 10.05573242 16.30078125 10.04882812 C14.20049091 10.03702874 12.1002367 10.01909306 10 10 C10 11.98 10 13.96 10 16 C16.27 16 22.54 16 29 16 C29 19.3 29 22.6 29 26 C22.73 26 16.46 26 10 26 C10 28.64 10 31.28 10 34 C16.93 34 23.86 34 31 34 C31 36.97 31 39.94 31 43 C20.77 43 10.54 43 0 43 C0 28.81 0 14.62 0 0 Z " fill="#ffffff" transform="translate(326,22)"/>
<path d="M0 0 C9.9 0 19.8 0 30 0 C30 2.97 30 5.94 30 9 C26.69005287 10.65497356 23.00877 10.10084335 19.375 10.0625 C18.57320312 10.05798828 17.77140625 10.05347656 16.9453125 10.04882812 C14.96350994 10.03703168 12.98174567 10.01909605 11 10 C11 11.98 11 13.96 11 16 C16.94 16 22.88 16 29 16 C29 19.3 29 22.6 29 26 C23.06 26 17.12 26 11 26 C11 28.64 11 31.28 11 34 C17.6 34 24.2 34 31 34 C31 36.97 31 39.94 31 43 C21.1 43 11.2 43 1 43 C0.21246971 28.62757219 -0.09286614 14.39425243 0 0 Z " fill="#ffffff" transform="translate(565,21)"/>
<path d="M0 0 C3.68734775 -0.08776185 7.37442347 -0.14064603 11.0625 -0.1875 C12.62000977 -0.22520508 12.62000977 -0.22520508 14.20898438 -0.26367188 C20.28351386 -0.32152454 24.66483233 0.00621706 30 3 C33.05023968 6.14863451 33.27619849 9.20822525 33.5 13.4375 C33.38734405 17.07187879 33.13614874 19.61645581 30.9375 22.5625 C24.84177308 27.62065638 18.54899466 27.20682177 11 27 C11 32.28 11 37.56 11 43 C7.7 43 4.4 43 1 43 C0.08939636 33.37963172 -0.12453809 23.84554258 -0.0625 14.1875 C-0.05746684 12.80143394 -0.0529072 11.41536607 -0.04882812 10.02929688 C-0.03717953 6.68615025 -0.02082429 3.34309989 0 0 Z M11 9 C11 11.97 11 14.94 11 18 C16.71337373 18.59236584 16.71337373 18.59236584 21.5 16 C21.995 15.34 22.49 14.68 23 14 C22.15602694 11.33749166 22.15602694 11.33749166 20 9 C16.88497009 8.53053627 14.17422748 8.76998352 11 9 Z " fill="#ffffff" transform="translate(287,22)"/>
<path d="M0 0 C4.29 0 8.58 0 13 0 C13.48210937 0.92683594 13.96421875 1.85367187 14.4609375 2.80859375 C15.0986582 4.01838743 15.73669548 5.22801426 16.375 6.4375 C16.69210937 7.04916016 17.00921875 7.66082031 17.3359375 8.29101562 C19.02304299 11.75238344 19.02304299 11.75238344 22 14 C22.3403125 13.0409375 22.3403125 13.0409375 22.6875 12.0625 C24.49036929 7.855805 26.74207806 3.9810729 29 0 C33.29 0 37.58 0 42 0 C39.05982262 5.5787981 36.16166085 10.79802593 32.40771484 15.87011719 C26.14202499 24.5603457 25.70196005 32.48515041 26 43 C22.7 43 19.4 43 16 43 C16.10183594 41.96746094 16.20367187 40.93492188 16.30859375 39.87109375 C16.99319845 25.07402364 9.93235671 15.60691215 1.36108398 4.05273438 C0 2 0 2 0 0 Z " fill="#ffffff" transform="translate(240,22)"/>
<path d="M0 0 C3.3 0 6.6 0 10 0 C10 11.22 10 22.44 10 34 C15.94 34 21.88 34 28 34 C28 36.97 28 39.94 28 43 C18.76 43 9.52 43 0 43 C0 28.81 0 14.62 0 0 Z " fill="#ffffff" transform="translate(403,22)"/>
</svg>
