<svg width="165" height="61" viewBox="0 0 163 61" fill="none" xmlns="http://www.w3.org/2000/svg">
<path d="M47.2498 50.4359H41.3445V21.6981H47.2498V50.4359Z" fill="#121212"/>
<path d="M68.5887 21.1339C71.8485 21.1339 74.5119 22.2773 76.5754 24.5632C78.636 26.8496 79.6692 29.7563 79.6692 33.2804V50.4329H73.7636V34.1802C73.7636 31.9682 73.0513 30.1392 71.626 28.6965C70.2007 27.2533 68.4403 26.5319 66.3411 26.5319C63.9778 26.5319 62.0477 27.2533 60.5484 28.6965C59.0491 30.1392 58.2978 31.9682 58.2978 34.1802V50.4329H52.3925V21.6981H58.2978V29.121C59.0845 26.6475 60.388 24.6971 62.2082 23.2718C64.0252 21.8465 66.154 21.1339 68.5917 21.1339H68.5887Z" fill="#121212"/>
<path d="M98.0803 21.1339C102.691 21.1339 106.441 22.7849 109.327 26.0833C112.213 29.385 113.395 33.3756 112.87 38.0636H89.0812C89.494 40.3886 90.5626 42.2737 92.2877 43.7169C94.0128 45.1596 96.0912 45.8814 98.5289 45.8814C100.402 45.8814 102.08 45.4211 103.561 44.5035C105.043 43.5863 106.195 42.339 107.02 40.7628L111.97 42.9568C110.696 45.3942 108.876 47.3421 106.516 48.8056C104.155 50.2695 101.436 51 98.3597 51C94.0485 51 90.4292 49.5748 87.5046 46.7275C84.58 43.8803 83.1164 40.335 83.1164 36.0982C83.1164 31.8614 84.5505 28.3102 87.4185 25.4393C90.2866 22.5712 93.8377 21.1372 98.0774 21.1372L98.0803 21.1339ZM98.0803 26.2526C95.9041 26.2526 94.0219 26.9178 92.4274 28.2508C90.8329 29.5812 89.7731 31.315 89.2504 33.4526H106.911C106.423 31.315 105.381 29.5812 103.79 28.2508C102.196 26.9207 100.292 26.2526 98.0803 26.2526Z" fill="#121212"/>
<path d="M129.196 21.1339C132.646 21.1339 135.458 22.0336 137.631 23.8331C139.805 25.6322 140.894 28.2212 140.894 31.594V50.4359H134.989V42.7876C133.225 48.2626 129.683 51 124.36 51C121.883 51 119.823 50.2608 118.172 48.779C116.521 47.2976 115.699 45.3588 115.699 42.9597C115.699 40.1479 116.691 38.0369 118.68 36.6325C120.666 35.2283 123.199 34.3552 126.272 34.0168L131.839 33.4526C133.938 33.2659 134.989 32.3275 134.989 30.6411C134.989 29.2545 134.454 28.1468 133.386 27.3244C132.317 26.4991 130.921 26.0866 129.196 26.0866C127.471 26.0866 125.942 26.5378 124.725 27.4375C123.508 28.3369 122.73 29.6494 122.391 31.3745L116.542 29.9671C117.068 27.2683 118.472 25.1216 120.761 23.5271C123.047 21.9355 125.859 21.1372 129.196 21.1372V21.1339ZM126.272 46.2169C128.709 46.2169 130.77 45.4004 132.456 43.7701C134.143 42.1402 134.986 40.2372 134.986 38.0606V36.4869C134.537 37.2382 133.448 37.7043 131.723 37.8914L126.269 38.5654C124.844 38.7554 123.709 39.1741 122.866 39.8302C122.023 40.4863 121.601 41.3773 121.601 42.5024C121.601 43.6279 122.023 44.5273 122.866 45.2012C123.709 45.8752 124.844 46.2136 126.269 46.2136L126.272 46.2169Z" fill="#121212"/>
<path d="M37.2769 50.4359H10V21.6981H16.241V44.8686H37.2769V50.4359Z" fill="#121212"/>
<path d="M146.461 21.1339C149.536 21.1339 152.028 18.6415 152.028 15.567C152.028 12.4924 149.536 10 146.461 10C143.387 10 140.894 12.4924 140.894 15.567C140.894 18.6415 143.387 21.1339 146.461 21.1339Z" fill="#121212"/>
</svg>
