<?xml version="1.0" encoding="UTF-8"?>
<svg version="1.1" xmlns="http://www.w3.org/2000/svg" width="225" height="61" viewBox="0 0 512 137">
<path d="M0 0 C0 5.94 0 11.88 0 18 C4.20325536 14.98095648 4.20325536 14.98095648 8.40405273 11.95849609 C13.20409605 8.52048366 18.07852951 5.28098033 23 2 C23 16.19 23 30.38 23 45 C17.97269447 47.51365277 13.31940471 49.77001515 8.125 51.75 C7.01382813 52.17796875 5.90265625 52.6059375 4.7578125 53.046875 C2 54 2 54 0 54 C0.01571045 54.70495605 0.0314209 55.40991211 0.04760742 56.13623047 C0.11061666 59.38240279 0.14919796 62.6284458 0.1875 65.875 C0.21263672 66.98359375 0.23777344 68.0921875 0.26367188 69.234375 C0.37044725 81.3355843 -2.50652597 91.96876414 -10.88671875 101.04296875 C-20.26529047 109.68452108 -30.56066051 112.51224524 -43.20703125 112.3125 C-55.23208733 111.32176417 -63.56643185 105.05900118 -71.359375 96.3203125 C-73.62273935 93.11926863 -75.24674588 89.50650824 -77 86 C-88.385 90.455 -88.385 90.455 -100 95 C-100.33 94.34 -100.66 93.68 -101 93 C-99.62328125 92.02160156 -99.62328125 92.02160156 -98.21875 91.0234375 C-96.97912938 90.14067736 -95.73954818 89.25786186 -94.5 88.375 C-93.59894531 87.73498047 -93.59894531 87.73498047 -92.6796875 87.08203125 C-91.4325552 86.1931178 -90.19759709 85.28692435 -88.97412109 84.36572266 C-87 83 -87 83 -84.73291016 81.92724609 C-82.09012345 80.51045261 -80.6825381 79.50502636 -79 77 C-78.48473846 72.0411175 -78.87451453 67.23158013 -79.22634888 62.26968384 C-80.29733056 45.01678674 -80.29733056 45.01678674 -75.86083984 39.19091797 C-70.08655631 34.60481825 -61.58932852 30 -54 30 C-53.67 39.24 -53.34 48.48 -53 58 C-47.34458211 53.57511912 -47.34458211 53.57511912 -41.69287109 49.14550781 C-40.61900146 48.30777832 -40.61900146 48.30777832 -39.5234375 47.453125 C-38.75112793 46.83993408 -37.97881836 46.22674316 -37.18310547 45.5949707 C-35 44 -35 44 -31.40625 42.30859375 C-28.76219084 40.26144242 -28.76219084 40.26144242 -28.70556641 37.49951172 C-28.76115293 34.26250607 -28.94173711 31.04465421 -29.125 27.8125 C-29.25527299 16.73380247 -29.25527299 16.73380247 -26.5859375 13.046875 C-22.87150148 9.99171117 -18.57772583 8.33113502 -14.07080078 6.76464844 C-11.04555154 5.64756749 -8.34364655 4.05708732 -5.5625 2.4375 C-1.1300813 0 -1.1300813 0 0 0 Z M-35.4453125 68.1875 C-36.52167969 68.63867188 -37.59804688 69.08984375 -38.70703125 69.5546875 C-40.39892578 70.27011719 -40.39892578 70.27011719 -42.125 71 C-43.82849609 71.71542969 -43.82849609 71.71542969 -45.56640625 72.4453125 C-48.3789495 73.62705336 -51.19006252 74.8120795 -54 76 C-53.15632726 81.08760229 -51.45185201 84.22452096 -47.1875 87.3125 C-42.79108922 88.6942291 -39.12282366 88.3962907 -34.8125 86.875 C-31.19664748 84.46443165 -29.79662541 83.00785669 -28 79 C-27.67855321 74.64491452 -27.76723195 70.3579352 -28 66 C-30.82238043 66 -32.84496926 67.09261863 -35.4453125 68.1875 Z " fill="#ffffff" transform="translate(101,12)"/>
<path d="M0 0 C2.53027637 1.13936421 4.6631194 2.47387389 7 4 C7.825 3.34 8.65 2.68 9.5 2 C13.45881475 -0.62985094 16.31446777 -0.52061469 21 0 C24.58678606 1.35500807 25.70627335 2.49162696 27.625 5.8125 C29.86350642 11.28716204 29.31630532 17.12804982 29.1875 22.9375 C29.16719727 24.67870117 29.16719727 24.67870117 29.14648438 26.45507812 C29.1113141 29.30387052 29.06209287 32.15168844 29 35 C26.36 35 23.72 35 21 35 C20.970271 33.87972412 20.970271 33.87972412 20.93994141 32.73681641 C20.84491789 29.36584395 20.73514741 25.99551071 20.625 22.625 C20.5940625 21.449375 20.563125 20.27375 20.53125 19.0625 C20.47324219 17.38027344 20.47324219 17.38027344 20.4140625 15.6640625 C20.3826416 14.62717285 20.3512207 13.5902832 20.31884766 12.52197266 C20.24045528 9.83190165 20.24045528 9.83190165 18 8 C15.04230823 7.49989476 15.04230823 7.49989476 12 8 C9.0555328 10.98908691 8.60267073 13.30385381 8.48828125 17.421875 C8.45283203 18.44667969 8.41738281 19.47148438 8.38085938 20.52734375 C8.35830078 21.59082031 8.33574219 22.65429688 8.3125 23.75 C8.27833984 24.82894531 8.24417969 25.90789062 8.20898438 27.01953125 C8.12659337 29.67958377 8.05741355 32.33931035 8 35 C5.36 35 2.72 35 0 35 C-0.02505615 34.25314941 -0.0501123 33.50629883 -0.07592773 32.73681641 C-0.19168213 29.36602733 -0.31450128 25.99553217 -0.4375 22.625 C-0.47681641 21.449375 -0.51613281 20.27375 -0.55664062 19.0625 C-0.59853516 17.94101563 -0.64042969 16.81953125 -0.68359375 15.6640625 C-0.72025146 14.62717285 -0.75690918 13.5902832 -0.79467773 12.52197266 C-0.84164223 10.00574834 -0.84164223 10.00574834 -2 8 C-5.37400578 7.58274322 -5.37400578 7.58274322 -9 8 C-13.18617614 12.49626326 -12.55800401 18.5295792 -12.6875 24.3125 C-12.72166016 25.33923828 -12.75582031 26.36597656 -12.79101562 27.42382812 C-12.87323409 29.94910963 -12.94246936 32.4740554 -13 35 C-15.64 35 -18.28 35 -21 35 C-21 23.78 -21 12.56 -21 1 C-18.36 1 -15.72 1 -13 1 C-12.67 1.66 -12.34 2.32 -12 3 C-11.319375 2.505 -10.63875 2.01 -9.9375 1.5 C-6.24107205 -0.38753767 -4.1150616 -0.49664537 0 0 Z " fill="#ffffff" transform="translate(257,80)"/>
<path d="M0 0 C0 14.19 0 28.38 0 43 C-5.02730553 45.51365277 -9.68059529 47.77001515 -14.875 49.75 C-15.98617187 50.17796875 -17.09734375 50.6059375 -18.2421875 51.046875 C-21 52 -21 52 -23 52 C-23.34907959 47.0568795 -23.60130451 42.12105481 -23.76904297 37.16845703 C-23.8389881 35.48945155 -23.93420538 33.81128513 -24.05615234 32.13525391 C-25.01567406 18.5971282 -25.01567406 18.5971282 -21.65823364 14.2711792 C-17.86673578 10.77183669 -13.51791702 8.43425104 -9 6 C-7.37098786 4.82537683 -5.7610968 3.6228835 -4.1875 2.375 C-1 0 -1 0 0 0 Z " fill="#ffffff" transform="translate(124,14)"/>
<path d="M0 0 C2.31 0 4.62 0 7 0 C7.33 4.62 7.66 9.24 8 14 C8.804375 13.34 9.60875 12.68 10.4375 12 C14.49383531 9.321288 18.28206084 9.2027176 23 10 C27.23368749 11.40292781 30.00243417 13.53680385 32.375 17.3125 C35.65388121 23.96919418 35.3178687 30.12156803 33 37 C30.4793652 41.86122426 28.21344431 44.22939627 23 46 C18.29040685 46.684878 14.48297307 46.68741828 10.4375 44 C9.633125 43.34 8.82875 42.68 8 42 C7.67 42.99 7.34 43.98 7 45 C4.69 45 2.38 45 0 45 C0 30.15 0 15.3 0 0 Z M8 22 C6.5851983 26.20046716 6.63474098 29.75093442 8.25 33.875 C9.79693037 37.19318839 9.79693037 37.19318839 13 39 C18.66432484 39.67268251 18.66432484 39.67268251 23.4375 37.125 C25.80066479 33.91109589 26.15819516 32.07529291 26.1875 28.125 C26.20876953 26.82949219 26.20876953 26.82949219 26.23046875 25.5078125 C25.98243618 22.80888187 25.47382301 21.26214694 24 19 C17.79528306 14.86352204 12.15097921 15.96221206 8 22 Z " fill="#ffffff" transform="translate(429,20)"/>
<path d="M0 0 C4.23301121 2.82200747 7.17159664 5.95228992 8.8125 10.875 C9.51633161 18.01716007 9.14486568 23.96849502 4.8125 29.875 C0.18871975 34.16851024 -2.71194867 35.14907465 -8.85546875 35.109375 C-12.07643633 34.78565967 -14.45578522 33.55605525 -17.1875 31.875 C-17.5175 34.515 -17.8475 37.155 -18.1875 39.875 C-20.8275 39.875 -23.4675 39.875 -26.1875 39.875 C-26.1875 26.675 -26.1875 13.475 -26.1875 -0.125 C-23.5475 -0.125 -20.9075 -0.125 -18.1875 -0.125 C-17.8575 0.535 -17.5275 1.195 -17.1875 1.875 C-16.3625 1.38 -15.5375 0.885 -14.6875 0.375 C-9.41146689 -1.88615705 -5.39979565 -1.90581023 0 0 Z M-17.1875 9.875 C-18.42734649 13.59453947 -18.74156709 17.01111109 -18.1875 20.875 C-16.69001293 23.53183189 -15.34097249 25.72152751 -13.1875 27.875 C-7.39834115 28.39352728 -7.39834115 28.39352728 -2.25 26.0625 C0.98424686 22.63223818 1.09452258 19.48861226 1.03515625 14.875 C0.71038564 11.95776227 -0.38049564 10.15048697 -2.1875 7.875 C-7.8361371 4.10924193 -12.56657464 5.11816507 -17.1875 9.875 Z " fill="#ffffff" transform="translate(379.1875,31.125)"/>
<path d="M0 0 C2.31 0 4.62 0 7 0 C7 14.85 7 29.7 7 45 C4.69 45 2.38 45 0 45 C-0.33 44.01 -0.66 43.02 -1 42 C-1.433125 42.474375 -1.86625 42.94875 -2.3125 43.4375 C-5.42967899 46.32377684 -8.84330746 46.2860658 -12.9453125 46.2109375 C-17.67791884 45.72508058 -20.78040809 43.48257414 -23.8125 40 C-27.88896136 34.40942442 -27.59399207 28.69513916 -27 22 C-25.7865847 17.46065722 -23.78632467 14.16302956 -19.875 11.5 C-15.49834557 9.3776999 -10.74735659 9.15280292 -6 10 C-4.35 10.99 -2.7 11.98 -1 13 C-0.67 8.71 -0.34 4.42 0 0 Z M-17 19 C-19.63206596 23.1136925 -19.68839772 27.2631681 -19 32 C-16.77561281 36.27403857 -16.77561281 36.27403857 -13 39 C-9.62642666 39.50070321 -9.62642666 39.50070321 -6 39 C-2.84045695 36.45862841 -1.28459114 34.85377341 0 31 C0.39372523 26.82651253 0.23561625 24.48029466 -1.625 20.6875 C-6.5912542 15.0677913 -10.69864167 15.36460096 -17 19 Z " fill="#ffffff" transform="translate(185,70)"/>
<path d="M0 0 C4.71542836 1.69043658 7.27288958 3.81193758 10 8 C12.97314112 14.83822457 12.52422974 21.02286367 10.0546875 27.9140625 C7.88730064 32.20067207 4.53772628 34.48742457 0 36 C-5.45192731 36.53089929 -9.50700937 36.47844436 -14 33 C-14.33 35.64 -14.66 38.28 -15 41 C-17.64 41 -20.28 41 -23 41 C-23 27.8 -23 14.6 -23 1 C-20.36 1 -17.72 1 -15 1 C-14.67 1.66 -14.34 2.32 -14 3 C-13.360625 2.505 -12.72125 2.01 -12.0625 1.5 C-7.9283742 -0.52487794 -4.52658947 -0.58381808 0 0 Z M-14 11 C-15.84083099 14.68166198 -15.36729156 18.97245806 -15 23 C-13.30596911 26.78365532 -13.30596911 26.78365532 -10 29 C-4.14457047 29.60491525 -4.14457047 29.60491525 0.9375 27 C3.4987036 23.27461295 4.30680511 20.4998083 4 16 C2.93724237 11.8777886 1.63031384 9.42020923 -2 7 C-9.02816814 6.32993427 -9.02816814 6.32993427 -14 11 Z " fill="#ffffff" transform="translate(338,30)"/>
<path d="M0 0 C3.19707249 2.39780437 4.05166482 4.13520656 5.5 7.875 C5.84620405 11.17851171 5.7849059 14.4332042 5.6875 17.75 C5.66719727 19.06871094 5.66719727 19.06871094 5.64648438 20.4140625 C5.61136623 22.56797552 5.55756694 24.72157004 5.5 26.875 C6.82 26.875 8.14 26.875 9.5 26.875 C9.5 29.185 9.5 31.495 9.5 33.875 C2.11538462 34.24423077 2.11538462 34.24423077 -1 32.375 C-1.495 31.88 -1.99 31.385 -2.5 30.875 C-3.11875 31.535 -3.7375 32.195 -4.375 32.875 C-8.75782397 35.68000734 -12.42455097 35.67895113 -17.5 34.875 C-21.02096803 33.17739041 -22.8427414 31.90375259 -24.9375 28.625 C-25.71414365 24.82807548 -25.70238814 21.54154162 -24.5 17.875 C-21.52151989 13.84529161 -19.69677045 13.11410372 -14.765625 12.12890625 C-11.02080356 11.57507579 -7.27130703 11.19647274 -3.5 10.875 C-3.83 9.555 -4.16 8.235 -4.5 6.875 C-9.78843118 6.35557397 -9.78843118 6.35557397 -14.4375 8.25 C-15.55923484 9.89749424 -15.55923484 9.89749424 -16.5 11.875 C-18.81 11.875 -21.12 11.875 -23.5 11.875 C-23.2464147 7.56404992 -22.9154009 5.37785372 -20.125 2 C-14.48035357 -2.56947568 -6.67379501 -2.1451484 0 0 Z M-9.4375 18.25 C-11.05978516 18.63285156 -11.05978516 18.63285156 -12.71484375 19.0234375 C-15.60757063 19.66960017 -15.60757063 19.66960017 -17.5 21.875 C-17.17958603 24.47780568 -17.17958603 24.47780568 -16.5 26.875 C-13.2684709 28.22773311 -11.27762788 29.05584369 -7.8125 28.25 C-5.16847594 26.67787759 -3.93779781 25.59924848 -2.5 22.875 C-2.24913276 19.70767579 -2.24913276 19.70767579 -2.5 16.875 C-4.81503297 16.875 -7.20814714 17.71453118 -9.4375 18.25 Z " fill="#ffffff" transform="translate(315.5,81.125)"/>
<path d="M0 0 C3.91075925 1.98968453 5.57689098 3.36533646 8 7 C8.22705078 9.26831055 8.22705078 9.26831055 8.1953125 11.88671875 C8.18886719 12.82451172 8.18242187 13.76230469 8.17578125 14.72851562 C8.15902344 15.70498047 8.14226562 16.68144531 8.125 17.6875 C8.11597656 18.67556641 8.10695313 19.66363281 8.09765625 20.68164062 C8.0740843 23.12133765 8.04118022 25.56054697 8 28 C9.65 28.33 11.3 28.66 13 29 C13 30.98 13 32.96 13 35 C5.61538462 35.36923077 5.61538462 35.36923077 2.5 33.5 C2.005 33.005 1.51 32.51 1 32 C0.38125 32.66 -0.2375 33.32 -0.875 34 C-5.2500786 36.8000503 -8.93290845 36.69286425 -14 36 C-17.68157213 34.43337356 -20.16042622 32.5823279 -22 29 C-22.50541498 23.69314269 -22.51553035 20.26885828 -19 16 C-15.37480902 13.55996761 -11.48285383 13.56703874 -7.25 13.375 C-6.20392578 13.31699219 -6.20392578 13.31699219 -5.13671875 13.2578125 C-3.42489182 13.16401376 -1.71248318 13.08093826 0 13 C0 11.35 0 9.7 0 8 C-3.37722936 7.71486806 -6.63493352 7.53339209 -10 8 C-11.6446674 10.46326712 -11.6446674 10.46326712 -13 13 C-15.78619448 13.47651213 -18.15128858 13.23350094 -21 13 C-20.54786421 8.13954021 -19.46858739 5.46858739 -16 2 C-10.75511805 -0.54675083 -5.72797834 -0.6971 0 0 Z M0 18 C-2.14681531 18.47474775 -4.29243228 18.95491749 -6.4375 19.4375 C-7.63246094 19.70433594 -8.82742188 19.97117187 -10.05859375 20.24609375 C-12.8704686 20.70066748 -12.8704686 20.70066748 -14 22 C-14.50059916 24.41482413 -14.50059916 24.41482413 -14 27 C-12.00155751 29.13353917 -12.00155751 29.13353917 -9 30 C-5.31184818 29.74389517 -5.31184818 29.74389517 -2 28 C0.13438754 25.23202279 0.13438754 25.23202279 1 22 C0.61194162 19.85189033 0.61194162 19.85189033 0 18 Z " fill="#ffffff" transform="translate(413,30)"/>
<path d="M0 0 C3.76746535 2.51164356 6.17522011 4.40066033 7.625 8.75 C7.625 12.38 7.625 16.01 7.625 19.75 C-0.295 20.08 -8.215 20.41 -16.375 20.75 C-14.60648964 23.93074165 -14.60648964 23.93074165 -12.375 26.75 C-9.52046425 26.98397834 -7.171276 27.17468097 -4.375 26.75 C-3.715 26.09 -3.055 25.43 -2.375 24.75 C-0.375 22.75 -0.375 22.75 1.640625 22.484375 C3.6373319 22.49833799 5.63266678 22.61717779 7.625 22.75 C7.54151691 25.58842501 7.0526272 27.29049314 5.10546875 29.3828125 C-0.09579852 33.91612755 -3.90785722 35.11782695 -10.8046875 35.02734375 C-14.96024246 34.578948 -17.03218505 33.29053936 -20.375 30.75 C-25.15162759 24.59066443 -26.18818637 19.37362221 -25.375 11.75 C-23.70424825 6.41993872 -21.12932322 2.79764309 -16.375 -0.25 C-10.93018355 -2.06493882 -5.37354153 -1.99020057 0 0 Z M-17.375 11.75 C-17.375 12.08 -17.375 12.41 -17.375 12.75 C-11.435 12.75 -5.495 12.75 0.625 12.75 C-0.85139003 7.68991361 -0.85139003 7.68991361 -4.375 5.75 C-11.42274506 4.84061354 -13.5038208 5.82225685 -17.375 11.75 Z " fill="#ffffff" transform="translate(504.375,31.25)"/>
<path d="M0 0 C5.35634688 2.40734691 8.25114566 5.6630204 10.4609375 11.1875 C11.24156009 17.82279202 10.97283835 22.35109499 7.7109375 28.3125 C4.15008286 32.52930155 1.19950373 34.87726621 -4.32421875 35.56640625 C-10.0955322 35.8732857 -14.60320836 34.76858246 -19.2890625 31.3125 C-23.93026352 25.60025259 -25.01457026 20.59395973 -24.2890625 13.3125 C-23.016577 7.78169687 -21.20321357 4.42879092 -16.2890625 1.3125 C-11.18985472 -1.637985 -5.60434114 -1.68321509 0 0 Z M-13.7890625 8.125 C-16.60901884 12.23743633 -16.83835502 16.4635729 -16.2890625 21.3125 C-14.892887 24.23177604 -13.56703254 26.03452996 -11.2890625 28.3125 C-6.61305087 28.77243557 -4.37587313 28.98308528 -0.3515625 26.5 C2.8837236 23.06863596 2.98838882 19.92641951 2.9375 15.3125 C2.49576312 11.41302958 0.39754445 8.99910695 -2.2890625 6.3125 C-6.616924 5.59397473 -10.19081069 5.51626744 -13.7890625 8.125 Z " fill="#ffffff" transform="translate(221.2890625,80.6875)"/>
<path d="M0 0 C4.12593192 2.87855716 7.06537651 6.00862953 8.6875 10.875 C9.63349075 23.48214597 9.63349075 23.48214597 5.6875 28.875 C1.45778691 33.10471309 -2.12353198 35.01437386 -8.125 35.125 C-13.29877098 35.04979984 -16.96122843 34.21349292 -20.75 30.4453125 C-25.46692931 25.05836482 -25.60642701 20.70844195 -25.5234375 13.8203125 C-25.14333504 8.51295587 -23.19843749 5.48444495 -19.3125 2.0625 C-13.515012 -2.164835 -6.69222956 -2.27283268 0 0 Z M-17.3125 10.875 C-18.09880096 15.91791095 -18.00214511 20.30762475 -15.9375 25 C-13.45180712 27.86810717 -12.4048877 27.86591269 -8.5 28.25 C-5.27631066 28.16779299 -4.22830812 27.82588807 -1.3125 26.125 C1.73268352 21.17657678 1.64036021 16.5296786 0.6875 10.875 C-1.06649923 7.45248508 -1.06649923 7.45248508 -4.3125 5.875 C-10.11138767 4.49542592 -14.05086769 5.6767735 -17.3125 10.875 Z " fill="#ffffff" transform="translate(302.3125,31.125)"/>
<path d="M0 0 C3.91987719 2.61325146 5.3313321 4.36175174 6.3125 9 C6.415625 9.9075 6.51875 10.815 6.625 11.75 C1.22747235 12.1924203 1.22747235 12.1924203 -1.375 11.75 C-2.40513277 10.10178756 -3.40614628 8.43496298 -4.375 6.75 C-8.00099422 6.33274322 -8.00099422 6.33274322 -11.375 6.75 C-11.705 8.4 -12.035 10.05 -12.375 11.75 C-11.28832031 11.78867187 -11.28832031 11.78867187 -10.1796875 11.828125 C-4.02090076 12.18944049 -0.07484231 12.65270157 4.625 16.75 C7.07558519 20.42587779 7.45068312 23.47980044 6.625 27.75 C3.53837541 31.69402031 0.29868871 34.41027388 -4.7421875 35.05078125 C-10.01328456 35.07541254 -13.9384958 34.91893157 -18.375 31.75 C-21.37384341 28.0409042 -22.375 26.5795217 -22.375 21.75 C-16.97395833 21.30729167 -16.97395833 21.30729167 -14.375 21.75 C-12.875 24.25 -12.875 24.25 -11.375 26.75 C-8.58730386 27.22485806 -6.22551625 26.98364887 -3.375 26.75 C-2.715 24.77 -2.055 22.79 -1.375 20.75 C-2.17164063 20.71261719 -2.96828125 20.67523438 -3.7890625 20.63671875 C-14.68219358 19.96086755 -14.68219358 19.96086755 -19.375 16.75 C-21.83906448 13.05390328 -22.05364807 10.03972609 -21.375 5.75 C-19.6145325 2.75068501 -18.15424074 1.21754445 -15.1875 -0.5625 C-9.85636469 -1.86566641 -5.16793827 -1.91405121 0 0 Z " fill="#ffffff" transform="translate(247.375,31.25)"/>
<path d="M0 0 C2.87789993 2.03558776 4.1498011 3.59468584 5.5625 6.8125 C5.5625 8.1325 5.5625 9.4525 5.5625 10.8125 C2.9225 10.8125 0.2825 10.8125 -2.4375 10.8125 C-2.685 10.173125 -2.9325 9.53375 -3.1875 8.875 C-4.24938031 6.70037929 -4.24938031 6.70037929 -6.25 5.9375 C-9.06512177 5.7766359 -10.914006 6.62085005 -13.4375 7.8125 C-13.1075 9.1325 -12.7775 10.4525 -12.4375 11.8125 C-11.11685547 11.95945312 -11.11685547 11.95945312 -9.76953125 12.109375 C-8.60808594 12.25890625 -7.44664062 12.4084375 -6.25 12.5625 C-4.52716797 12.77132812 -4.52716797 12.77132812 -2.76953125 12.984375 C1.00003002 13.92124134 2.8592011 15.04518855 5.5625 17.8125 C6.79816629 20.81965248 6.94194797 23.59277234 6.5625 26.8125 C4.93421513 30.19047695 2.50852532 32.23437341 -0.6875 34.1875 C-5.96632108 35.38723206 -10.6292428 35.46074315 -15.75 33.625 C-18.73498224 31.61187244 -20.54116113 29.87581663 -22.4375 26.8125 C-22.6875 24 -22.6875 24 -22.4375 21.8125 C-17.03997235 21.3700797 -17.03997235 21.3700797 -14.4375 21.8125 C-13.40736723 23.46071244 -12.40635372 25.12753702 -11.4375 26.8125 C-8.01005771 27.1732834 -5.55627956 27.37188978 -2.4375 25.8125 C-2.9325 23.3375 -2.9325 23.3375 -3.4375 20.8125 C-4.31792969 20.71453125 -5.19835937 20.6165625 -6.10546875 20.515625 C-7.26691406 20.36609375 -8.42835938 20.2165625 -9.625 20.0625 C-10.77355469 19.92328125 -11.92210937 19.7840625 -13.10546875 19.640625 C-16.85161183 18.70957889 -18.72027983 17.52475267 -21.4375 14.8125 C-22.6284248 10.7931288 -22.67874561 8.55042774 -21.375 4.5625 C-16.32612333 -2.60364753 -7.70821757 -2.6628388 0 0 Z " fill="#ffffff" transform="translate(399.4375,81.1875)"/>
<path d="M0 0 C3.58678606 1.35500807 4.70627335 2.49162696 6.625 5.8125 C8.86350642 11.28716204 8.31630532 17.12804982 8.1875 22.9375 C8.16719727 24.67870117 8.16719727 24.67870117 8.14648438 26.45507812 C8.1113141 29.30387052 8.06209287 32.15168844 8 35 C5.36 35 2.72 35 0 35 C-0.01981934 34.25314941 -0.03963867 33.50629883 -0.06005859 32.73681641 C-0.15508211 29.36584395 -0.26485259 25.99551071 -0.375 22.625 C-0.4059375 21.449375 -0.436875 20.27375 -0.46875 19.0625 C-0.50742188 17.94101562 -0.54609375 16.81953125 -0.5859375 15.6640625 C-0.63306885 14.10872803 -0.63306885 14.10872803 -0.68115234 12.52197266 C-0.75954472 9.83190165 -0.75954472 9.83190165 -3 8 C-6.45786015 7.49992206 -6.45786015 7.49992206 -10 8 C-12.97058384 10.95985971 -13.39759887 13.31355927 -13.51171875 17.421875 C-13.54716797 18.44667969 -13.58261719 19.47148438 -13.61914062 20.52734375 C-13.65297852 22.12255859 -13.65297852 22.12255859 -13.6875 23.75 C-13.72166016 24.82894531 -13.75582031 25.90789063 -13.79101562 27.01953125 C-13.87340663 29.67958377 -13.94258645 32.33931035 -14 35 C-16.64 35 -19.28 35 -22 35 C-22 23.78 -22 12.56 -22 1 C-19.36 1 -16.72 1 -14 1 C-13.67 1.66 -13.34 2.32 -13 3 C-12.34 2.505 -11.68 2.01 -11 1.5 C-7.15795468 -0.42102266 -4.21741958 -0.60737686 0 0 Z " fill="#ffffff" transform="translate(214,30)"/>
<path d="M0 0 C4.02948618 2.0893632 6.40011887 3.75022939 8 8 C8.22705078 10.93261719 8.22705078 10.93261719 8.1953125 14.296875 C8.18886719 15.50214844 8.18242187 16.70742187 8.17578125 17.94921875 C8.15902344 19.20347656 8.14226562 20.45773438 8.125 21.75 C8.11597656 23.01972656 8.10695313 24.28945312 8.09765625 25.59765625 C8.07409005 28.73196093 8.04118832 31.86588541 8 35 C5.69 35 3.38 35 1 35 C0.98018066 34.35973877 0.96036133 33.71947754 0.93994141 33.05981445 C0.84436399 30.1436472 0.73481786 27.22816428 0.625 24.3125 C0.5940625 23.30509766 0.563125 22.29769531 0.53125 21.25976562 C0.49257813 20.28330078 0.45390625 19.30683594 0.4140625 18.30078125 C0.36693115 16.95753784 0.36693115 16.95753784 0.31884766 15.5871582 C-0.02661113 12.78407493 -0.84681468 10.56735469 -2 8 C-7.32170494 7.70437633 -7.32170494 7.70437633 -12 10 C-12.9731681 12.9195043 -13.1929546 15.05444951 -13.31640625 18.10546875 C-13.35830078 19.08837891 -13.40019531 20.07128906 -13.44335938 21.08398438 C-13.48267578 22.10814453 -13.52199219 23.13230469 -13.5625 24.1875 C-13.60568359 25.22326172 -13.64886719 26.25902344 -13.69335938 27.32617188 C-13.79944366 29.8839819 -13.90150146 32.44188845 -14 35 C-16.64 35 -19.28 35 -22 35 C-22 23.78 -22 12.56 -22 1 C-19.36 1 -16.72 1 -14 1 C-13.67 1.66 -13.34 2.32 -13 3 C-12.34 2.505 -11.68 2.01 -11 1.5 C-7.25972687 -0.37013657 -4.06821473 -0.7244766 0 0 Z " fill="#ffffff" transform="translate(364,80)"/>
<path d="M0 0 C2.64 0 5.28 0 8 0 C8.01981934 0.74685059 8.03963867 1.49370117 8.06005859 2.26318359 C8.15508211 5.63415605 8.26485259 9.00448929 8.375 12.375 C8.4059375 13.550625 8.436875 14.72625 8.46875 15.9375 C8.52675781 17.61972656 8.52675781 17.61972656 8.5859375 19.3359375 C8.6173584 20.37282715 8.6487793 21.4097168 8.68115234 22.47802734 C8.75954472 25.16809835 8.75954472 25.16809835 11 27 C15.19661382 27.48323217 15.19661382 27.48323217 18.8125 25.625 C20.97483676 22.66601286 21.17076674 20.61236973 21.31640625 16.9921875 C21.35830078 16.00605469 21.40019531 15.01992188 21.44335938 14.00390625 C21.48267578 12.97136719 21.52199219 11.93882813 21.5625 10.875 C21.60568359 9.83472656 21.64886719 8.79445313 21.69335938 7.72265625 C21.7996288 5.14857472 21.90166583 2.57439492 22 0 C24.31 0 26.62 0 29 0 C29 11.22 29 22.44 29 34 C26.69 34 24.38 34 22 34 C21.67 33.34 21.34 32.68 21 32 C20.34 32.495 19.68 32.99 19 33.5 C15.15795468 35.42102266 12.21741958 35.60737686 8 35 C4.41321394 33.64499193 3.29372665 32.50837304 1.375 29.1875 C-0.86350642 23.71283796 -0.31630532 17.87195018 -0.1875 12.0625 C-0.17396484 10.90169922 -0.16042969 9.74089844 -0.14648438 8.54492188 C-0.1113141 5.69612948 -0.06209287 2.84831156 0 0 Z " fill="#ffffff" transform="translate(158,31)"/>
<path d="M0 0 C0 8.58 0 17.16 0 26 C-5.8471875 28.475 -5.8471875 28.475 -11.8125 31 C-13.65098511 31.78310547 -13.65098511 31.78310547 -15.52661133 32.58203125 C-16.4936499 32.98808594 -17.46068848 33.39414063 -18.45703125 33.8125 C-19.44678955 34.23144531 -20.43654785 34.65039062 -21.45629883 35.08203125 C-24 36 -24 36 -27 36 C-27.21829292 33.47447221 -27.37514765 30.9679895 -27.5 28.4375 C-27.56703125 27.73302734 -27.6340625 27.02855469 -27.703125 26.30273438 C-27.82723805 22.93616782 -27.66990509 20.83272695 -25.51538086 18.15454102 C-23.42741425 16.28904771 -21.27122654 14.63719344 -19 13 C-18.23123535 12.41806885 -17.4624707 11.8361377 -16.67041016 11.23657227 C-14.32373243 9.47814595 -11.94969928 7.76540793 -9.5625 6.0625 C-8.74845703 5.47404297 -7.93441406 4.88558594 -7.09570312 4.27929688 C-1.13649644 0 -1.13649644 0 0 0 Z " fill="#ffffff" transform="translate(73,52)"/>
<path d="M0 0 C2.31 0 4.62 0 7 0 C7 1.65 7 3.3 7 5 C10.3 5 13.6 5 17 5 C17.04254356 6.99954746 17.04080783 9.00041636 17 11 C16.67 11.33 16.34 11.66 16 12 C13.03 12 10.06 12 7 12 C7.33 18.6 7.66 25.2 8 32 C10.64 32 13.28 32 16 32 C17 33 17 33 17.0625 36.0625 C17.041875 37.031875 17.02125 38.00125 17 39 C15.10617836 39.13592021 13.20950296 39.2324094 11.3125 39.3125 C10.25675781 39.37050781 9.20101563 39.42851563 8.11328125 39.48828125 C5 39 5 39 2.125 37.1875 C-1.03364775 32.44952838 -0.54352694 28.24280935 -0.3125 22.6875 C-0.27866211 21.14739258 -0.27866211 21.14739258 -0.24414062 19.57617188 C-0.18537575 17.0492821 -0.10327849 14.52539745 0 12 C-0.804375 12.020625 -1.60875 12.04125 -2.4375 12.0625 C-5 12 -5 12 -6 11 C-6.04080783 9.00041636 -6.04254356 6.99954746 -6 5 C-4.02 5 -2.04 5 0 5 C0 3.35 0 1.7 0 0 Z " fill="#ffffff" transform="translate(259,26)"/>
<path d="M0 0 C2.31 0 4.62 0 7 0 C7 14.85 7 29.7 7 45 C4.69 45 2.38 45 0 45 C0 30.15 0 15.3 0 0 Z " fill="#ffffff" transform="translate(467,20)"/>
<path d="M0 0 C2.64 0 5.28 0 8 0 C8 11.22 8 22.44 8 34 C5.36 34 2.72 34 0 34 C0 22.78 0 11.56 0 0 Z " fill="#ffffff" transform="translate(328,81)"/>
<path d="M0 0 C0.33 2.64 0.66 5.28 1 8 C-7.16592852 11.91631266 -15.44412409 15.0647725 -24 18 C-24 17.34 -24 16.68 -24 16 C-21.86521656 14.33295001 -19.73011018 12.77988045 -17.5 11.25 C-16.21293445 10.35243258 -14.92647303 9.45399826 -13.640625 8.5546875 C-13.01478516 8.11866211 -12.38894531 7.68263672 -11.74414062 7.23339844 C-8.91230995 5.23082165 -6.17819276 3.10544734 -3.453125 0.9609375 C-2 0 -2 0 0 0 Z " fill="#ffffff" transform="translate(24,89)"/>
</svg>
