<svg width="350" height="61" viewBox="0 0 371 61" fill="none" xmlns="http://www.w3.org/2000/svg">
<path d="M24.7007 18.0107C35.6147 7.32977 53.3094 7.32977 64.2233 18.0107L65.5368 19.2961C66.0824 19.8302 66.0824 20.696 65.5368 21.2301L61.0435 25.6274C60.7707 25.8945 60.3284 25.8945 60.0555 25.6274L58.2479 23.8585C50.6343 16.4072 38.2897 16.4072 30.6761 23.8585L28.7403 25.7528C28.4675 26.0199 28.0251 26.0199 27.7523 25.7528L23.259 21.3556C22.7134 20.8215 22.7134 19.9557 23.259 19.4215L24.7007 18.0107ZM73.5158 27.1049L77.5146 31.0184C78.0604 31.5525 78.0604 32.4183 77.5146 32.9524L59.483 50.5995C58.9374 51.1335 58.0526 51.1335 57.5068 50.5995L44.709 38.0749C44.5726 37.9413 44.3516 37.9413 44.2152 38.0749L31.4175 50.5995C30.8719 51.1335 29.9871 51.1335 29.4415 50.5995L11.4093 32.9522C10.8636 32.4181 10.8636 31.5523 11.4093 31.0182L15.4083 27.1047C15.9539 26.5706 16.8387 26.5706 17.3844 27.1047L30.1824 39.6293C30.3188 39.7629 30.5399 39.7629 30.6763 39.6293L43.4737 27.1047C44.0194 26.5706 44.9041 26.5706 45.4497 27.1045L58.2477 39.6293C58.3843 39.7629 58.6054 39.7629 58.7418 39.6293L71.5396 27.1049C72.0852 26.5707 72.97 26.5707 73.5158 27.1049Z" fill="white"/>
<path d="M101.973 44.9069L106.804 25.5846C107.09 24.5202 107.336 23.3739 107.663 21.5728C107.909 23.3739 108.196 24.5202 108.4 25.5846L112.576 44.9069H121.214L128.5 16.2509H121.869L117.857 33.8539C117.447 35.5731 117.202 36.9241 116.915 38.9301C116.588 37.006 116.26 35.5731 115.892 33.8949L112.003 16.2509H103.324L99.1077 33.8949C98.7393 35.5731 98.4527 36.9241 98.1252 38.9301C97.7977 36.9241 97.5111 35.5731 97.1427 33.8949L93.2128 16.2509H86.2944L93.5403 44.9069H101.973Z" fill="white"/>
<path d="M133.446 45.6436C136.721 45.6436 138.809 44.2928 139.873 42.3278C139.75 42.9418 139.709 43.5559 139.709 44.17V44.9069H145.195V33.0761C145.195 27.4268 142.616 24.1517 136.311 24.1517C130.867 24.1517 127.305 27.1812 126.978 31.3567H132.995C133.2 29.5145 134.51 28.4091 136.516 28.4091C138.399 28.4091 139.423 29.4735 139.423 30.7017C139.423 31.6023 138.89 32.1345 137.294 32.3392L134.428 32.6667C130.171 33.1989 126.527 34.7544 126.527 39.2574C126.527 43.3512 129.925 45.6436 133.446 45.6436ZM135.288 41.4271C133.691 41.4271 132.504 40.5265 132.504 38.971C132.504 37.4563 133.855 36.7194 135.902 36.351L137.294 36.1053C138.481 35.8597 139.136 35.655 139.545 35.2866V37.1697C139.545 39.7077 137.703 41.4271 135.288 41.4271Z" fill="white"/>
<path d="M148.046 16.2509V44.9069H153.982V16.2509H148.046Z" fill="white"/>
<path d="M157.416 16.2509V44.9069H163.352V16.2509H157.416Z" fill="white"/>
<path d="M176.309 45.6436C181.958 45.6436 185.602 42.4506 186.011 38.2751H180.035C179.747 40.1171 178.191 41.1406 176.309 41.1406C173.77 41.1406 171.928 39.0938 171.887 36.2691H186.133V35.1228C186.133 28.491 182.491 24.1517 176.186 24.1517C170.127 24.1517 165.87 28.4091 165.87 34.8363C165.87 41.7956 170.25 45.6436 176.309 45.6436ZM171.847 32.3801C172.092 30.0876 173.77 28.4091 176.145 28.4091C178.437 28.4091 180.034 30.0057 180.075 32.3801H171.847Z" fill="white"/>
<path d="M198.697 45.3162C200.007 45.3162 201.277 45.1115 201.85 44.9478V40.4446C201.399 40.5265 200.868 40.5674 200.416 40.5674C198.248 40.5674 197.469 39.3394 197.469 37.3335V29.4735H202.3V24.8477H197.469V17.7246H191.574V24.8477H187.234V29.4735H191.574V38.1522C191.574 42.9009 193.948 45.3162 198.697 45.3162Z" fill="white"/>
<path d="M218.734 45.6436C226.84 45.6436 231.753 40.8949 232.366 34.0584H225.939C225.448 37.7838 222.828 40.3218 218.98 40.3218C214.437 40.3218 211.243 36.6376 211.243 30.4151C211.243 24.3155 214.558 20.8359 219.103 20.8359C222.992 20.8359 225.202 23.2102 225.652 26.6899H232.244C231.589 19.5668 226.349 15.5141 219.144 15.5141C210.916 15.5141 204.611 21.0816 204.611 30.4151C204.611 40.0762 210.137 45.6436 218.734 45.6436Z" fill="white"/>
<path d="M245.234 45.6436C251.417 45.6436 255.796 41.7546 255.796 34.9591C255.796 28.2863 251.417 24.1517 245.234 24.1517C239.095 24.1517 234.714 28.2863 234.714 34.9591C234.714 41.7546 239.053 45.6436 245.234 45.6436ZM245.234 41.0587C242.492 41.0587 240.731 38.8073 240.731 34.9591C240.731 31.0292 242.574 28.8185 245.234 28.8185C247.936 28.8185 249.779 31.0292 249.779 34.9591C249.779 38.8073 247.978 41.0587 245.234 41.0587Z" fill="white"/>
<path d="M264.073 44.9069V33.158C264.073 30.6607 265.627 28.8185 267.837 28.8185C269.926 28.8185 271.154 30.4151 271.154 33.0761V44.9069H277.089V32.2164C277.089 27.3859 274.551 24.1517 270.008 24.1517C266.855 24.1517 264.932 25.6664 263.909 27.4677C264.031 26.7308 264.073 26.1577 264.073 25.6255V24.8477H258.136V44.9069H264.073Z" fill="white"/>
<path d="M286.577 44.9069V33.158C286.577 30.6607 288.132 28.8185 290.343 28.8185C292.43 28.8185 293.658 30.4151 293.658 33.0761V44.9069H299.595V32.2164C299.595 27.3859 297.057 24.1517 292.512 24.1517C289.36 24.1517 287.435 25.6664 286.413 27.4677C286.535 26.7308 286.577 26.1577 286.577 25.6255V24.8477H280.641V44.9069H286.577Z" fill="white"/>
<path d="M312.366 45.6436C318.015 45.6436 321.658 42.4506 322.067 38.2751H316.092C315.805 40.1171 314.249 41.1406 312.366 41.1406C309.828 41.1406 307.986 39.0938 307.945 36.2691H322.191V35.1228C322.191 28.491 318.547 24.1517 312.244 24.1517C306.185 24.1517 301.928 28.4091 301.928 34.8363C301.928 41.7956 306.307 45.6436 312.366 45.6436ZM307.905 32.3801C308.15 30.0876 309.828 28.4091 312.202 28.4091C314.495 28.4091 316.092 30.0057 316.132 32.3801H307.905Z" fill="white"/>
<path d="M334.936 45.6436C341.159 45.6436 344.557 42.2459 345.212 36.965H339.275C339.072 39.1757 337.802 41.0587 335.141 41.0587C332.44 41.0587 330.598 38.5616 330.598 34.8772C330.598 30.8654 332.727 28.8185 335.263 28.8185C337.762 28.8185 338.99 30.6198 339.153 32.7076H345.089C344.639 27.836 341.322 24.1517 335.223 24.1517C329.288 24.1517 324.579 28.0816 324.579 34.8772C324.579 41.5909 328.551 45.6436 334.936 45.6436Z" fill="white"/>
<path d="M358.051 45.3162C359.361 45.3162 360.631 45.1115 361.204 44.9478V40.4446C360.753 40.5265 360.222 40.5674 359.771 40.5674C357.602 40.5674 356.823 39.3394 356.823 37.3335V29.4735H361.654V24.8477H356.823V17.7246H350.928V24.8477H346.589V29.4735H350.928V38.1522C350.928 42.9009 353.302 45.3162 358.051 45.3162Z" fill="white"/>
</svg>
