<svg width="340" height="61" viewBox="0 0 509 96" fill="none" xmlns="http://www.w3.org/2000/svg">
<path fill-rule="evenodd" clip-rule="evenodd" d="M44.0346 72.7624C43.8595 73.4159 44.3519 74.0576 45.0285 74.0576H50.9539C51.6304 74.0576 52.1229 73.4159 51.9478 72.7624L48.985 61.7053C48.7126 60.6885 47.2698 60.6885 46.9973 61.7053L44.0346 72.7624Z" fill="#0364FF"/>
<path fill-rule="evenodd" clip-rule="evenodd" d="M38.1345 79.8396C37.6807 81.533 36.1461 82.7106 34.3929 82.7106H26.3726C23.8256 82.7106 21.9719 80.2947 22.6311 77.8345L39.0844 16.4299C39.5807 14.5777 41.2591 13.2897 43.1767 13.2897H52.7219C54.6394 13.2897 56.3179 14.5777 56.8142 16.4299L73.2675 77.8345C73.9267 80.2947 72.0729 82.7106 69.526 82.7106H61.5056C59.7524 82.7106 58.2178 81.533 57.7641 79.8396L49.7616 49.9738C49.2648 48.1197 46.6338 48.1197 46.137 49.9738L38.1345 79.8396Z" fill="#0364FF"/>
<path fill-rule="evenodd" clip-rule="evenodd" d="M78.4774 68.2685C77.9646 70.1824 75.2487 70.1824 74.7359 68.2685L68.7626 45.9759C68.6471 45.5449 68.6471 45.091 68.7626 44.66L76.3751 16.25C76.843 14.5036 78.4256 13.2893 80.2335 13.2893H88.0032C90.6298 13.2893 92.5415 15.7807 91.8617 18.3178L78.4774 68.2685ZM27.2274 45.9387C27.3429 45.5077 27.3429 45.0539 27.2274 44.6228L19.6249 16.25C19.157 14.5036 17.5744 13.2893 15.7665 13.2893H7.99677C5.37023 13.2893 3.45851 15.7807 4.13831 18.3178L17.5126 68.2313C18.0254 70.1452 20.7413 70.1452 21.2541 68.2313L27.2274 45.9387Z" fill="#0364FF"/>
<path fill-rule="evenodd" clip-rule="evenodd" d="M258.989 81.182C255.652 81.182 252.594 80.487 249.813 79.0969C248.244 78.2948 246.881 77.3417 245.724 76.2376C244.993 75.5399 243.511 76.0135 243.511 77.0128V78.5044C243.511 79.1821 242.949 79.7315 242.256 79.7315H236.238C235.546 79.7315 234.984 79.1821 234.984 78.5044V16.045C234.984 15.3673 235.546 14.8179 236.238 14.8179H242.228C242.921 14.8179 243.483 15.3673 243.483 16.045V38.0284C243.483 39.0277 244.968 39.5039 245.701 38.8083C246.868 37.7022 248.242 36.7475 249.813 35.9442C252.594 34.5541 255.652 33.8591 258.989 33.8591C264.983 33.8591 270.049 36.1557 274.189 40.749C278.453 45.4027 280.584 50.9933 280.584 57.5206C280.584 64.1083 278.453 69.6988 274.189 74.2921C270.049 78.8854 264.983 81.182 258.989 81.182ZM257.599 73.5669C261.677 73.5669 265.106 72.0559 267.887 69.034C270.667 66.0725 272.057 62.2347 272.057 57.5206C272.057 52.8668 270.667 49.029 267.887 46.0071C265.106 42.9852 261.677 41.4743 257.599 41.4743C253.459 41.4743 249.999 42.9852 247.218 46.0071C244.499 49.029 243.14 52.8668 243.14 57.5206C243.14 62.2347 244.499 66.1028 247.218 69.1247C249.999 72.0861 253.459 73.5669 257.599 73.5669ZM205.684 81.182C199.01 81.182 193.511 78.9458 189.186 74.4734C184.861 70.001 182.698 64.35 182.698 57.5205C182.698 50.7515 184.799 45.1307 189 40.6583C193.202 36.1255 198.578 33.859 205.127 33.859C211.862 33.859 217.207 36.0046 221.162 40.2957C225.423 44.7848 227.461 51.5365 227.194 57.6775C227.16 58.4648 226.48 59.0617 225.674 59.0617H192.942C192.103 59.0617 191.423 59.7406 191.51 60.5569C191.9 64.2233 193.35 67.2303 195.859 69.5779C198.701 72.2372 202.1 73.5668 206.054 73.5668C211.099 73.5668 215.134 71.2774 218.158 66.6987C218.562 66.0865 219.366 65.8379 220.036 66.1574L225.131 68.5883C225.849 68.9309 226.137 69.7905 225.721 70.4577C223.751 73.6163 221.15 76.1334 217.918 78.009C214.334 80.1244 210.256 81.182 205.684 81.182ZM192.552 50.4212C192.251 51.3055 192.963 52.1718 193.916 52.1718H216.492C217.361 52.1718 218.055 51.444 217.879 50.6119C217.373 48.2224 216.15 46.2039 214.21 44.5566C211.924 42.5017 208.835 41.4742 204.942 41.4742C201.729 41.4742 198.949 42.4412 196.601 44.3753C194.739 45.9499 193.39 47.9652 192.552 50.4212ZM180.084 37.0136C180.361 36.1717 179.72 35.3096 178.815 35.3096H172.93C172.339 35.3096 171.819 35.6904 171.652 36.245L162.972 65.0644C162.624 66.2203 160.959 66.2443 160.576 65.0991L150.917 36.2082C150.737 35.6721 150.226 35.3096 149.65 35.3096H142.775C142.2 35.3096 141.689 35.6707 141.509 36.2051L131.763 65.1182C131.377 66.2611 129.715 66.235 129.368 65.0807L120.683 36.245C120.516 35.6904 119.995 35.3096 119.404 35.3096H113.334C112.43 35.3096 111.788 36.1717 112.065 37.0136L125.85 78.8278C126.027 79.3664 126.54 79.7315 127.118 79.7315H133.796C134.375 79.7315 134.887 79.3661 135.065 78.8271L144.793 49.2596C145.165 48.126 146.804 48.1241 147.18 49.2567L156.99 78.8301C157.169 79.3675 157.681 79.7315 158.258 79.7315H165.031C165.609 79.7315 166.122 79.3664 166.3 78.8278L180.084 37.0136ZM444.27 77.1025C446.741 79.3387 449.831 80.4568 453.538 80.4568C455.992 80.4568 458.191 80.188 460.137 79.6504C460.801 79.467 461.138 78.7649 460.908 78.1289L459.088 73.0956C458.844 72.421 458.064 72.0951 457.366 72.311C457.177 72.3696 456.982 72.4256 456.782 72.479C456.164 72.5998 455.515 72.6603 454.836 72.6603C453.353 72.6603 452.024 72.1466 450.85 71.1191C449.676 70.0312 449.089 68.0066 449.089 65.0451V44.1519C449.089 43.4742 449.651 42.9248 450.344 42.9248H458.957C459.65 42.9248 460.211 42.3754 460.211 41.6976V36.5368C460.211 35.859 459.65 35.3096 458.957 35.3096H450.344C449.651 35.3096 449.089 34.7602 449.089 34.0824V16.045C449.089 15.3673 448.528 14.8179 447.835 14.8179H441.817C441.124 14.8179 440.562 15.3673 440.562 16.045V34.0824C440.562 34.7602 440.001 35.3096 439.308 35.3096H433.846C433.153 35.3096 432.592 35.859 432.592 36.5367V41.6976C432.592 42.3754 433.153 42.9248 433.846 42.9248H439.308C440.001 42.9248 440.562 43.4742 440.562 44.1519V67.7648C440.624 71.7537 441.86 74.8663 444.27 77.1025ZM322.494 75.7426C326.633 72.1163 328.703 67.5835 328.703 62.1441C328.703 58.82 327.746 55.8283 325.83 53.169C324.949 51.9046 323.683 50.2974 319.968 48.2606C319.183 47.8302 319.163 46.6838 319.905 46.1863C324.349 43.2071 326.572 38.6963 326.572 33.4058C326.572 28.3894 324.687 24.3099 320.918 21.1671C317.087 17.9034 312.36 16.2716 306.737 16.2716C302.227 16.2716 298.303 17.4501 294.966 19.8072C291.993 21.9075 289.781 24.5837 288.328 27.8357C288.027 28.5096 288.373 29.2793 289.065 29.5661L294.334 31.7488C295.08 32.0579 295.933 31.6863 296.267 30.9646C298.343 26.4878 301.833 24.2494 306.737 24.2494C310.074 24.2494 312.762 25.0956 314.801 26.7878C316.84 28.4801 317.859 30.6861 317.859 33.4058C317.859 36.3672 316.778 38.7848 314.615 40.6583C312.453 42.4715 309.672 43.3781 306.274 43.3781H302.866C302.086 43.3781 301.454 43.9962 301.454 44.7586V49.794C301.454 50.5565 302.086 51.1746 302.866 51.1746H306.923C310.506 51.1746 313.565 52.2322 316.098 54.3476C318.693 56.4629 319.991 59.0617 319.991 62.1441C319.991 65.2264 318.755 67.8555 316.284 70.0312C313.75 72.1466 310.754 73.2042 307.293 73.2042C304.142 73.2042 301.423 72.2977 299.137 70.4845C297.244 68.8897 295.798 66.7257 294.8 63.9924C294.515 63.212 293.629 62.7875 292.847 63.1062L287.692 65.2072C287.031 65.4766 286.676 66.1893 286.908 66.852C288.349 70.9718 290.85 74.3584 294.41 77.0118C298.241 79.792 302.536 81.182 307.293 81.182C313.349 81.182 318.415 79.3689 322.494 75.7426ZM343.834 66.133C343.834 63.7155 344.977 61.6908 347.263 60.059C349.611 58.4271 352.515 57.6112 355.976 57.6112C360.415 57.6112 363.939 58.5056 366.55 60.2945C366.903 60.5368 367.102 60.9401 367.08 61.3617C366.91 64.5882 365.494 67.4176 362.834 69.8499C360.054 72.4487 356.871 73.7482 353.288 73.7482C350.754 73.7482 348.53 73.0229 346.614 71.5724C344.761 70.1219 343.834 68.3088 343.834 66.133ZM369.785 38.8452C366.14 35.5211 361.166 33.8591 354.863 33.8591C347.265 33.8591 341.409 36.4155 337.295 41.5283C336.852 42.0788 337.019 42.8745 337.625 43.2477L343.003 46.5597C343.571 46.9097 344.317 46.7557 344.736 46.2428C347.436 42.9429 350.966 41.2929 355.327 41.2929C358.478 41.2929 361.228 42.3204 363.576 44.3753C365.939 46.3824 366.775 48.7948 367.015 51.5195C367.097 52.456 366.052 53.0617 365.165 52.6996C362.23 51.5016 358.704 50.9026 354.585 50.9026C348.654 50.9026 343.896 52.2625 340.312 54.9822C336.79 57.7019 335.029 61.3584 335.029 65.9517C335.029 70.3032 336.697 73.9295 340.034 76.8305C343.432 79.7315 347.634 81.182 352.639 81.182C358.509 81.182 363.205 78.6436 366.727 73.5669V78.5044C366.727 79.1821 367.289 79.7315 367.981 79.7315H373.999C374.692 79.7315 375.254 79.1821 375.254 78.5044V52.3531C375.254 46.6115 373.431 42.1089 369.785 38.8452ZM424.725 78.4277C424.725 79.1478 424.128 79.7315 423.392 79.7315H417.531C416.795 79.7315 416.198 79.1478 416.198 78.4277V76.9713C416.198 76.0318 414.745 75.5812 414.06 76.2404C412.986 77.2752 411.69 78.1972 410.174 79.0063C407.517 80.4568 404.736 81.182 401.832 81.182C396.271 81.182 391.977 79.6409 388.949 76.5585C385.983 73.4158 384.5 68.9736 384.5 63.2319V36.6135C384.5 35.8933 385.097 35.3096 385.833 35.3096H391.694C392.431 35.3096 393.027 35.8933 393.027 36.6135V62.688C393.213 69.9406 396.951 73.5669 404.242 73.5669C407.64 73.5669 410.483 72.2372 412.769 69.5779C415.055 66.8582 416.198 63.6248 416.198 59.8776V36.6135C416.198 35.8933 416.795 35.3096 417.531 35.3096H423.392C424.128 35.3096 424.725 35.8933 424.725 36.6135V78.4277ZM468.775 16.045C468.775 15.3673 469.337 14.8179 470.03 14.8179H476.048C476.74 14.8179 477.302 15.3673 477.302 16.045V38.0699C477.302 39.0093 478.75 39.456 479.43 38.7926C480.488 37.7611 481.756 36.8419 483.234 36.0348C485.953 34.5843 488.764 33.8591 491.668 33.8591C497.229 33.8591 501.493 35.4305 504.458 38.5732C507.486 41.6556 509 46.0676 509 51.8092V78.5044C509 79.1821 508.438 79.7315 507.745 79.7315H501.728C501.035 79.7315 500.473 79.1821 500.473 78.5044V53.441C500.473 45.4632 496.858 41.4743 489.629 41.4743C486.169 41.4743 483.234 42.8946 480.824 45.7351C478.476 48.5153 477.302 51.7789 477.302 55.5261V78.5044C477.302 79.1821 476.74 79.7315 476.048 79.7315H470.03C469.337 79.7315 468.775 79.1821 468.775 78.5044V16.045Z" fill="#0F1222"/>
</svg>
