<svg width="340" height="61" viewBox="0 0 538 96" fill="none" xmlns="http://www.w3.org/2000/svg">
<path fill-rule="evenodd" clip-rule="evenodd" d="M57.9021 72.7624C57.727 73.4159 58.2194 74.0576 58.8959 74.0576H64.8214C65.4979 74.0576 65.9903 73.4159 65.8152 72.7624L62.8525 61.7053C62.5801 60.6885 61.1373 60.6885 60.8648 61.7053L57.9021 72.7624Z" fill="white"/>
<path fill-rule="evenodd" clip-rule="evenodd" d="M52.0019 79.8396C51.5482 81.533 50.0136 82.7106 48.2604 82.7106H40.2401C37.6931 82.7106 35.8393 80.2947 36.4985 77.8345L52.9519 16.4299C53.4482 14.5777 55.1266 13.2897 57.0442 13.2897H66.5894C68.5069 13.2897 70.1854 14.5777 70.6817 16.4299L87.135 77.8345C87.7942 80.2947 85.9404 82.7106 83.3934 82.7106H75.3731C73.6199 82.7106 72.0853 81.533 71.6316 79.8396L63.6291 49.9738C63.1322 48.1197 60.5013 48.1197 60.0044 49.9738L52.0019 79.8396Z" fill="white"/>
<path fill-rule="evenodd" clip-rule="evenodd" d="M92.3449 68.2685C91.8321 70.1824 89.1162 70.1824 88.6034 68.2685L82.6301 45.9759C82.5146 45.5449 82.5146 45.091 82.6301 44.66L90.2425 16.25C90.7105 14.5036 92.293 13.2893 94.101 13.2893H101.871C104.497 13.2893 106.409 15.7807 105.729 18.3178L92.3449 68.2685ZM41.0949 45.9387C41.2104 45.5077 41.2104 45.0539 41.0949 44.6228L33.4924 16.25C33.0245 14.5036 31.4419 13.2893 29.634 13.2893H21.8643C19.2377 13.2893 17.326 15.7807 18.0058 18.3178L31.3801 68.2313C31.8929 70.1452 34.6088 70.1452 35.1216 68.2313L41.0949 45.9387Z" fill="white"/>
<path fill-rule="evenodd" clip-rule="evenodd" d="M272.856 81.182C269.52 81.182 266.461 80.487 263.681 79.0969C262.112 78.2948 260.749 77.3417 259.591 76.2376C258.86 75.5399 257.378 76.0135 257.378 77.0128V78.5044C257.378 79.1821 256.817 79.7315 256.124 79.7315H250.106C249.413 79.7315 248.851 79.1821 248.851 78.5044V16.045C248.851 15.3673 249.413 14.8179 250.106 14.8179H256.095C256.788 14.8179 257.35 15.3673 257.35 16.045V38.0284C257.35 39.0277 258.835 39.5039 259.569 38.8083C260.735 37.7022 262.11 36.7475 263.681 35.9442C266.461 34.5541 269.52 33.8591 272.856 33.8591C278.85 33.8591 283.917 36.1557 288.057 40.749C292.32 45.4027 294.452 50.9933 294.452 57.5206C294.452 64.1083 292.32 69.6988 288.057 74.2921C283.917 78.8854 278.85 81.182 272.856 81.182ZM271.466 73.5669C275.544 73.5669 278.974 72.0559 281.754 69.034C284.535 66.0725 285.925 62.2347 285.925 57.5206C285.925 52.8668 284.535 49.029 281.754 46.0071C278.974 42.9852 275.544 41.4743 271.466 41.4743C267.326 41.4743 263.866 42.9852 261.086 46.0071C258.367 49.029 257.008 52.8668 257.008 57.5206C257.008 62.2347 258.367 66.1028 261.086 69.1247C263.866 72.0861 267.326 73.5669 271.466 73.5669ZM219.551 81.182C212.878 81.182 207.379 78.9458 203.053 74.4734C198.728 70.001 196.565 64.35 196.565 57.5205C196.565 50.7515 198.666 45.1307 202.868 40.6583C207.07 36.1255 212.445 33.859 218.995 33.859C225.73 33.859 231.075 36.0046 235.029 40.2957C239.291 44.7848 241.328 51.5365 241.061 57.6775C241.027 58.4648 240.347 59.0617 239.542 59.0617H206.81C205.97 59.0617 205.29 59.7406 205.377 60.5569C205.768 64.2233 207.217 67.2303 209.727 69.5779C212.569 72.2372 215.967 73.5668 219.922 73.5668C224.967 73.5668 229.001 71.2774 232.025 66.6987C232.429 66.0865 233.234 65.8379 233.903 66.1574L238.998 68.5883C239.716 68.9309 240.004 69.7905 239.588 70.4577C237.619 73.6163 235.018 76.1334 231.785 78.009C228.201 80.1244 224.123 81.182 219.551 81.182ZM206.42 50.4212C206.118 51.3055 206.831 52.1718 207.784 52.1718H230.359C231.228 52.1718 231.922 51.444 231.746 50.6119C231.24 48.2224 230.017 46.2039 228.078 44.5566C225.792 42.5017 222.702 41.4742 218.81 41.4742C215.597 41.4742 212.816 42.4412 210.468 44.3753C208.607 45.9499 207.257 47.9652 206.42 50.4212ZM193.951 37.0136C194.229 36.1717 193.587 35.3096 192.683 35.3096H186.798C186.207 35.3096 185.686 35.6904 185.519 36.245L176.839 65.0644C176.491 66.2203 174.826 66.2443 174.443 65.0991L164.784 36.2082C164.605 35.6721 164.094 35.3096 163.517 35.3096H156.643C156.067 35.3096 155.557 35.6707 155.377 36.2051L145.63 65.1182C145.245 66.2611 143.583 66.235 143.235 65.0807L134.55 36.245C134.383 35.6904 133.863 35.3096 133.272 35.3096H127.201C126.297 35.3096 125.655 36.1717 125.933 37.0136L139.717 78.8278C139.895 79.3664 140.407 79.7315 140.986 79.7315H147.663C148.242 79.7315 148.755 79.3661 148.932 78.8271L158.66 49.2596C159.033 48.126 160.672 48.1241 161.048 49.2567L170.858 78.8301C171.036 79.3675 171.548 79.7315 172.126 79.7315H178.898C179.477 79.7315 179.989 79.3664 180.167 78.8278L193.951 37.0136ZM458.137 77.1025C460.609 79.3387 463.698 80.4568 467.406 80.4568C469.859 80.4568 472.059 80.188 474.005 79.6504C474.668 79.467 475.006 78.7649 474.776 78.1289L472.956 73.0956C472.712 72.421 471.931 72.0951 471.234 72.311C471.044 72.3696 470.85 72.4256 470.65 72.479C470.032 72.5998 469.383 72.6603 468.703 72.6603C467.22 72.6603 465.892 72.1466 464.718 71.1191C463.544 70.0312 462.957 68.0066 462.957 65.0451V44.1519C462.957 43.4742 463.519 42.9248 464.211 42.9248H472.824C473.517 42.9248 474.079 42.3754 474.079 41.6976V36.5368C474.079 35.859 473.517 35.3096 472.824 35.3096H464.211C463.519 35.3096 462.957 34.7602 462.957 34.0824V16.045C462.957 15.3673 462.395 14.8179 461.702 14.8179H455.685C454.992 14.8179 454.43 15.3673 454.43 16.045V34.0824C454.43 34.7602 453.868 35.3096 453.175 35.3096H447.714C447.021 35.3096 446.459 35.859 446.459 36.5367V41.6976C446.459 42.3754 447.021 42.9248 447.714 42.9248H453.175C453.868 42.9248 454.43 43.4742 454.43 44.1519V67.7648C454.492 71.7537 455.728 74.8663 458.137 77.1025ZM336.361 75.7426C340.501 72.1163 342.571 67.5835 342.571 62.1441C342.571 58.82 341.613 55.8283 339.698 53.169C338.816 51.9046 337.55 50.2974 333.836 48.2606C333.051 47.8302 333.031 46.6838 333.773 46.1863C338.217 43.2071 340.439 38.6963 340.439 33.4058C340.439 28.3894 338.555 24.3099 334.785 21.1671C330.954 17.9034 326.228 16.2716 320.605 16.2716C316.094 16.2716 312.171 17.4501 308.834 19.8072C305.861 21.9075 303.648 24.5837 302.196 27.8357C301.895 28.5096 302.241 29.2793 302.933 29.5661L308.202 31.7488C308.948 32.0579 309.8 31.6863 310.135 30.9646C312.211 26.4878 315.701 24.2494 320.605 24.2494C323.941 24.2494 326.629 25.0956 328.668 26.7878C330.707 28.4801 331.727 30.6861 331.727 33.4058C331.727 36.3672 330.646 38.7848 328.483 40.6583C326.32 42.4715 323.54 43.3781 320.141 43.3781H316.733C315.954 43.3781 315.322 43.9962 315.322 44.7586V49.794C315.322 50.5565 315.954 51.1746 316.733 51.1746H320.79C324.374 51.1746 327.432 52.2322 329.966 54.3476C332.561 56.4629 333.859 59.0617 333.859 62.1441C333.859 65.2264 332.623 67.8555 330.151 70.0312C327.618 72.1466 324.621 73.2042 321.161 73.2042C318.01 73.2042 315.291 72.2977 313.005 70.4845C311.111 68.8897 309.666 66.7257 308.668 63.9924C308.383 63.212 307.496 62.7875 306.714 63.1062L301.559 65.2072C300.898 65.4766 300.544 66.1893 300.775 66.852C302.217 70.9718 304.717 74.3584 308.278 77.0118C312.109 79.792 316.403 81.182 321.161 81.182C327.216 81.182 332.283 79.3689 336.361 75.7426ZM357.701 66.133C357.701 63.7155 358.845 61.6908 361.131 60.059C363.479 58.4271 366.383 57.6112 369.843 57.6112C374.282 57.6112 377.807 58.5056 380.417 60.2945C380.771 60.5368 380.97 60.9401 380.948 61.3617C380.777 64.5882 379.362 67.4176 376.702 69.8499C373.921 72.4487 370.739 73.7482 367.155 73.7482C364.622 73.7482 362.397 73.0229 360.482 71.5724C358.628 70.1219 357.701 68.3088 357.701 66.133ZM383.653 38.8452C380.007 35.5211 375.033 33.8591 368.731 33.8591C361.132 33.8591 355.276 36.4155 351.163 41.5283C350.72 42.0788 350.887 42.8745 351.493 43.2477L356.87 46.5597C357.439 46.9097 358.184 46.7557 358.604 46.2428C361.304 42.9429 364.834 41.2929 369.194 41.2929C372.345 41.2929 375.095 42.3204 377.443 44.3753C379.806 46.3824 380.642 48.7948 380.882 51.5195C380.965 52.456 379.919 53.0617 379.032 52.6996C376.098 51.5016 372.571 50.9026 368.453 50.9026C362.521 50.9026 357.763 52.2625 354.179 54.9822C350.657 57.7019 348.896 61.3584 348.896 65.9517C348.896 70.3032 350.565 73.9295 353.901 76.8305C357.3 79.7315 361.502 81.182 366.506 81.182C372.376 81.182 377.072 78.6436 380.594 73.5669V78.5044C380.594 79.1821 381.156 79.7315 381.849 79.7315H387.867C388.56 79.7315 389.121 79.1821 389.121 78.5044V52.3531C389.121 46.6115 387.298 42.1089 383.653 38.8452ZM438.593 78.4277C438.593 79.1478 437.996 79.7315 437.26 79.7315H431.399C430.663 79.7315 430.066 79.1478 430.066 78.4277V76.9713C430.066 76.0318 428.612 75.5812 427.928 76.2404C426.853 77.2752 425.558 78.1972 424.041 79.0063C421.384 80.4568 418.604 81.182 415.7 81.182C410.139 81.182 405.844 79.6409 402.817 76.5585C399.851 73.4158 398.368 68.9736 398.368 63.2319V36.6135C398.368 35.8933 398.965 35.3096 399.701 35.3096H405.562C406.298 35.3096 406.895 35.8933 406.895 36.6135V62.688C407.08 69.9406 410.818 73.5669 418.11 73.5669C421.508 73.5669 424.35 72.2372 426.636 69.5779C428.923 66.8582 430.066 63.6248 430.066 59.8776V36.6135C430.066 35.8933 430.663 35.3096 431.399 35.3096H437.26C437.996 35.3096 438.593 35.8933 438.593 36.6135V78.4277ZM482.643 16.045C482.643 15.3673 483.204 14.8179 483.897 14.8179H489.915C490.608 14.8179 491.17 15.3673 491.17 16.045V38.0699C491.17 39.0093 492.618 39.456 493.298 38.7926C494.355 37.7611 495.623 36.8419 497.101 36.0348C499.82 34.5843 502.632 33.8591 505.536 33.8591C511.097 33.8591 515.36 35.4305 518.326 38.5732C521.354 41.6556 522.867 46.0676 522.867 51.8092V78.5044C522.867 79.1821 522.306 79.7315 521.613 79.7315H515.595C514.902 79.7315 514.341 79.1821 514.341 78.5044V53.441C514.341 45.4632 510.726 41.4743 503.497 41.4743C500.036 41.4743 497.101 42.8946 494.692 45.7351C492.344 48.5153 491.17 51.7789 491.17 55.5261V78.5044C491.17 79.1821 490.608 79.7315 489.915 79.7315H483.897C483.204 79.7315 482.643 79.1821 482.643 78.5044V16.045Z" fill="white"/>
</svg>
