<svg width="220" height="61" viewBox="0 0 220 61" fill="none" xmlns="http://www.w3.org/2000/svg">
<path d="M10 27.2978L27.2978 10V18.6489H44.5956L27.2978 31.6223V44.5958L10 27.2978Z" fill="white"/>
<path d="M70.5423 27.2978L53.2447 44.5958V35.9468H35.9467L53.2447 22.9734V10L70.5423 27.2978Z" fill="white"/>
<path d="M104.162 42.4859V12.2133H111.479V25.0141H111.878L121.885 12.2133H130.503L119.771 25.7236L130.695 42.4859H121.944L114.406 30.5867L111.479 34.2821V42.4859H104.162Z" fill="white"/>
<path d="M78.2236 42.4859V38.3175L92.9312 18.1554H78.2385V12.2133H102.185V16.3817L87.477 36.5437H102.17V42.4859H78.2236Z" fill="white"/>
<path d="M200.48 42.959C198.45 42.959 196.681 42.4514 195.173 41.4364C193.675 40.4215 192.513 39.032 191.685 37.2681C190.857 35.5041 190.443 33.4938 190.443 31.2372C190.443 28.9608 190.862 26.9358 191.7 25.1619C192.547 23.3882 193.72 21.9987 195.217 20.9936C196.716 19.9785 198.455 19.4711 200.435 19.4711C201.953 19.4711 203.328 19.7667 204.559 20.358C205.791 20.9394 206.806 21.7622 207.604 22.8265C208.413 23.8809 208.92 25.1127 209.127 26.5219H206.466C206.19 25.2408 205.525 24.147 204.471 23.2404C203.426 22.3239 202.096 21.8657 200.48 21.8657C199.031 21.8657 197.75 22.2598 196.637 23.0482C195.523 23.8267 194.651 24.9156 194.02 26.3149C193.399 27.7044 193.089 29.3156 193.089 31.1485C193.089 32.9912 193.395 34.6222 194.006 36.0412C194.616 37.4503 195.474 38.554 196.578 39.3522C197.691 40.1505 198.992 40.5495 200.48 40.5495C201.485 40.5495 202.401 40.3623 203.229 39.9879C204.067 39.6035 204.767 39.0615 205.328 38.3619C205.9 37.6622 206.284 36.8295 206.481 35.8638H209.142C208.945 37.2336 208.457 38.4555 207.678 39.5296C206.91 40.5939 205.91 41.4315 204.678 42.0425C203.456 42.6533 202.057 42.959 200.48 42.959Z" fill="white"/>
<path d="M173.051 28.2956V42.4859H170.419V19.7815H172.977V23.3438H173.213C173.745 22.181 174.573 21.2498 175.697 20.5501C176.83 19.8406 178.229 19.4858 179.895 19.4858C181.422 19.4858 182.762 19.8061 183.915 20.4466C185.078 21.0773 185.98 22.0085 186.62 23.2404C187.271 24.4722 187.596 25.9848 187.596 27.7783V42.4859H184.965V27.9409C184.965 26.0784 184.442 24.6052 183.398 23.5212C182.363 22.4372 180.974 21.8952 179.229 21.8952C178.037 21.8952 176.978 22.1514 176.051 22.6639C175.125 23.1763 174.391 23.9154 173.849 24.8811C173.317 25.837 173.051 26.9752 173.051 28.2956Z" fill="white"/>
<path d="M152.443 51C151.921 51 151.433 50.9509 150.98 50.8523C150.527 50.7538 150.167 50.6455 149.901 50.5273L150.61 48.2064C151.507 48.4824 152.305 48.5809 153.005 48.5021C153.705 48.4332 154.326 48.1178 154.868 47.5559C155.409 47.0043 155.892 46.1566 156.316 45.0137L157.144 42.7077L148.792 19.7815H151.645L158.385 39.0123H158.592L165.333 19.7815H168.186L158.578 46.0778C158.174 47.1717 157.676 48.0833 157.085 48.8126C156.493 49.5517 155.809 50.0984 155.03 50.4533C154.261 50.8178 153.399 51 152.443 51Z" fill="white"/>
<path d="M147.438 24.7629L145.029 25.4428C144.792 24.7629 144.457 24.147 144.023 23.5951C143.59 23.0433 143.023 22.6048 142.323 22.2795C141.634 21.9544 140.776 21.7917 139.752 21.7917C138.214 21.7917 136.953 22.1564 135.967 22.8856C134.982 23.6148 134.489 24.5559 134.489 25.7089C134.489 26.6844 134.824 27.4777 135.494 28.0887C136.174 28.6898 137.219 29.1678 138.628 29.5225L142.057 30.3651C143.959 30.8282 145.383 31.5624 146.329 32.5675C147.285 33.5727 147.763 34.834 147.763 36.3516C147.763 37.6327 147.408 38.7708 146.699 39.7661C145.989 40.7614 144.999 41.5449 143.728 42.1164C142.466 42.6782 141.003 42.959 139.338 42.959C137.12 42.959 135.292 42.4614 133.854 41.466C132.415 40.4609 131.493 39.0123 131.089 37.1202L133.617 36.4994C133.942 37.8495 134.578 38.8694 135.524 39.5592C136.48 40.249 137.736 40.5939 139.293 40.5939C141.037 40.5939 142.432 40.2047 143.476 39.4261C144.521 38.6378 145.043 37.6524 145.043 36.4698C145.043 35.5534 144.738 34.7847 144.127 34.1639C143.516 33.5332 142.589 33.0701 141.348 32.7744L137.638 31.8876C135.667 31.4146 134.208 30.6656 133.262 29.6408C132.316 28.6159 131.843 27.3447 131.843 25.8271C131.843 24.5756 132.183 23.4768 132.863 22.5308C133.543 21.575 134.479 20.826 135.672 20.2841C136.864 19.7421 138.224 19.4711 139.752 19.4711C141.831 19.4711 143.491 19.9441 144.733 20.8901C145.984 21.8263 146.886 23.1172 147.438 24.7629Z" fill="white"/>
</svg>
